NotoNaskhArabicUI.glyphspackage
{
glyphname = uni00AB;
layers = (
{
layerId = master01;
paths = (
{
closed = 1;
nodes = (
"354 226 OFFCURVE",
"370 234 OFFCURVE",
"385 251 CURVE",
"365 273 OFFCURVE",
"346 296 OFFCURVE",
"328 319 CURVE SMOOTH",
"280 378 LINE",
"368 513 LINE",
"335 544 LINE",
"216 371 LINE",
"246 327 OFFCURVE",
"275 283 OFFCURVE",
"305 240 CURVE SMOOTH",
"312 230 OFFCURVE",
"323 226 OFFCURVE",
"336 226 CURVE SMOOTH"
);
},
{
closed = 1;
nodes = (
"196 226 OFFCURVE",
"212 234 OFFCURVE",
"227 251 CURVE",
"212 267 OFFCURVE",
"193 290 OFFCURVE",
"170 319 CURVE SMOOTH",
"122 378 LINE",
"209 513 LINE",
"177 544 LINE",
"59 371 LINE",
"88 327 OFFCURVE",
"117 283 OFFCURVE",
"146 240 CURVE SMOOTH",
"153 230 OFFCURVE",
"165 226 OFFCURVE",
"178 226 CURVE SMOOTH"
);
}
);
width = 414;
},
{
layerId = "26E2967D-790C-4793-AF2A-2D0AD74EDC69";
paths = (
{
closed = 1;
nodes = (
"412 251 OFFCURVE",
"436 262 OFFCURVE",
"456 284 CURVE",
"425 316 OFFCURVE",
"392 352 OFFCURVE",
"357 393 CURVE SMOOTH",
"329 426 LINE",
"423 560 LINE",
"379 608 LINE",
"240 416 LINE",
"288 332 OFFCURVE",
"318 284 OFFCURVE",
"329 271 CURVE SMOOTH",
"341 258 OFFCURVE",
"359 251 OFFCURVE",
"382 251 CURVE SMOOTH"
);
},
{
closed = 1;
nodes = (
"229 226 OFFCURVE",
"254 237 OFFCURVE",
"274 259 CURVE",
"243 290 OFFCURVE",
"210 327 OFFCURVE",
"175 368 CURVE SMOOTH",
"146 401 LINE",
"241 535 LINE",
"197 583 LINE",
"59 390 LINE",
"106 308 OFFCURVE",
"135 260 OFFCURVE",
"147 246 CURVE SMOOTH",
"159 233 OFFCURVE",
"176 226 OFFCURVE",
"199 226 CURVE SMOOTH"
);
}
);
width = 485;
}
);
unicode = 00AB;
}
{
glyphname = uni00BB;
layers = (
{
layerId = master01;
paths = (
{
closed = 1;
nodes = (
"355 389 LINE",
"326 432 OFFCURVE",
"297 476 OFFCURVE",
"268 519 CURVE SMOOTH",
"261 529 OFFCURVE",
"249 534 OFFCURVE",
"235 534 CURVE SMOOTH",
"218 534 OFFCURVE",
"202 525 OFFCURVE",
"187 509 CURVE",
"207 486 OFFCURVE",
"226 464 OFFCURVE",
"244 441 CURVE SMOOTH",
"292 382 LINE",
"204 247 LINE",
"237 215 LINE"
);
},
{
closed = 1;
nodes = (
"197 389 LINE",
"168 432 OFFCURVE",
"139 476 OFFCURVE",
"109 519 CURVE SMOOTH",
"103 529 OFFCURVE",
"91 534 OFFCURVE",
"78 534 CURVE SMOOTH",
"60 534 OFFCURVE",
"44 525 OFFCURVE",
"29 509 CURVE",
"54 480 OFFCURVE",
"81 448 OFFCURVE",
"110 411 CURVE SMOOTH",
"134 382 LINE",
"46 247 LINE",
"79 215 LINE"
);
}
);
width = 414;
},
{
layerId = "26E2967D-790C-4793-AF2A-2D0AD74EDC69";
paths = (
{
closed = 1;
nodes = (
"426 433 LINE",
"379 515 OFFCURVE",
"350 563 OFFCURVE",
"338 577 CURVE SMOOTH",
"326 591 OFFCURVE",
"309 597 OFFCURVE",
"286 597 CURVE SMOOTH",
"256 597 OFFCURVE",
"231 586 OFFCURVE",
"211 565 CURVE",
"242 533 OFFCURVE",
"275 497 OFFCURVE",
"310 455 CURVE SMOOTH",
"338 423 LINE",
"244 288 LINE",
"288 240 LINE"
);
},
{
closed = 1;
nodes = (
"245 407 LINE",
"198 487 OFFCURVE",
"169 534 OFFCURVE",
"157 550 CURVE SMOOTH",
"146 565 OFFCURVE",
"128 572 OFFCURVE",
"103 572 CURVE SMOOTH",
"73 572 OFFCURVE",
"49 561 OFFCURVE",
"29 539 CURVE",
"66 500 OFFCURVE",
"99 464 OFFCURVE",
"128 430 CURVE SMOOTH",
"156 397 LINE",
"62 263 LINE",
"106 215 LINE"
);
}
);
width = 485;
}
);
unicode = 00BB;
}
{
glyphname = uni002C;
layers = (
{
layerId = master01;
paths = (
{
closed = 1;
nodes = (
"106 6 LINE",
"145 92 OFFCURVE",
"174 170 OFFCURVE",
"192 240 CURVE",
"185 251 LINE",
"91 251 LINE",
"79 169 OFFCURVE",
"62 87 OFFCURVE",
"41 6 CURVE"
);
}
);
width = 268;
},
{
layerId = "26E2967D-790C-4793-AF2A-2D0AD74EDC69";
paths = (
{
closed = 1;
nodes = (
"106 6 LINE",
"145 92 OFFCURVE",
"174 170 OFFCURVE",
"192 240 CURVE",
"185 251 LINE",
"91 251 LINE",
"79 169 OFFCURVE",
"62 87 OFFCURVE",
"41 6 CURVE"
);
}
);
width = 268;
}
);
unicode = 002C;
}
{
glyphname = uni002E;
layers = (
{
layerId = master01;
paths = (
{
closed = 1;
nodes = (
"153 109 OFFCURVE",
"167 132 OFFCURVE",
"167 140 CURVE SMOOTH",
"167 150 OFFCURVE",
"141 169 OFFCURVE",
"90 199 CURVE",
"82 187 OFFCURVE",
"74 174 OFFCURVE",
"67 161 CURVE SMOOTH",
"61 148 OFFCURVE",
"53 135 OFFCURVE",
"46 121 CURVE",
"66 109 OFFCURVE",
"93 92 OFFCURVE",
"125 69 CURVE"
);
}
);
width = 206;
},
{
layerId = "26E2967D-790C-4793-AF2A-2D0AD74EDC69";
paths = (
{
closed = 1;
nodes = (
"198 130 OFFCURVE",
"216 161 OFFCURVE",
"216 170 CURVE SMOOTH",
"216 189 OFFCURVE",
"154 227 OFFCURVE",
"118 249 CURVE",
"106 232 OFFCURVE",
"96 215 OFFCURVE",
"87 199 CURVE SMOOTH",
"79 182 OFFCURVE",
"69 165 OFFCURVE",
"59 147 CURVE",
"93 128 OFFCURVE",
"127 105 OFFCURVE",
"162 78 CURVE"
);
}
);
width = 245;
}
);
unicode = 002E;
}
{
glyphname = uni2E41;
layers = (
{
layerId = master01;
paths = (
{
closed = 1;
nodes = (
"227 6 LINE",
"213 66 LINE SMOOTH",
"199 125 OFFCURVE",
"185 197 OFFCURVE",
"177 251 CURVE",
"83 251 LINE",
"76 240 LINE",
"93 172 OFFCURVE",
"122 95 OFFCURVE",
"162 6 CURVE"
);
}
);
width = 268;
},
{
layerId = "26E2967D-790C-4793-AF2A-2D0AD74EDC69";
paths = (
{
closed = 1;
nodes = (
"227 6 LINE",
"213 66 LINE SMOOTH",
"199 125 OFFCURVE",
"185 197 OFFCURVE",
"177 251 CURVE",
"83 251 LINE",
"76 240 LINE",
"93 172 OFFCURVE",
"122 95 OFFCURVE",
"162 6 CURVE"
);
}
);
width = 268;
}
);
unicode = 2E41;
}
{
glyphname = uni003A;
layers = (
{
layerId = master01;
paths = (
{
closed = 1;
nodes = (
"153 463 OFFCURVE",
"167 487 OFFCURVE",
"167 493 CURVE SMOOTH",
"167 503 OFFCURVE",
"141 523 OFFCURVE",
"90 552 CURVE",
"82 540 OFFCURVE",
"74 527 OFFCURVE",
"68 514 CURVE SMOOTH",
"61 501 OFFCURVE",
"54 488 OFFCURVE",
"46 475 CURVE",
"66 462 OFFCURVE",
"93 445 OFFCURVE",
"125 423 CURVE"
);
},
{
closed = 1;
nodes = (
"153 109 OFFCURVE",
"167 132 OFFCURVE",
"167 140 CURVE SMOOTH",
"167 150 OFFCURVE",
"141 169 OFFCURVE",
"90 199 CURVE",
"82 187 OFFCURVE",
"74 174 OFFCURVE",
"68 161 CURVE SMOOTH",
"61 148 OFFCURVE",
"54 135 OFFCURVE",
"46 121 CURVE",
"70 106 OFFCURVE",
"97 89 OFFCURVE",
"125 69 CURVE"
);
}
);
width = 206;
},
{
layerId = "26E2967D-790C-4793-AF2A-2D0AD74EDC69";
paths = (
{
closed = 1;
nodes = (
"198 467 OFFCURVE",
"216 498 OFFCURVE",
"216 507 CURVE SMOOTH",
"216 526 OFFCURVE",
"154 564 OFFCURVE",
"118 586 CURVE",
"106 569 OFFCURVE",
"96 552 OFFCURVE",
"87 535 CURVE SMOOTH",
"79 518 OFFCURVE",
"69 501 OFFCURVE",
"59 484 CURVE",
"94 464 OFFCURVE",
"129 441 OFFCURVE",
"162 415 CURVE"
);
},
{
closed = 1;
nodes = (
"198 130 OFFCURVE",
"216 161 OFFCURVE",
"216 170 CURVE SMOOTH",
"216 185 OFFCURVE",
"183 211 OFFCURVE",
"118 249 CURVE",
"106 232 OFFCURVE",
"96 215 OFFCURVE",
"87 199 CURVE SMOOTH",
"79 182 OFFCURVE",
"69 165 OFFCURVE",
"59 147 CURVE",
"93 128 OFFCURVE",
"127 105 OFFCURVE",
"162 78 CURVE"
);
}
);
width = 274;
}
);
unicode = 003A;
}
{
glyphname = uni06AA;
layers = (
{
anchors = (
{
name = bottom;
position = "{774, 35}";
},
{
name = top;
position = "{387, 693}";
}
);
layerId = master01;
paths = (
{
closed = 1;
nodes = (
"502 135 OFFCURVE",
"766 152 OFFCURVE",
"942 179 CURVE",
"957 211 OFFCURVE",
"964 238 OFFCURVE",
"964 260 CURVE SMOOTH",
"964 289 OFFCURVE",
"956 313 OFFCURVE",
"940 334 CURVE SMOOTH",
"909 376 OFFCURVE",
"850 399 OFFCURVE",
"784 399 CURVE SMOOTH",
"743 399 OFFCURVE",
"677 397 OFFCURVE",
"584 392 CURVE SMOOTH",
"492 387 OFFCURVE",
"427 385 OFFCURVE",
"389 385 CURVE SMOOTH",
"341 385 OFFCURVE",
"280 401 OFFCURVE",
"280 418 CURVE SMOOTH",
"280 427 OFFCURVE",
"289 440 OFFCURVE",
"307 455 CURVE SMOOTH",
"343 485 OFFCURVE",
"427 533 OFFCURVE",
"483 556 CURVE SMOOTH",
"514 568 OFFCURVE",
"529 593 OFFCURVE",
"529 629 CURVE SMOOTH",
"529 637 OFFCURVE",
"528 645 OFFCURVE",
"526 654 CURVE",
"452 634 OFFCURVE",
"374 593 OFFCURVE",
"322 546 CURVE SMOOTH",
"269 500 OFFCURVE",
"244 451 OFFCURVE",
"244 400 CURVE SMOOTH",
"244 333 OFFCURVE",
"281 307 OFFCURVE",
"371 307 CURVE SMOOTH",
"419 307 OFFCURVE",
"490 310 OFFCURVE",
"583 316 CURVE SMOOTH",
"676 321 OFFCURVE",
"744 323 OFFCURVE",
"786 323 CURVE SMOOTH",
"862 323 OFFCURVE",
"906 299 OFFCURVE",
"926 241 CURVE",
"775 223 OFFCURVE",
"520 211 OFFCURVE",
"271 211 CURVE SMOOTH",
"173 211 OFFCURVE",
"86 219 OFFCURVE",
"10 235 CURVE",
"9 174 OFFCURVE",
"21 158 OFFCURVE",
"85 145 CURVE SMOOTH",
"118 137 OFFCURVE",
"174 135 OFFCURVE",
"286 135 CURVE SMOOTH"
);
}
);
width = 1015;
},
{
anchors = (
{
name = bottom;
position = "{760, 25}";
},
{
name = top;
position = "{392, 772}";
}
);
layerId = "26E2967D-790C-4793-AF2A-2D0AD74EDC69";
paths = (
{
closed = 1;
nodes = (
"510 144 OFFCURVE",
"782 161 OFFCURVE",
"956 188 CURVE",
"970 220 OFFCURVE",
"977 247 OFFCURVE",
"977 269 CURVE SMOOTH",
"977 384 OFFCURVE",
"903 459 OFFCURVE",
"791 459 CURVE SMOOTH",
"755 459 OFFCURVE",
"687 456 OFFCURVE",
"586 451 CURVE SMOOTH",
"499 447 OFFCURVE",
"433 445 OFFCURVE",
"389 445 CURVE SMOOTH",
"364 445 OFFCURVE",
"341 448 OFFCURVE",
"319 455 CURVE SMOOTH",
"298 461 OFFCURVE",
"287 469 OFFCURVE",
"287 477 CURVE SMOOTH",
"287 486 OFFCURVE",
"299 497 OFFCURVE",
"324 511 CURVE SMOOTH",
"352 527 OFFCURVE",
"396 545 OFFCURVE",
"483 579 CURVE SMOOTH",
"518 593 OFFCURVE",
"538 627 OFFCURVE",
"539 675 CURVE SMOOTH",
"539 690 OFFCURVE",
"537 706 OFFCURVE",
"534 723 CURVE",
"461 704 OFFCURVE",
"376 663 OFFCURVE",
"319 612 CURVE SMOOTH",
"263 561 OFFCURVE",
"235 509 OFFCURVE",
"235 460 CURVE SMOOTH",
"235 374 OFFCURVE",
"275 333 OFFCURVE",
"371 333 CURVE SMOOTH",
"419 333 OFFCURVE",
"491 336 OFFCURVE",
"585 342 CURVE SMOOTH",
"679 347 OFFCURVE",
"748 349 OFFCURVE",
"791 349 CURVE SMOOTH",
"867 349 OFFCURVE",
"901 336 OFFCURVE",
"923 292 CURVE",
"766 273 OFFCURVE",
"500 262 OFFCURVE",
"271 262 CURVE SMOOTH",
"173 262 OFFCURVE",
"86 270 OFFCURVE",
"10 286 CURVE",
"9 206 OFFCURVE",
"40 161 OFFCURVE",
"96 151 CURVE SMOOTH",
"127 146 OFFCURVE",
"182 144 OFFCURVE",
"286 144 CURVE SMOOTH"
);
}
);
width = 1015;
}
);
unicode = 06AA;
}
{
glyphname = uni06CD;
layers = (
{
anchors = (
{
name = bottom;
position = "{384, -175}";
},
{
name = top;
position = "{370, 449}";
}
);
layerId = master01;
paths = (
{
closed = 1;
nodes = (
"429 -127 OFFCURVE",
"477 -116 OFFCURVE",
"529 -94 CURVE SMOOTH",
"634 -50 OFFCURVE",
"718 27 OFFCURVE",
"718 88 CURVE SMOOTH",
"718 120 OFFCURVE",
"710 141 OFFCURVE",
"687 156 CURVE SMOOTH",
"667 169 OFFCURVE",
"635 177 OFFCURVE",
"587 184 CURVE SMOOTH",
"533 192 OFFCURVE",
"496 204 OFFCURVE",
"477 222 CURVE",
"483 247 OFFCURVE",
"495 272 OFFCURVE",
"516 299 CURVE SMOOTH",
"556 351 OFFCURVE",
"616 393 OFFCURVE",
"651 393 CURVE SMOOTH",
"668 393 OFFCURVE",
"674 391 OFFCURVE",
"684 378 CURVE",
"719 388 LINE",
"707 442 OFFCURVE",
"687 475 OFFCURVE",
"642 475 CURVE SMOOTH",
"616 475 OFFCURVE",
"587 461 OFFCURVE",
"554 432 CURVE SMOOTH",
"489 375 OFFCURVE",
"441 287 OFFCURVE",
"441 226 CURVE SMOOTH",
"441 196 OFFCURVE",
"447 172 OFFCURVE",
"460 153 CURVE SMOOTH",
"486 115 OFFCURVE",
"530 102 OFFCURVE",
"630 94 CURVE SMOOTH",
"648 92 OFFCURVE",
"666 90 OFFCURVE",
"683 87 CURVE",
"672 65 OFFCURVE",
"651 44 OFFCURVE",
"619 24 CURVE SMOOTH",
"557 -16 OFFCURVE",
"458 -44 OFFCURVE",
"387 -44 CURVE SMOOTH",
"299 -44 OFFCURVE",
"248 13 OFFCURVE",
"248 111 CURVE SMOOTH",
"248 139 OFFCURVE",
"256 173 OFFCURVE",
"268 211 CURVE",
"235 227 LINE",
"172 195 OFFCURVE",
"93 154 OFFCURVE",
"80 139 CURVE SMOOTH",
"71 128 OFFCURVE",
"70 122 OFFCURVE",
"68 105 CURVE SMOOTH",
"68 94 OFFCURVE",
"71 84 OFFCURVE",
"77 74 CURVE",
"122 98 OFFCURVE",
"166 122 OFFCURVE",
"210 146 CURVE",
"205 121 OFFCURVE",
"203 93 OFFCURVE",
"203 61 CURVE SMOOTH",
"203 -59 OFFCURVE",
"270 -127 OFFCURVE",
"384 -127 CURVE SMOOTH"
);
}
);
width = 753;
},
{
anchors = (
{
name = bottom;
position = "{409, -175}";
},
{
name = top;
position = "{355, 432}";
}
);
layerId = "26E2967D-790C-4793-AF2A-2D0AD74EDC69";
paths = (
{
closed = 1;
nodes = (
"445 -117 OFFCURVE",
"498 -105 OFFCURVE",
"552 -80 CURVE SMOOTH",
"659 -30 OFFCURVE",
"738 55 OFFCURVE",
"738 116 CURVE SMOOTH",
"738 146 OFFCURVE",
"724 183 OFFCURVE",
"704 198 CURVE SMOOTH",
"684 214 OFFCURVE",
"660 222 OFFCURVE",
"613 228 CURVE SMOOTH",
"561 234 OFFCURVE",
"521 242 OFFCURVE",
"495 253 CURVE",
"506 280 OFFCURVE",
"521 305 OFFCURVE",
"542 327 CURVE SMOOTH",
"582 373 OFFCURVE",
"631 401 OFFCURVE",
"667 401 CURVE SMOOTH",
"679 401 OFFCURVE",
"689 395 OFFCURVE",
"699 382 CURVE",
"743 391 LINE",
"730 476 OFFCURVE",
"701 520 OFFCURVE",
"655 520 CURVE SMOOTH",
"626 520 OFFCURVE",
"594 506 OFFCURVE",
"561 479 CURVE SMOOTH",
"494 423 OFFCURVE",
"444 329 OFFCURVE",
"444 254 CURVE SMOOTH",
"444 221 OFFCURVE",
"451 195 OFFCURVE",
"467 173 CURVE SMOOTH",
"494 135 OFFCURVE",
"548 114 OFFCURVE",
"637 108 CURVE SMOOTH",
"652 107 OFFCURVE",
"669 107 OFFCURVE",
"687 107 CURVE",
"665 90 OFFCURVE",
"641 74 OFFCURVE",
"615 61 CURVE SMOOTH",
"545 23 OFFCURVE",
"468 1 OFFCURVE",
"404 1 CURVE SMOOTH",
"313 1 OFFCURVE",
"268 46 OFFCURVE",
"268 135 CURVE SMOOTH",
"268 160 OFFCURVE",
"276 197 OFFCURVE",
"286 225 CURVE",
"246 245 LINE",
"191 218 OFFCURVE",
"96 160 OFFCURVE",
"86 148 CURVE SMOOTH",
"75 137 OFFCURVE",
"69 119 OFFCURVE",
"69 100 CURVE SMOOTH",
"69 81 OFFCURVE",
"73 64 OFFCURVE",
"83 49 CURVE",
"138 79 OFFCURVE",
"180 101 OFFCURVE",
"210 114 CURVE",
"209 106 OFFCURVE",
"209 97 OFFCURVE",
"209 88 CURVE SMOOTH",
"209 -45 OFFCURVE",
"273 -117 OFFCURVE",
"393 -117 CURVE SMOOTH"
);
}
);
width = 777;
}
);
unicode = 06CD;
}
{
glyphname = uni06D4;
layers = (
{
layerId = master01;
paths = (
{
closed = 1;
nodes = (
"198 135 LINE SMOOTH",
"201 135 OFFCURVE",
"203 136 OFFCURVE",
"203 138 CURVE SMOOTH",
"203 208 LINE SMOOTH",
"203 210 OFFCURVE",
"200 211 OFFCURVE",
"198 211 CURVE SMOOTH",
"44 211 LINE SMOOTH",
"42 211 OFFCURVE",
"41 210 OFFCURVE",
"41 208 CURVE SMOOTH",
"41 138 LINE SMOOTH",
"41 136 OFFCURVE",
"42 135 OFFCURVE",
"44 135 CURVE SMOOTH"
);
}
);
width = 243;
},
{
layerId = "26E2967D-790C-4793-AF2A-2D0AD74EDC69";
paths = (
{
closed = 1;
nodes = (
"245 144 LINE SMOOTH",
"248 144 OFFCURVE",
"250 145 OFFCURVE",
"250 148 CURVE SMOOTH",
"250 259 LINE SMOOTH",
"250 261 OFFCURVE",
"248 262 OFFCURVE",
"245 262 CURVE SMOOTH",
"44 262 LINE SMOOTH",
"42 262 OFFCURVE",
"41 261 OFFCURVE",
"41 259 CURVE SMOOTH",
"41 148 LINE SMOOTH",
"41 145 OFFCURVE",
"42 144 OFFCURVE",
"44 144 CURVE SMOOTH"
);
}
);
width = 290;
}
);
unicode = 06D4;
}
{
glyphname = uni06D6;
layers = (
{
anchors = (
{
name = bottom;
position = "{25, -130}";
},
{
name = top;
position = "{9, 930}";
}
);
layerId = master01;
paths = (
{
closed = 1;
nodes = (
"-62 551 OFFCURVE",
"21 548 OFFCURVE",
"21 576 CURVE SMOOTH",
"21 580 OFFCURVE",
"19 585 OFFCURVE",
"16 589 CURVE",
"-14 583 OFFCURVE",
"-53 580 OFFCURVE",
"-104 580 CURVE SMOOTH",
"-147 580 OFFCURVE",
"-194 585 OFFCURVE",
"-214 591 CURVE",
"-185 610 OFFCURVE",
"-118 629 OFFCURVE",
"-79 637 CURVE SMOOTH",
"-56 642 LINE",
"-46 632 OFFCURVE",
"-32 628 OFFCURVE",
"-13 628 CURVE SMOOTH",
"12 628 OFFCURVE",
"21 632 OFFCURVE",
"36 649 CURVE",
"57 637 OFFCURVE",
"97 628 OFFCURVE",
"138 628 CURVE SMOOTH",
"160 628 OFFCURVE",
"180 631 OFFCURVE",
"198 638 CURVE SMOOTH",
"235 651 OFFCURVE",
"259 673 OFFCURVE",
"259 708 CURVE SMOOTH",
"259 728 OFFCURVE",
"216 762 OFFCURVE",
"192 762 CURVE SMOOTH",
"158 762 OFFCURVE",
"117 730 OFFCURVE",
"70 666 CURVE",
"51 674 LINE",
"62 700 LINE",
"60 702 OFFCURVE",
"57 704 OFFCURVE",
"53 704 CURVE SMOOTH",
"48 704 OFFCURVE",
"44 701 OFFCURVE",
"41 697 CURVE SMOOTH",
"30 678 LINE SMOOTH",
"23 666 OFFCURVE",
"12 657 OFFCURVE",
"-13 657 CURVE SMOOTH",
"-26 657 OFFCURVE",
"-39 660 OFFCURVE",
"-52 666 CURVE",
"-54 774 LINE SMOOTH",
"-55 819 OFFCURVE",
"-55 855 OFFCURVE",
"-57 881 CURVE",
"-65 875 OFFCURVE",
"-73 868 OFFCURVE",
"-82 860 CURVE",
"-75 759 OFFCURVE",
"-70 695 OFFCURVE",
"-67 666 CURVE",
"-140 653 OFFCURVE",
"-232 628 OFFCURVE",
"-232 574 CURVE SMOOTH",
"-232 569 OFFCURVE",
"-218 564 OFFCURVE",
"-190 559 CURVE SMOOTH",
"-162 553 OFFCURVE",
"-134 551 OFFCURVE",
"-106 551 CURVE SMOOTH"
);
},
{
closed = 1;
nodes = (
"123 657 OFFCURVE",
"105 659 OFFCURVE",
"87 662 CURVE",
"124 707 OFFCURVE",
"159 731 OFFCURVE",
"184 731 CURVE SMOOTH",
"201 731 OFFCURVE",
"226 718 OFFCURVE",
"242 689 CURVE",
"208 667 OFFCURVE",
"175 657 OFFCURVE",
"142 657 CURVE SMOOTH"
);
}
);
width = 0;
},
{
anchors = (
{
name = bottom;
position = "{25, -130}";
},
{
name = top;
position = "{9, 930}";
}
);
layerId = "26E2967D-790C-4793-AF2A-2D0AD74EDC69";
paths = (
{
closed = 1;
nodes = (
"-59 535 OFFCURVE",
"29 532 OFFCURVE",
"29 565 CURVE SMOOTH",
"29 571 OFFCURVE",
"26 578 OFFCURVE",
"21 584 CURVE",
"-9 577 OFFCURVE",
"-48 574 OFFCURVE",
"-101 574 CURVE SMOOTH",
"-136 574 OFFCURVE",
"-174 577 OFFCURVE",
"-198 582 CURVE",
"-166 598 OFFCURVE",
"-110 614 OFFCURVE",
"-75 621 CURVE SMOOTH",
"-55 626 LINE",
"-44 616 OFFCURVE",
"-30 612 OFFCURVE",
"-10 612 CURVE SMOOTH",
"14 612 OFFCURVE",
"27 617 OFFCURVE",
"40 632 CURVE",
"63 620 OFFCURVE",
"103 612 OFFCURVE",
"141 612 CURVE SMOOTH",
"164 612 OFFCURVE",
"184 615 OFFCURVE",
"203 622 CURVE SMOOTH",
"245 637 OFFCURVE",
"267 662 OFFCURVE",
"267 697 CURVE SMOOTH",
"267 720 OFFCURVE",
"222 756 OFFCURVE",
"195 756 CURVE SMOOTH",
"159 756 OFFCURVE",
"118 724 OFFCURVE",
"71 661 CURVE",
"61 666 LINE",
"71 690 LINE",
"67 695 OFFCURVE",
"62 698 OFFCURVE",
"56 698 CURVE SMOOTH",
"50 698 OFFCURVE",
"44 695 OFFCURVE",
"40 689 CURVE SMOOTH",
"29 670 LINE SMOOTH",
"21 657 OFFCURVE",
"10 651 OFFCURVE",
"-10 651 CURVE SMOOTH",
"-21 651 OFFCURVE",
"-33 654 OFFCURVE",
"-44 658 CURVE",
"-46 763 LINE SMOOTH",
"-47 813 OFFCURVE",
"-47 852 OFFCURVE",
"-50 879 CURVE",
"-61 872 OFFCURVE",
"-72 862 OFFCURVE",
"-84 851 CURVE",
"-77 754 OFFCURVE",
"-73 690 OFFCURVE",
"-69 659 CURVE",
"-140 646 OFFCURVE",
"-234 621 OFFCURVE",
"-234 563 CURVE SMOOTH",
"-234 553 OFFCURVE",
"-215 548 OFFCURVE",
"-188 543 CURVE SMOOTH",
"-160 537 OFFCURVE",
"-131 535 OFFCURVE",
"-103 535 CURVE SMOOTH"
);
},
{
closed = 1;
nodes = (
"129 651 OFFCURVE",
"114 652 OFFCURVE",
"100 655 CURVE",
"133 693 OFFCURVE",
"165 715 OFFCURVE",
"187 715 CURVE SMOOTH",
"204 715 OFFCURVE",
"225 701 OFFCURVE",
"238 680 CURVE",
"208 661 OFFCURVE",
"177 651 OFFCURVE",
"145 651 CURVE SMOOTH"
);
}
);
width = 0;
}
);
unicode = 06D6;
}
{
glyphname = uni06D7;
layers = (
{
anchors = (
{
name = bottom;
position = "{25, -130}";
},
{
name = top;
position = "{9, 930}";
}
);
layerId = master01;
paths = (
{
closed = 1;
nodes = (
"-11 549 OFFCURVE",
"20 550 OFFCURVE",
"42 553 CURVE SMOOTH",
"65 555 OFFCURVE",
"77 562 OFFCURVE",
"77 574 CURVE SMOOTH",
"77 578 OFFCURVE",
"75 582 OFFCURVE",
"71 587 CURVE",
"42 581 OFFCURVE",
"3 578 OFFCURVE",
"-47 578 CURVE SMOOTH",
"-90 578 OFFCURVE",
"-137 583 OFFCURVE",
"-158 589 CURVE",
"-142 599 OFFCURVE",
"-115 610 OFFCURVE",
"-77 621 CURVE SMOOTH",
"-65 625 OFFCURVE",
"-39 631 OFFCURVE",
"0 640 CURVE",
"11 630 OFFCURVE",
"25 626 OFFCURVE",
"44 626 CURVE SMOOTH",
"95 626 OFFCURVE",
"133 630 OFFCURVE",
"168 653 CURVE",
"178 671 OFFCURVE",
"182 684 OFFCURVE",
"182 691 CURVE SMOOTH",
"182 749 OFFCURVE",
"156 800 OFFCURVE",
"115 800 CURVE SMOOTH",
"90 800 OFFCURVE",
"68 767 OFFCURVE",
"68 727 CURVE SMOOTH",
"68 703 OFFCURVE",
"83 684 OFFCURVE",
"105 684 CURVE SMOOTH",
"124 684 OFFCURVE",
"146 692 OFFCURVE",
"159 704 CURVE",
"164 675 LINE",
"135 661 OFFCURVE",
"95 655 OFFCURVE",
"44 655 CURVE SMOOTH",
"31 655 OFFCURVE",
"17 658 OFFCURVE",
"4 664 CURVE",
"0 879 LINE",
"-10 872 OFFCURVE",
"-18 865 OFFCURVE",
"-26 858 CURVE",
"-23 825 OFFCURVE",
"-21 793 OFFCURVE",
"-19 759 CURVE SMOOTH",
"-17 726 OFFCURVE",
"-14 695 OFFCURVE",
"-11 664 CURVE",
"-98 648 OFFCURVE",
"-134 631 OFFCURVE",
"-166 603 CURVE",
"-169 599 OFFCURVE",
"-175 578 OFFCURVE",
"-175 572 CURVE SMOOTH",
"-175 567 OFFCURVE",
"-162 562 OFFCURVE",
"-134 557 CURVE SMOOTH",
"-107 551 OFFCURVE",
"-78 549 OFFCURVE",
"-50 549 CURVE SMOOTH"
);
},
{
closed = 1;
nodes = (
"93 712 OFFCURVE",
"83 720 OFFCURVE",
"83 734 CURVE SMOOTH",
"83 753 OFFCURVE",
"94 768 OFFCURVE",
"110 768 CURVE SMOOTH",
"129 768 OFFCURVE",
"146 749 OFFCURVE",
"154 722 CURVE",
"139 715 OFFCURVE",
"126 712 OFFCURVE",
"114 712 CURVE SMOOTH"
);
},
{
closed = 1;
nodes = (
"89 830 OFFCURVE",
"96 839 OFFCURVE",
"99 844 CURVE",
"76 867 LINE",
"52 842 LINE",
"57 835 OFFCURVE",
"65 827 OFFCURVE",
"77 818 CURVE"
);
},
{
closed = 1;
nodes = (
"144 834 OFFCURVE",
"151 842 OFFCURVE",
"156 850 CURVE",
"133 872 LINE",
"108 847 LINE",
"117 838 OFFCURVE",
"125 830 OFFCURVE",
"133 824 CURVE"
);
}
);
width = 0;
},
{
anchors = (
{
name = bottom;
position = "{25, -130}";
},
{
name = top;
position = "{9, 930}";
}
);
layerId = "26E2967D-790C-4793-AF2A-2D0AD74EDC69";
paths = (
{
closed = 1;
nodes = (
"-12 534 OFFCURVE",
"19 535 OFFCURVE",
"42 538 CURVE SMOOTH",
"67 540 OFFCURVE",
"81 549 OFFCURVE",
"81 564 CURVE SMOOTH",
"81 569 OFFCURVE",
"79 575 OFFCURVE",
"72 583 CURVE",
"43 576 OFFCURVE",
"4 573 OFFCURVE",
"-48 573 CURVE SMOOTH",
"-83 573 OFFCURVE",
"-121 576 OFFCURVE",
"-145 581 CURVE",
"-129 589 OFFCURVE",
"-106 598 OFFCURVE",
"-77 606 CURVE SMOOTH",
"-65 610 OFFCURVE",
"-40 616 OFFCURVE",
"-2 625 CURVE",
"9 615 OFFCURVE",
"23 611 OFFCURVE",
"43 611 CURVE SMOOTH",
"94 611 OFFCURVE",
"134 615 OFFCURVE",
"170 639 CURVE",
"181 662 OFFCURVE",
"186 673 OFFCURVE",
"186 681 CURVE SMOOTH",
"186 746 OFFCURVE",
"156 795 OFFCURVE",
"114 795 CURVE SMOOTH",
"86 795 OFFCURVE",
"62 759 OFFCURVE",
"62 717 CURVE SMOOTH",
"62 690 OFFCURVE",
"80 669 OFFCURVE",
"104 669 CURVE SMOOTH",
"122 669 OFFCURVE",
"141 675 OFFCURVE",
"155 685 CURVE",
"157 668 LINE",
"131 656 OFFCURVE",
"94 650 OFFCURVE",
"43 650 CURVE SMOOTH",
"31 650 OFFCURVE",
"19 653 OFFCURVE",
"8 657 CURVE",
"4 878 LINE",
"-11 869 OFFCURVE",
"-22 859 OFFCURVE",
"-32 850 CURVE",
"-29 816 OFFCURVE",
"-27 784 OFFCURVE",
"-25 749 CURVE SMOOTH",
"-23 717 OFFCURVE",
"-20 688 OFFCURVE",
"-17 658 CURVE",
"-104 641 OFFCURVE",
"-140 624 OFFCURVE",
"-172 596 CURVE",
"-176 591 OFFCURVE",
"-181 569 OFFCURVE",
"-181 562 CURVE SMOOTH",
"-181 552 OFFCURVE",
"-162 547 OFFCURVE",
"-136 542 CURVE SMOOTH",
"-109 536 OFFCURVE",
"-79 534 OFFCURVE",
"-51 534 CURVE SMOOTH"
);
},
{
closed = 1;
nodes = (
"95 707 OFFCURVE",
"87 713 OFFCURVE",
"87 724 CURVE SMOOTH",
"87 741 OFFCURVE",
"96 753 OFFCURVE",
"109 753 CURVE SMOOTH",
"124 753 OFFCURVE",
"139 738 OFFCURVE",
"147 715 CURVE",
"135 710 OFFCURVE",
"124 707 OFFCURVE",
"113 707 CURVE SMOOTH"
);
},
{
closed = 1;
nodes = (
"87 815 OFFCURVE",
"97 828 OFFCURVE",
"100 835 CURVE",
"71 864 LINE",
"41 833 LINE",
"47 822 OFFCURVE",
"58 812 OFFCURVE",
"72 801 CURVE"
);
},
{
closed = 1;
nodes = (
"150 820 OFFCURVE",
"159 830 OFFCURVE",
"165 841 CURVE",
"136 869 LINE",
"104 837 LINE",
"116 825 OFFCURVE",
"126 815 OFFCURVE",
"136 808 CURVE"
);
}
);
width = 0;
}
);
unicode = 06D7;
}
{
glyphname = uni06D8;
layers = (
{
anchors = (
{
name = bottom;
position = "{25, -130}";
},
{
name = top;
position = "{9, 930}";
}
);
layerId = master01;
paths = (
{
closed = 1;
nodes = (
"-42 661 OFFCURVE",
"1 693 OFFCURVE",
"29 735 CURVE",
"52 722 OFFCURVE",
"85 713 OFFCURVE",
"113 713 CURVE",
"124 721 OFFCURVE",
"132 732 OFFCURVE",
"132 752 CURVE SMOOTH",
"132 790 OFFCURVE",
"111 841 OFFCURVE",
"86 841 CURVE SMOOTH",
"55 841 OFFCURVE",
"44 802 OFFCURVE",
"26 774 CURVE SMOOTH",
"-11 712 OFFCURVE",
"-58 675 OFFCURVE",
"-132 675 CURVE",
"-132 665 LINE",
"-119 663 OFFCURVE",
"-108 661 OFFCURVE",
"-98 661 CURVE SMOOTH"
);
},
{
closed = 1;
nodes = (
"81 743 OFFCURVE",
"64 749 OFFCURVE",
"43 761 CURVE",
"51 776 OFFCURVE",
"57 787 OFFCURVE",
"63 795 CURVE SMOOTH",
"69 803 OFFCURVE",
"74 807 OFFCURVE",
"80 807 CURVE SMOOTH",
"92 807 OFFCURVE",
"104 768 OFFCURVE",
"105 742 CURVE"
);
}
);
width = 0;
},
{
anchors = (
{
name = bottom;
position = "{25, -130}";
},
{
name = top;
position = "{9, 930}";
}
);
layerId = "26E2967D-790C-4793-AF2A-2D0AD74EDC69";
paths = (
{
closed = 1;
nodes = (
"-41 659 OFFCURVE",
"3 691 OFFCURVE",
"31 731 CURVE",
"55 718 OFFCURVE",
"86 711 OFFCURVE",
"116 711 CURVE",
"131 722 OFFCURVE",
"137 734 OFFCURVE",
"137 752 CURVE SMOOTH",
"137 797 OFFCURVE",
"113 843 OFFCURVE",
"86 843 CURVE SMOOTH",
"50 843 OFFCURVE",
"39 801 OFFCURVE",
"22 775 CURVE SMOOTH",
"-17 711 OFFCURVE",
"-63 675 OFFCURVE",
"-137 677 CURVE",
"-137 664 LINE",
"-123 662 OFFCURVE",
"-110 659 OFFCURVE",
"-98 659 CURVE SMOOTH"
);
},
{
closed = 1;
nodes = (
"81 746 OFFCURVE",
"67 751 OFFCURVE",
"48 761 CURVE",
"58 781 OFFCURVE",
"63 789 OFFCURVE",
"67 794 CURVE SMOOTH",
"73 802 OFFCURVE",
"76 805 OFFCURVE",
"80 805 CURVE SMOOTH",
"86 805 OFFCURVE",
"98 770 OFFCURVE",
"100 744 CURVE"
);
}
);
width = 0;
}
);
unicode = 06D8;
}
{
glyphname = uni06D9;
layers = (
{
anchors = (
{
name = bottom;
position = "{25, -130}";
},
{
name = top;
position = "{9, 930}";
}
);
layerId = master01;
paths = (
{
closed = 1;
nodes = (
"3 621 OFFCURVE",
"41 623 OFFCURVE",
"65 627 CURVE SMOOTH",
"68 628 OFFCURVE",
"76 645 OFFCURVE",
"76 653 CURVE SMOOTH",
"76 661 OFFCURVE",
"57 693 OFFCURVE",
"48 709 CURVE",
"57 727 OFFCURVE",
"62 746 OFFCURVE",
"62 765 CURVE",
"60 819 LINE",
"59 827 LINE",
"70 836 LINE",
"64 850 OFFCURVE",
"59 866 OFFCURVE",
"56 881 CURVE",
"39 878 OFFCURVE",
"31 870 OFFCURVE",
"31 857 CURVE SMOOTH",
"31 855 OFFCURVE",
"32 845 OFFCURVE",
"35 828 CURVE SMOOTH",
"40 791 OFFCURVE",
"43 768 OFFCURVE",
"43 758 CURVE SMOOTH",
"43 746 OFFCURVE",
"41 737 OFFCURVE",
"36 725 CURVE",
"23 740 OFFCURVE",
"11 753 OFFCURVE",
"0 764 CURVE SMOOTH",
"-23 787 OFFCURVE",
"-53 812 OFFCURVE",
"-74 826 CURVE",
"-85 821 OFFCURVE",
"-87 813 OFFCURVE",
"-87 805 CURVE SMOOTH",
"-87 794 OFFCURVE",
"-82 785 OFFCURVE",
"-69 773 CURVE",
"-55 774 LINE",
"-28 758 OFFCURVE",
"2 733 OFFCURVE",
"25 707 CURVE",
"10 688 OFFCURVE",
"-2 676 OFFCURVE",
"-36 650 CURVE",
"-44 650 LINE",
"-46 650 OFFCURVE",
"-50 632 OFFCURVE",
"-50 625 CURVE SMOOTH",
"-50 623 OFFCURVE",
"-49 621 OFFCURVE",
"-48 621 CURVE SMOOTH"
);
},
{
closed = 1;
nodes = (
"12 664 OFFCURVE",
"26 678 OFFCURVE",
"37 692 CURVE",
"48 679 OFFCURVE",
"56 667 OFFCURVE",
"61 657 CURVE",
"39 653 OFFCURVE",
"16 651 OFFCURVE",
"-6 650 CURVE"
);
}
);
width = 0;
},
{
anchors = (
{
name = bottom;
position = "{25, -130}";
},
{
name = top;
position = "{9, 930}";
}
);
layerId = "26E2967D-790C-4793-AF2A-2D0AD74EDC69";
paths = (
{
closed = 1;
nodes = (
"0 621 OFFCURVE",
"38 622 OFFCURVE",
"61 627 CURVE SMOOTH",
"64 627 OFFCURVE",
"75 657 OFFCURVE",
"75 665 CURVE SMOOTH",
"75 672 OFFCURVE",
"46 713 OFFCURVE",
"43 718 CURVE",
"54 739 OFFCURVE",
"60 761 OFFCURVE",
"60 783 CURVE",
"58 819 LINE",
"58 825 LINE",
"70 835 LINE",
"64 849 OFFCURVE",
"60 865 OFFCURVE",
"56 881 CURVE",
"34 881 OFFCURVE",
"18 868 OFFCURVE",
"18 847 CURVE SMOOTH",
"18 843 OFFCURVE",
"19 835 OFFCURVE",
"22 819 CURVE SMOOTH",
"27 789 OFFCURVE",
"30 771 OFFCURVE",
"30 765 CURVE SMOOTH",
"30 756 OFFCURVE",
"28 747 OFFCURVE",
"26 739 CURVE",
"16 752 OFFCURVE",
"5 764 OFFCURVE",
"-7 777 CURVE SMOOTH",
"-30 800 OFFCURVE",
"-53 821 OFFCURVE",
"-69 832 CURVE",
"-82 825 OFFCURVE",
"-88 814 OFFCURVE",
"-88 801 CURVE SMOOTH",
"-88 786 OFFCURVE",
"-82 775 OFFCURVE",
"-68 768 CURVE",
"-55 769 LINE",
"-27 750 OFFCURVE",
"-4 732 OFFCURVE",
"15 713 CURVE",
"6 697 OFFCURVE",
"-10 681 OFFCURVE",
"-32 662 CURVE",
"-47 662 LINE",
"-49 662 OFFCURVE",
"-52 633 OFFCURVE",
"-52 623 CURVE SMOOTH",
"-52 621 OFFCURVE",
"-51 621 OFFCURVE",
"-51 621 CURVE SMOOTH"
);
},
{
closed = 1;
nodes = (
"9 672 OFFCURVE",
"20 683 OFFCURVE",
"30 696 CURVE",
"37 687 OFFCURVE",
"44 678 OFFCURVE",
"52 670 CURVE",
"34 666 OFFCURVE",
"19 665 OFFCURVE",
"-3 663 CURVE"
);
}
);
width = 0;
}
);
unicode = 06D9;
}
{
glyphname = uni06DA;
layers = (
{
anchors = (
{
name = bottom;
position = "{25, -130}";
},
{
name = top;
position = "{9, 930}";
}
);
layerId = master01;
paths = (
{
closed = 1;
nodes = (
"32 582 OFFCURVE",
"64 591 OFFCURVE",
"101 612 CURVE",
"96 625 LINE",
"66 618 OFFCURVE",
"35 614 OFFCURVE",
"4 614 CURVE SMOOTH",
"-54 614 OFFCURVE",
"-82 636 OFFCURVE",
"-82 677 CURVE SMOOTH",
"-82 703 OFFCURVE",
"-66 728 OFFCURVE",
"-38 747 CURVE SMOOTH",
"-11 767 OFFCURVE",
"29 782 OFFCURVE",
"60 784 CURVE",
"67 784 OFFCURVE",
"74 784 OFFCURVE",
"81 786 CURVE",
"92 816 LINE",
"67 815 LINE SMOOTH",
"44 814 OFFCURVE",
"23 822 OFFCURVE",
"2 828 CURVE SMOOTH",
"-20 835 OFFCURVE",
"-40 842 OFFCURVE",
"-62 842 CURVE SMOOTH",
"-89 842 OFFCURVE",
"-107 829 OFFCURVE",
"-107 809 CURVE SMOOTH",
"-107 803 OFFCURVE",
"-105 797 OFFCURVE",
"-102 795 CURVE",
"-84 806 OFFCURVE",
"-76 809 OFFCURVE",
"-61 809 CURVE SMOOTH",
"-44 809 OFFCURVE",
"-17 799 OFFCURVE",
"-7 795 CURVE",
"-23 789 OFFCURVE",
"-38 780 OFFCURVE",
"-52 768 CURVE SMOOTH",
"-79 743 OFFCURVE",
"-95 710 OFFCURVE",
"-95 677 CURVE SMOOTH",
"-95 615 OFFCURVE",
"-60 582 OFFCURVE",
"3 582 CURVE SMOOTH"
);
},
{
closed = 1;
nodes = (
"24 659 OFFCURVE",
"32 668 OFFCURVE",
"39 678 CURVE",
"32 683 OFFCURVE",
"24 692 OFFCURVE",
"14 703 CURVE",
"-12 674 LINE",
"-6 666 OFFCURVE",
"3 658 OFFCURVE",
"14 648 CURVE"
);
}
);
width = 0;
},
{
anchors = (
{
name = bottom;
position = "{25, -130}";
},
{
name = top;
position = "{9, 930}";
}
);
layerId = "26E2967D-790C-4793-AF2A-2D0AD74EDC69";
paths = (
{
closed = 1;
nodes = (
"21 583 OFFCURVE",
"60 598 OFFCURVE",
"101 622 CURVE",
"96 637 LINE",
"61 630 OFFCURVE",
"32 626 OFFCURVE",
"7 626 CURVE SMOOTH",
"-41 626 OFFCURVE",
"-74 646 OFFCURVE",
"-74 679 CURVE SMOOTH",
"-74 700 OFFCURVE",
"-62 720 OFFCURVE",
"-40 738 CURVE SMOOTH",
"-18 755 OFFCURVE",
"15 770 OFFCURVE",
"40 774 CURVE",
"52 773 OFFCURVE",
"75 773 OFFCURVE",
"84 774 CURVE",
"100 816 LINE",
"66 815 LINE SMOOTH",
"47 814 OFFCURVE",
"28 820 OFFCURVE",
"1 830 CURVE SMOOTH",
"-26 839 OFFCURVE",
"-41 843 OFFCURVE",
"-58 843 CURVE SMOOTH",
"-88 843 OFFCURVE",
"-107 829 OFFCURVE",
"-107 806 CURVE SMOOTH",
"-107 798 OFFCURVE",
"-103 789 OFFCURVE",
"-98 784 CURVE",
"-81 795 OFFCURVE",
"-73 799 OFFCURVE",
"-59 799 CURVE SMOOTH",
"-45 799 OFFCURVE",
"-31 793 OFFCURVE",
"-14 787 CURVE",
"-30 780 OFFCURVE",
"-43 770 OFFCURVE",
"-54 760 CURVE SMOOTH",
"-79 736 OFFCURVE",
"-93 706 OFFCURVE",
"-93 674 CURVE SMOOTH",
"-93 617 OFFCURVE",
"-57 583 OFFCURVE",
"6 583 CURVE SMOOTH"
);
},
{
closed = 1;
nodes = (
"22 667 OFFCURVE",
"30 677 OFFCURVE",
"38 688 CURVE",
"30 694 OFFCURVE",
"22 704 OFFCURVE",
"11 716 CURVE",
"-17 684 LINE",
"-11 675 OFFCURVE",
"-1 666 OFFCURVE",
"11 655 CURVE"
);
}
);
width = 0;
}
);
unicode = 06DA;
}
{
glyphname = uni06DB;
layers = (
{
anchors = (
{
name = bottom;
position = "{25, -130}";
},
{
name = top;
position = "{9, 930}";
}
);
layerId = master01;
paths = (
{
closed = 1;
nodes = (
"68 695 OFFCURVE",
"81 710 OFFCURVE",
"94 728 CURVE",
"54 768 LINE",
"34 747 LINE",
"11 724 LINE",
"20 714 OFFCURVE",
"34 701 OFFCURVE",
"55 683 CURVE"
);
},
{
closed = 1;
nodes = (
"-36 687 OFFCURVE",
"-23 702 OFFCURVE",
"-11 720 CURVE",
"-51 759 LINE",
"-75 734 OFFCURVE",
"-89 719 OFFCURVE",
"-94 715 CURVE",
"-81 701 OFFCURVE",
"-67 687 OFFCURVE",
"-50 675 CURVE"
);
},
{
closed = 1;
nodes = (
"3 759 OFFCURVE",
"18 772 OFFCURVE",
"38 793 CURVE",
"-1 833 LINE",
"-12 820 OFFCURVE",
"-25 807 OFFCURVE",
"-41 793 CURVE",
"-28 777 OFFCURVE",
"-17 764 OFFCURVE",
"-2 756 CURVE"
);
}
);
width = 0;
},
{
anchors = (
{
name = bottom;
position = "{25, -130}";
},
{
name = top;
position = "{9, 930}";
}
);
layerId = "26E2967D-790C-4793-AF2A-2D0AD74EDC69";
paths = (
{
closed = 1;
nodes = (
"72 688 OFFCURVE",
"88 703 OFFCURVE",
"102 723 CURVE",
"55 769 LINE",
"31 744 LINE",
"5 718 LINE",
"14 708 OFFCURVE",
"29 693 OFFCURVE",
"53 673 CURVE"
);
},
{
closed = 1;
nodes = (
"-35 679 OFFCURVE",
"-21 692 OFFCURVE",
"-4 715 CURVE",
"-50 760 LINE",
"-81 728 OFFCURVE",
"-93 716 OFFCURVE",
"-100 710 CURVE",
"-86 694 OFFCURVE",
"-71 678 OFFCURVE",
"-52 665 CURVE"
);
},
{
closed = 1;
nodes = (
"5 748 OFFCURVE",
"20 765 OFFCURVE",
"41 787 CURVE",
"-1 831 LINE",
"-15 814 OFFCURVE",
"-30 801 OFFCURVE",
"-44 784 CURVE",
"-27 768 OFFCURVE",
"-11 750 OFFCURVE",
"1 746 CURVE"
);
}
);
width = 0;
}
);
unicode = 06DB;
}
{
glyphname = uni06DC;
layers = (
{
anchors = (
{
name = bottom;
position = "{25, -130}";
},
{
name = top;
position = "{9, 930}";
}
);
layerId = master01;
paths = (
{
closed = 1;
nodes = (
"-81 638 OFFCURVE",
"-63 643 OFFCURVE",
"-46 652 CURVE SMOOTH",
"-12 670 OFFCURVE",
"9 701 OFFCURVE",
"9 733 CURVE SMOOTH",
"9 741 LINE",
"13 740 OFFCURVE",
"18 740 OFFCURVE",
"22 740 CURVE SMOOTH",
"35 740 OFFCURVE",
"46 741 OFFCURVE",
"55 743 CURVE SMOOTH",
"64 745 OFFCURVE",
"70 747 OFFCURVE",
"72 750 CURVE SMOOTH",
"75 757 LINE",
"102 744 OFFCURVE",
"122 740 OFFCURVE",
"155 740 CURVE",
"162 754 OFFCURVE",
"169 779 OFFCURVE",
"169 788 CURVE SMOOTH",
"169 800 OFFCURVE",
"166 813 OFFCURVE",
"163 827 CURVE SMOOTH",
"161 839 OFFCURVE",
"156 860 OFFCURVE",
"154 872 CURVE",
"139 863 OFFCURVE",
"130 851 OFFCURVE",
"130 839 CURVE SMOOTH",
"130 835 OFFCURVE",
"132 827 OFFCURVE",
"137 813 CURVE SMOOTH",
"144 795 OFFCURVE",
"148 781 OFFCURVE",
"151 771 CURVE",
"128 771 OFFCURVE",
"110 774 OFFCURVE",
"85 786 CURVE",
"92 811 OFFCURVE",
"98 827 OFFCURVE",
"101 835 CURVE",
"99 837 OFFCURVE",
"96 838 OFFCURVE",
"92 838 CURVE SMOOTH",
"84 838 OFFCURVE",
"81 835 OFFCURVE",
"77 825 CURVE SMOOTH",
"75 820 OFFCURVE",
"70 806 OFFCURVE",
"64 785 CURVE SMOOTH",
"63 779 OFFCURVE",
"61 776 OFFCURVE",
"60 773 CURVE",
"51 771 OFFCURVE",
"40 769 OFFCURVE",
"27 769 CURVE SMOOTH",
"19 769 OFFCURVE",
"12 771 OFFCURVE",
"4 773 CURVE",
"-2 806 OFFCURVE",
"-4 817 OFFCURVE",
"-5 828 CURVE",
"-23 816 OFFCURVE",
"-30 806 OFFCURVE",
"-30 793 CURVE SMOOTH",
"-30 781 OFFCURVE",
"-22 756 OFFCURVE",
"-5 719 CURVE",
"-18 691 OFFCURVE",
"-61 670 OFFCURVE",
"-98 670 CURVE SMOOTH",
"-131 670 OFFCURVE",
"-150 692 OFFCURVE",
"-150 731 CURVE SMOOTH",
"-150 738 OFFCURVE",
"-149 747 OFFCURVE",
"-146 758 CURVE",
"-160 762 LINE",
"-166 736 OFFCURVE",
"-167 726 OFFCURVE",
"-167 711 CURVE SMOOTH",
"-167 664 OFFCURVE",
"-142 638 OFFCURVE",
"-99 638 CURVE SMOOTH"
);
}
);
width = 0;
},
{
anchors = (
{
name = bottom;
position = "{25, -130}";
},
{
name = top;
position = "{9, 930}";
}
);
layerId = "26E2967D-790C-4793-AF2A-2D0AD74EDC69";
paths = (
{
closed = 1;
nodes = (
"-81 638 OFFCURVE",
"-63 642 OFFCURVE",
"-47 650 CURVE SMOOTH",
"-14 666 OFFCURVE",
"7 695 OFFCURVE",
"7 728 CURVE SMOOTH",
"7 731 LINE",
"11 731 OFFCURVE",
"14 730 OFFCURVE",
"18 730 CURVE SMOOTH",
"31 730 OFFCURVE",
"41 732 OFFCURVE",
"50 733 CURVE SMOOTH",
"59 735 OFFCURVE",
"64 738 OFFCURVE",
"66 741 CURVE SMOOTH",
"70 749 LINE",
"93 738 OFFCURVE",
"126 730 OFFCURVE",
"155 730 CURVE",
"162 744 OFFCURVE",
"170 771 OFFCURVE",
"170 783 CURVE SMOOTH",
"170 789 OFFCURVE",
"168 802 OFFCURVE",
"165 821 CURVE SMOOTH",
"161 838 OFFCURVE",
"158 854 OFFCURVE",
"155 871 CURVE",
"137 862 OFFCURVE",
"123 845 OFFCURVE",
"123 834 CURVE SMOOTH",
"123 824 OFFCURVE",
"128 814 OFFCURVE",
"134 803 CURVE SMOOTH",
"139 792 OFFCURVE",
"144 781 OFFCURVE",
"149 771 CURVE",
"121 774 OFFCURVE",
"101 778 OFFCURVE",
"83 787 CURVE",
"89 809 OFFCURVE",
"95 827 OFFCURVE",
"98 834 CURVE",
"94 837 OFFCURVE",
"89 838 OFFCURVE",
"84 838 CURVE SMOOTH",
"76 838 OFFCURVE",
"70 835 OFFCURVE",
"68 828 CURVE SMOOTH",
"64 819 OFFCURVE",
"61 810 OFFCURVE",
"58 801 CURVE SMOOTH",
"53 790 OFFCURVE",
"50 782 OFFCURVE",
"48 778 CURVE",
"35 774 OFFCURVE",
"32 774 OFFCURVE",
"23 774 CURVE SMOOTH",
"17 774 OFFCURVE",
"9 775 OFFCURVE",
"1 776 CURVE",
"-3 802 OFFCURVE",
"-6 820 OFFCURVE",
"-7 830 CURVE",
"-32 817 OFFCURVE",
"-43 802 OFFCURVE",
"-43 781 CURVE SMOOTH",
"-43 771 OFFCURVE",
"-29 746 OFFCURVE",
"-13 714 CURVE",
"-38 690 OFFCURVE",
"-62 681 OFFCURVE",
"-100 681 CURVE SMOOTH",
"-131 681 OFFCURVE",
"-146 698 OFFCURVE",
"-146 733 CURVE SMOOTH",
"-146 741 OFFCURVE",
"-145 751 OFFCURVE",
"-141 762 CURVE",
"-157 766 LINE",
"-163 743 OFFCURVE",
"-166 726 OFFCURVE",
"-166 713 CURVE SMOOTH",
"-166 664 OFFCURVE",
"-143 638 OFFCURVE",
"-101 638 CURVE SMOOTH"
);
}
);
width = 0;
}
);
unicode = 06DC;
}
{
glyphname = uni06DD;
layers = (
{
layerId = master01;
paths = (
{
closed = 1;
nodes = (
"652 -105 OFFCURVE",
"692 -69 OFFCURVE",
"738 -59 CURVE SMOOTH",
"932 -14 OFFCURVE",
"1072 89 OFFCURVE",
"1160 244 CURVE",
"1154 248 OFFCURVE",
"1148 252 OFFCURVE",
"1140 252 CURVE SMOOTH",
"1135 252 OFFCURVE",
"1128 250 OFFCURVE",
"1120 244 CURVE",
"1168 333 OFFCURVE",
"1189 423 OFFCURVE",
"1189 527 CURVE SMOOTH",
"1189 628 OFFCURVE",
"1168 718 OFFCURVE",
"1120 806 CURVE",
"1129 803 OFFCURVE",
"1135 802 OFFCURVE",
"1141 802 CURVE SMOOTH",
"1145 802 OFFCURVE",
"1148 802 OFFCURVE",
"1151 803 CURVE SMOOTH",
"1154 804 OFFCURVE",
"1157 805 OFFCURVE",
"1160 806 CURVE",
"1116 883 OFFCURVE",
"1056 950 OFFCURVE",
"984 1001 CURVE SMOOTH",
"912 1052 OFFCURVE",
"828 1089 OFFCURVE",
"738 1108 CURVE SMOOTH",
"688 1119 OFFCURVE",
"652 1158 OFFCURVE",
"630 1191 CURVE",
"604 1157 OFFCURVE",
"570 1113 OFFCURVE",
"529 1108 CURVE SMOOTH",
"441 1096 OFFCURVE",
"358 1059 OFFCURVE",
"286 1006 CURVE SMOOTH",
"214 953 OFFCURVE",
"153 883 OFFCURVE",
"111 806 CURVE",
"113 805 OFFCURVE",
"116 804 OFFCURVE",
"119 803 CURVE SMOOTH",
"122 802 OFFCURVE",
"125 802 OFFCURVE",
"129 802 CURVE SMOOTH",
"134 802 OFFCURVE",
"141 803 OFFCURVE",
"148 806 CURVE",
"103 718 OFFCURVE",
"71 627 OFFCURVE",
"71 527 CURVE SMOOTH",
"71 475 OFFCURVE",
"79 427 OFFCURVE",
"93 380 CURVE SMOOTH",
"106 333 OFFCURVE",
"126 288 OFFCURVE",
"148 244 CURVE",
"141 250 OFFCURVE",
"134 252 OFFCURVE",
"129 252 CURVE SMOOTH",
"122 252 OFFCURVE",
"115 249 OFFCURVE",
"111 244 CURVE",
"154 167 OFFCURVE",
"208 100 OFFCURVE",
"277 49 CURVE SMOOTH",
"345 -3 OFFCURVE",
"428 -40 OFFCURVE",
"529 -59 CURVE SMOOTH",
"572 -65 OFFCURVE",
"607 -105 OFFCURVE",
"630 -136 CURVE"
);
},
{
closed = 1;
nodes = (
"413 13 OFFCURVE",
"351 42 OFFCURVE",
"296 82 CURVE",
"287 87 OFFCURVE",
"282 96 OFFCURVE",
"282 106 CURVE SMOOTH",
"282 123 OFFCURVE",
"296 140 OFFCURVE",
"312 140 CURVE SMOOTH",
"320 140 OFFCURVE",
"328 136 OFFCURVE",
"335 129 CURVE",
"380 100 OFFCURVE",
"447 65 OFFCURVE",
"499 49 CURVE",
"512 44 OFFCURVE",
"523 33 OFFCURVE",
"523 20 CURVE SMOOTH",
"523 18 OFFCURVE",
"523 16 OFFCURVE",
"522 13 CURVE SMOOTH",
"517 -6 OFFCURVE",
"499 -11 OFFCURVE",
"482 -11 CURVE"
);
},
{
closed = 1;
nodes = (
"599 -48 OFFCURVE",
"578 -26 OFFCURVE",
"578 5 CURVE SMOOTH",
"578 37 OFFCURVE",
"599 59 OFFCURVE",
"630 59 CURVE SMOOTH",
"662 59 OFFCURVE",
"686 35 OFFCURVE",
"686 5 CURVE SMOOTH",
"686 -26 OFFCURVE",
"663 -48 OFFCURVE",
"630 -48 CURVE SMOOTH"
);
},
{
closed = 1;
nodes = (
"760 -9 OFFCURVE",
"739 -1 OFFCURVE",
"739 23 CURVE SMOOTH",
"739 38 OFFCURVE",
"751 47 OFFCURVE",
"764 53 CURVE",
"818 68 OFFCURVE",
"881 101 OFFCURVE",
"928 130 CURVE",
"936 138 OFFCURVE",
"944 142 OFFCURVE",
"951 142 CURVE SMOOTH",
"959 142 OFFCURVE",
"966 138 OFFCURVE",
"973 130 CURVE SMOOTH",
"977 125 OFFCURVE",
"980 118 OFFCURVE",
"980 111 CURVE SMOOTH",
"980 100 OFFCURVE",
"975 91 OFFCURVE",
"965 84 CURVE SMOOTH",
"911 47 OFFCURVE",
"850 15 OFFCURVE",
"780 -9 CURVE"
);
},
{
closed = 1;
nodes = (
"684 78 OFFCURVE",
"653 95 OFFCURVE",
"630 114 CURVE",
"608 96 OFFCURVE",
"582 79 OFFCURVE",
"548 79 CURVE SMOOTH",
"542 79 OFFCURVE",
"536 80 OFFCURVE",
"529 82 CURVE SMOOTH",
"433 106 OFFCURVE",
"365 145 OFFCURVE",
"312 207 CURVE",
"305 203 OFFCURVE",
"292 201 OFFCURVE",
"280 201 CURVE",
"186 285 OFFCURVE",
"140 399 OFFCURVE",
"140 527 CURVE SMOOTH",
"140 659 OFFCURVE",
"187 766 OFFCURVE",
"280 859 CURVE",
"292 852 OFFCURVE",
"306 851 OFFCURVE",
"312 851 CURVE",
"366 907 OFFCURVE",
"443 952 OFFCURVE",
"529 969 CURVE SMOOTH",
"540 971 OFFCURVE",
"551 972 OFFCURVE",
"561 972 CURVE SMOOTH",
"596 972 OFFCURVE",
"617 960 OFFCURVE",
"630 945 CURVE",
"647 961 OFFCURVE",
"671 972 OFFCURVE",
"707 972 CURVE SMOOTH",
"717 972 OFFCURVE",
"727 971 OFFCURVE",
"738 969 CURVE SMOOTH",
"815 954 OFFCURVE",
"895 905 OFFCURVE",
"950 851 CURVE",
"956 851 OFFCURVE",
"967 852 OFFCURVE",
"980 859 CURVE",
"1074 766 OFFCURVE",
"1118 659 OFFCURVE",
"1120 527 CURVE SMOOTH",
"1120 466 OFFCURVE",
"1108 405 OFFCURVE",
"1085 350 CURVE SMOOTH",
"1062 294 OFFCURVE",
"1027 243 OFFCURVE",
"980 201 CURVE",
"967 201 OFFCURVE",
"957 203 OFFCURVE",
"950 207 CURVE",
"922 175 OFFCURVE",
"892 152 OFFCURVE",
"858 132 CURVE SMOOTH",
"824 113 OFFCURVE",
"785 97 OFFCURVE",
"738 82 CURVE SMOOTH",
"730 79 OFFCURVE",
"723 78 OFFCURVE",
"716 78 CURVE SMOOTH"
);
},
{
closed = 1;
nodes = (
"299 914 OFFCURVE",
"284 928 OFFCURVE",
"284 944 CURVE SMOOTH",
"284 955 OFFCURVE",
"289 966 OFFCURVE",
"299 971 CURVE",
"352 1010 OFFCURVE",
"414 1041 OFFCURVE",
"483 1065 CURVE",
"500 1065 OFFCURVE",
"518 1061 OFFCURVE",
"522 1042 CURVE SMOOTH",
"523 1039 OFFCURVE",
"523 1037 OFFCURVE",
"523 1035 CURVE SMOOTH",
"523 1021 OFFCURVE",
"514 1009 OFFCURVE",
"500 1003 CURVE",
"446 987 OFFCURVE",
"382 955 OFFCURVE",
"336 925 CURVE",
"329 917 OFFCURVE",
"321 914 OFFCURVE",
"313 914 CURVE SMOOTH"
);
},
{
closed = 1;
nodes = (
"599 991 OFFCURVE",
"578 1013 OFFCURVE",
"578 1046 CURVE SMOOTH",
"578 1077 OFFCURVE",
"599 1098 OFFCURVE",
"630 1098 CURVE SMOOTH",
"663 1098 OFFCURVE",
"686 1077 OFFCURVE",
"686 1046 CURVE SMOOTH",
"686 1013 OFFCURVE",
"663 991 OFFCURVE",
"630 991 CURVE SMOOTH"
);
},
{
closed = 1;
nodes = (
"944 911 OFFCURVE",
"936 915 OFFCURVE",
"929 922 CURVE",
"881 954 OFFCURVE",
"821 985 OFFCURVE",
"765 1001 CURVE SMOOTH",
"752 1005 OFFCURVE",
"741 1021 OFFCURVE",
"741 1036 CURVE SMOOTH",
"741 1059 OFFCURVE",
"762 1062 OFFCURVE",
"781 1062 CURVE",
"850 1037 OFFCURVE",
"911 1007 OFFCURVE",
"967 969 CURVE",
"976 964 OFFCURVE",
"981 954 OFFCURVE",
"981 943 CURVE SMOOTH",
"981 935 OFFCURVE",
"978 928 OFFCURVE",
"973 922 CURVE SMOOTH",
"967 915 OFFCURVE",
"959 911 OFFCURVE",
"952 911 CURVE SMOOTH"
);
}
);
width = 189;
},
{
layerId = "26E2967D-790C-4793-AF2A-2D0AD74EDC69";
paths = (
{
closed = 1;
nodes = (
"652 -96 OFFCURVE",
"692 -61 OFFCURVE",
"738 -50 CURVE SMOOTH",
"932 -5 OFFCURVE",
"1072 97 OFFCURVE",
"1160 253 CURVE",
"1154 257 OFFCURVE",
"1148 261 OFFCURVE",
"1140 261 CURVE SMOOTH",
"1135 261 OFFCURVE",
"1128 259 OFFCURVE",
"1120 253 CURVE",
"1168 342 OFFCURVE",
"1189 432 OFFCURVE",
"1189 536 CURVE SMOOTH",
"1189 636 OFFCURVE",
"1168 727 OFFCURVE",
"1120 814 CURVE",
"1129 812 OFFCURVE",
"1135 811 OFFCURVE",
"1141 811 CURVE SMOOTH",
"1145 811 OFFCURVE",
"1148 811 OFFCURVE",
"1151 812 CURVE SMOOTH",
"1154 813 OFFCURVE",
"1157 814 OFFCURVE",
"1160 814 CURVE",
"1116 892 OFFCURVE",
"1056 958 OFFCURVE",
"984 1010 CURVE SMOOTH",
"912 1061 OFFCURVE",
"828 1098 OFFCURVE",
"738 1117 CURVE SMOOTH",
"688 1128 OFFCURVE",
"652 1167 OFFCURVE",
"630 1200 CURVE",
"604 1165 OFFCURVE",
"570 1122 OFFCURVE",
"529 1117 CURVE SMOOTH",
"441 1104 OFFCURVE",
"358 1067 OFFCURVE",
"286 1014 CURVE SMOOTH",
"214 961 OFFCURVE",
"153 892 OFFCURVE",
"111 814 CURVE",
"113 814 OFFCURVE",
"116 813 OFFCURVE",
"119 812 CURVE SMOOTH",
"122 811 OFFCURVE",
"125 811 OFFCURVE",
"129 811 CURVE SMOOTH",
"134 811 OFFCURVE",
"141 812 OFFCURVE",
"148 814 CURVE",
"103 727 OFFCURVE",
"71 636 OFFCURVE",
"71 536 CURVE SMOOTH",
"71 484 OFFCURVE",
"79 436 OFFCURVE",
"93 389 CURVE SMOOTH",
"106 342 OFFCURVE",
"126 297 OFFCURVE",
"148 253 CURVE",
"141 259 OFFCURVE",
"134 261 OFFCURVE",
"129 261 CURVE SMOOTH",
"122 261 OFFCURVE",
"115 257 OFFCURVE",
"111 253 CURVE",
"154 175 OFFCURVE",
"208 109 OFFCURVE",
"277 57 CURVE SMOOTH",
"345 6 OFFCURVE",
"428 -32 OFFCURVE",
"529 -50 CURVE SMOOTH",
"572 -56 OFFCURVE",
"607 -96 OFFCURVE",
"630 -127 CURVE"
);
},
{
closed = 1;
nodes = (
"413 21 OFFCURVE",
"351 51 OFFCURVE",
"296 90 CURVE",
"287 96 OFFCURVE",
"282 105 OFFCURVE",
"282 115 CURVE SMOOTH",
"282 132 OFFCURVE",
"296 148 OFFCURVE",
"312 148 CURVE SMOOTH",
"320 148 OFFCURVE",
"328 145 OFFCURVE",
"335 138 CURVE",
"380 108 OFFCURVE",
"447 74 OFFCURVE",
"499 58 CURVE",
"512 52 OFFCURVE",
"523 42 OFFCURVE",
"523 28 CURVE SMOOTH",
"523 27 OFFCURVE",
"523 25 OFFCURVE",
"522 21 CURVE SMOOTH",
"517 3 OFFCURVE",
"499 -2 OFFCURVE",
"482 -2 CURVE"
);
},
{
closed = 1;
nodes = (
"599 -40 OFFCURVE",
"578 -18 OFFCURVE",
"578 14 CURVE SMOOTH",
"578 46 OFFCURVE",
"599 67 OFFCURVE",
"630 67 CURVE SMOOTH",
"662 67 OFFCURVE",
"686 44 OFFCURVE",
"686 14 CURVE SMOOTH",
"686 -18 OFFCURVE",
"663 -40 OFFCURVE",
"630 -40 CURVE SMOOTH"
);
},
{
closed = 1;
nodes = (
"760 -1 OFFCURVE",
"739 8 OFFCURVE",
"739 32 CURVE SMOOTH",
"739 47 OFFCURVE",
"751 56 OFFCURVE",
"764 62 CURVE",
"818 77 OFFCURVE",
"881 109 OFFCURVE",
"928 139 CURVE",
"936 147 OFFCURVE",
"944 151 OFFCURVE",
"951 151 CURVE SMOOTH",
"959 151 OFFCURVE",
"966 147 OFFCURVE",
"973 139 CURVE SMOOTH",
"977 134 OFFCURVE",
"980 127 OFFCURVE",
"980 120 CURVE SMOOTH",
"980 109 OFFCURVE",
"975 100 OFFCURVE",
"965 93 CURVE SMOOTH",
"911 56 OFFCURVE",
"850 24 OFFCURVE",
"780 -1 CURVE"
);
},
{
closed = 1;
nodes = (
"684 86 OFFCURVE",
"653 104 OFFCURVE",
"630 123 CURVE",
"608 104 OFFCURVE",
"582 88 OFFCURVE",
"548 88 CURVE SMOOTH",
"542 88 OFFCURVE",
"536 89 OFFCURVE",
"529 90 CURVE SMOOTH",
"433 114 OFFCURVE",
"365 153 OFFCURVE",
"312 215 CURVE",
"305 212 OFFCURVE",
"292 209 OFFCURVE",
"280 209 CURVE",
"186 294 OFFCURVE",
"140 408 OFFCURVE",
"140 536 CURVE SMOOTH",
"140 668 OFFCURVE",
"187 775 OFFCURVE",
"280 868 CURVE",
"292 860 OFFCURVE",
"306 859 OFFCURVE",
"312 859 CURVE",
"366 915 OFFCURVE",
"443 961 OFFCURVE",
"529 978 CURVE SMOOTH",
"540 980 OFFCURVE",
"551 981 OFFCURVE",
"561 981 CURVE SMOOTH",
"596 981 OFFCURVE",
"617 969 OFFCURVE",
"630 954 CURVE",
"647 970 OFFCURVE",
"671 981 OFFCURVE",
"707 981 CURVE SMOOTH",
"717 981 OFFCURVE",
"727 980 OFFCURVE",
"738 978 CURVE SMOOTH",
"815 962 OFFCURVE",
"895 914 OFFCURVE",
"950 859 CURVE",
"956 859 OFFCURVE",
"967 860 OFFCURVE",
"980 868 CURVE",
"1074 775 OFFCURVE",
"1118 668 OFFCURVE",
"1120 536 CURVE SMOOTH",
"1120 475 OFFCURVE",
"1108 414 OFFCURVE",
"1085 359 CURVE SMOOTH",
"1062 303 OFFCURVE",
"1027 252 OFFCURVE",
"980 209 CURVE",
"967 209 OFFCURVE",
"957 212 OFFCURVE",
"950 215 CURVE",
"922 184 OFFCURVE",
"892 161 OFFCURVE",
"858 141 CURVE SMOOTH",
"824 122 OFFCURVE",
"785 106 OFFCURVE",
"738 90 CURVE SMOOTH",
"730 88 OFFCURVE",
"723 86 OFFCURVE",
"716 86 CURVE SMOOTH"
);
},
{
closed = 1;
nodes = (
"299 922 OFFCURVE",
"284 937 OFFCURVE",
"284 953 CURVE SMOOTH",
"284 964 OFFCURVE",
"289 975 OFFCURVE",
"299 980 CURVE",
"352 1019 OFFCURVE",
"414 1050 OFFCURVE",
"483 1074 CURVE",
"500 1074 OFFCURVE",
"518 1069 OFFCURVE",
"522 1051 CURVE SMOOTH",
"523 1048 OFFCURVE",
"523 1046 OFFCURVE",
"523 1044 CURVE SMOOTH",
"523 1030 OFFCURVE",
"514 1018 OFFCURVE",
"500 1012 CURVE",
"446 996 OFFCURVE",
"382 964 OFFCURVE",
"336 934 CURVE",
"329 926 OFFCURVE",
"321 922 OFFCURVE",
"313 922 CURVE SMOOTH"
);
},
{
closed = 1;
nodes = (
"599 1000 OFFCURVE",
"578 1022 OFFCURVE",
"578 1055 CURVE SMOOTH",
"578 1086 OFFCURVE",
"599 1107 OFFCURVE",
"630 1107 CURVE SMOOTH",
"663 1107 OFFCURVE",
"686 1086 OFFCURVE",
"686 1055 CURVE SMOOTH",
"686 1022 OFFCURVE",
"663 1000 OFFCURVE",
"630 1000 CURVE SMOOTH"
);
},
{
closed = 1;
nodes = (
"944 920 OFFCURVE",
"936 924 OFFCURVE",
"929 931 CURVE",
"881 962 OFFCURVE",
"821 993 OFFCURVE",
"765 1010 CURVE SMOOTH",
"752 1014 OFFCURVE",
"741 1030 OFFCURVE",
"741 1045 CURVE SMOOTH",
"741 1068 OFFCURVE",
"762 1071 OFFCURVE",
"781 1071 CURVE",
"850 1046 OFFCURVE",
"911 1016 OFFCURVE",
"967 978 CURVE",
"976 973 OFFCURVE",
"981 963 OFFCURVE",
"981 952 CURVE SMOOTH",
"981 944 OFFCURVE",
"978 937 OFFCURVE",
"973 931 CURVE SMOOTH",
"967 924 OFFCURVE",
"959 920 OFFCURVE",
"952 920 CURVE SMOOTH"
);
}
);
width = 189;
}
);
unicode = 06DD;
}
{
glyphname = uni06DE;
layers = (
{
layerId = master01;
paths = (
{
closed = 1;
nodes = (
"590 75 LINE",
"773 75 LINE",
"773 257 LINE",
"901 386 LINE",
"773 515 LINE",
"773 697 LINE",
"590 697 LINE",
"460 826 LINE",
"333 697 LINE",
"149 697 LINE",
"149 515 LINE",
"21 386 LINE",
"149 257 LINE",
"149 75 LINE",
"333 75 LINE",
"460 -54 LINE"
);
},
{
closed = 1;
nodes = (
"181 226 LINE",
"301 107 LINE",
"181 107 LINE"
);
},
{
closed = 1;
nodes = (
"375 75 LINE",
"546 75 LINE",
"460 -10 LINE"
);
},
{
closed = 1;
nodes = (
"65 386 LINE",
"149 471 LINE",
"149 301 LINE"
);
},
{
closed = 1;
nodes = (
"181 666 LINE",
"301 666 LINE",
"181 547 LINE"
);
},
{
closed = 1;
nodes = (
"741 226 LINE",
"741 107 LINE",
"621 107 LINE"
);
},
{
closed = 1;
nodes = (
"181 270 LINE",
"181 502 LINE",
"345 666 LINE",
"577 666 LINE",
"741 502 LINE",
"741 270 LINE",
"577 107 LINE",
"345 107 LINE"
);
},
{
closed = 1;
nodes = (
"511 296 OFFCURVE",
"551 336 OFFCURVE",
"551 386 CURVE SMOOTH",
"551 436 OFFCURVE",
"511 476 OFFCURVE",
"460 476 CURVE SMOOTH",
"412 476 OFFCURVE",
"371 436 OFFCURVE",
"371 386 CURVE SMOOTH",
"371 336 OFFCURVE",
"412 296 OFFCURVE",
"460 296 CURVE SMOOTH"
);
},
{
closed = 1;
nodes = (
"428 326 OFFCURVE",
"402 353 OFFCURVE",
"402 386 CURVE SMOOTH",
"402 419 OFFCURVE",
"428 446 OFFCURVE",
"460 446 CURVE SMOOTH",
"494 446 OFFCURVE",
"520 419 OFFCURVE",
"520 386 CURVE SMOOTH",
"520 353 OFFCURVE",
"494 326 OFFCURVE",
"460 326 CURVE SMOOTH"
);
},
{
closed = 1;
nodes = (
"460 783 LINE",
"546 697 LINE",
"375 697 LINE"
);
},
{
closed = 1;
nodes = (
"773 471 LINE",
"856 386 LINE",
"773 301 LINE"
);
},
{
closed = 1;
nodes = (
"621 666 LINE",
"741 666 LINE",
"741 547 LINE"
);
}
);
width = 921;
},
{
layerId = "26E2967D-790C-4793-AF2A-2D0AD74EDC69";
paths = (
{
closed = 1;
nodes = (
"590 84 LINE",
"773 84 LINE",
"773 265 LINE",
"901 395 LINE",
"773 524 LINE",
"773 706 LINE",
"590 706 LINE",
"460 835 LINE",
"333 706 LINE",
"149 706 LINE",
"149 524 LINE",
"21 395 LINE",
"149 265 LINE",
"149 84 LINE",
"333 84 LINE",
"460 -45 LINE"
);
},
{
closed = 1;
nodes = (
"181 235 LINE",
"301 115 LINE",
"181 115 LINE"
);
},
{
closed = 1;
nodes = (
"375 84 LINE",
"546 84 LINE",
"460 -1 LINE"
);
},
{
closed = 1;
nodes = (
"65 395 LINE",
"149 480 LINE",
"149 310 LINE"
);
},
{
closed = 1;
nodes = (
"181 674 LINE",
"301 674 LINE",
"181 555 LINE"
);
},
{
closed = 1;
nodes = (
"741 235 LINE",
"741 115 LINE",
"621 115 LINE"
);
},
{
closed = 1;
nodes = (
"181 279 LINE",
"181 511 LINE",
"345 674 LINE",
"577 674 LINE",
"741 511 LINE",
"741 279 LINE",
"577 115 LINE",
"345 115 LINE"
);
},
{
closed = 1;
nodes = (
"511 304 OFFCURVE",
"551 345 OFFCURVE",
"551 395 CURVE SMOOTH",
"551 445 OFFCURVE",
"511 485 OFFCURVE",
"460 485 CURVE SMOOTH",
"412 485 OFFCURVE",
"371 445 OFFCURVE",
"371 395 CURVE SMOOTH",
"371 345 OFFCURVE",
"412 304 OFFCURVE",
"460 304 CURVE SMOOTH"
);
},
{
closed = 1;
nodes = (
"428 335 OFFCURVE",
"402 362 OFFCURVE",
"402 395 CURVE SMOOTH",
"402 428 OFFCURVE",
"428 454 OFFCURVE",
"460 454 CURVE SMOOTH",
"494 454 OFFCURVE",
"520 428 OFFCURVE",
"520 395 CURVE SMOOTH",
"520 362 OFFCURVE",
"494 335 OFFCURVE",
"460 335 CURVE SMOOTH"
);
},
{
closed = 1;
nodes = (
"460 792 LINE",
"546 706 LINE",
"375 706 LINE"
);
},
{
closed = 1;
nodes = (
"773 480 LINE",
"856 395 LINE",
"773 310 LINE"
);
},
{
closed = 1;
nodes = (
"621 674 LINE",
"741 674 LINE",
"741 555 LINE"
);
}
);
width = 921;
}
);
unicode = 06DE;
}
{
glyphname = uni06DF;
layers = (
{
anchors = (
{
name = _top;
position = "{0, 577}";
},
{
name = top3;
position = "{0, 717}";
}
);
layerId = master01;
paths = (
{
closed = 1;
nodes = (
"32 587 OFFCURVE",
"54 608 OFFCURVE",
"54 645 CURVE SMOOTH",
"54 682 OFFCURVE",
"32 702 OFFCURVE",
"0 702 CURVE SMOOTH",
"-30 702 OFFCURVE",
"-54 685 OFFCURVE",
"-54 645 CURVE SMOOTH",
"-54 604 OFFCURVE",
"-30 587 OFFCURVE",
"0 587 CURVE SMOOTH"
);
},
{
closed = 1;
nodes = (
"-20 613 OFFCURVE",
"-30 624 OFFCURVE",
"-30 645 CURVE SMOOTH",
"-30 666 OFFCURVE",
"-20 677 OFFCURVE",
"0 677 CURVE SMOOTH",
"16 677 OFFCURVE",
"30 668 OFFCURVE",
"30 645 CURVE SMOOTH",
"30 622 OFFCURVE",
"16 613 OFFCURVE",
"0 613 CURVE SMOOTH"
);
}
);
width = 0;
},
{
anchors = (
{
name = _top;
position = "{0, 586}";
},
{
name = top3;
position = "{0, 726}";
}
);
layerId = "26E2967D-790C-4793-AF2A-2D0AD74EDC69";
paths = (
{
closed = 1;
nodes = (
"34 585 OFFCURVE",
"57 605 OFFCURVE",
"57 644 CURVE SMOOTH",
"57 682 OFFCURVE",
"34 703 OFFCURVE",
"0 703 CURVE SMOOTH",
"-31 703 OFFCURVE",
"-56 685 OFFCURVE",
"-56 644 CURVE SMOOTH",
"-56 602 OFFCURVE",
"-31 585 OFFCURVE",
"0 585 CURVE SMOOTH"
);
},
{
closed = 1;
nodes = (
"-18 615 OFFCURVE",
"-27 625 OFFCURVE",
"-27 644 CURVE SMOOTH",
"-27 663 OFFCURVE",
"-18 674 OFFCURVE",
"0 674 CURVE SMOOTH",
"15 674 OFFCURVE",
"28 665 OFFCURVE",
"28 644 CURVE SMOOTH",
"28 623 OFFCURVE",
"15 615 OFFCURVE",
"0 615 CURVE SMOOTH"
);
}
);
width = 0;
}
);
unicode = 06DF;
}
{
glyphname = uni06E0;
layers = (
{
anchors = (
{
name = _top;
position = "{0, 538}";
},
{
name = top3;
position = "{0, 717}";
}
);
layerId = master01;
paths = (
{
closed = 1;
nodes = (
"36 548 OFFCURVE",
"54 574 OFFCURVE",
"54 625 CURVE SMOOTH",
"54 677 OFFCURVE",
"36 702 OFFCURVE",
"0 702 CURVE SMOOTH",
"-36 702 OFFCURVE",
"-54 677 OFFCURVE",
"-54 625 CURVE SMOOTH",
"-54 574 OFFCURVE",
"-36 548 OFFCURVE",
"0 548 CURVE SMOOTH"
);
},
{
closed = 1;
nodes = (
"-21 574 OFFCURVE",
"-30 589 OFFCURVE",
"-30 625 CURVE SMOOTH",
"-30 662 OFFCURVE",
"-21 677 OFFCURVE",
"0 677 CURVE SMOOTH",
"21 677 OFFCURVE",
"30 662 OFFCURVE",
"30 625 CURVE SMOOTH",
"30 589 OFFCURVE",
"21 574 OFFCURVE",
"0 574 CURVE SMOOTH"
);
}
);
width = 0;
},
{
anchors = (
{
name = _top;
position = "{0, 547}";
},
{
name = top3;
position = "{0, 726}";
}
);
layerId = "26E2967D-790C-4793-AF2A-2D0AD74EDC69";
paths = (
{
closed = 1;
nodes = (
"40 554 OFFCURVE",
"60 581 OFFCURVE",
"60 633 CURVE SMOOTH",
"60 684 OFFCURVE",
"40 711 OFFCURVE",
"1 711 CURVE SMOOTH",
"-38 711 OFFCURVE",
"-58 684 OFFCURVE",
"-58 633 CURVE SMOOTH",
"-58 581 OFFCURVE",
"-38 554 OFFCURVE",
"1 554 CURVE SMOOTH"
);
},
{
closed = 1;
nodes = (
"-18 586 OFFCURVE",
"-27 599 OFFCURVE",
"-27 633 CURVE SMOOTH",
"-27 666 OFFCURVE",
"-18 680 OFFCURVE",
"1 680 CURVE SMOOTH",
"20 680 OFFCURVE",
"29 666 OFFCURVE",
"29 633 CURVE SMOOTH",
"29 599 OFFCURVE",
"20 586 OFFCURVE",
"1 586 CURVE SMOOTH"
);
}
);
width = 0;
}
);
unicode = 06E0;
}
{
glyphname = uni06E1;
layers = (
{
anchors = (
{
name = _top;
position = "{0, 577}";
},
{
name = top3;
position = "{0, 739}";
}
);
layerId = master01;
paths = (
{
closed = 1;
nodes = (
"-49 587 LINE SMOOTH",
"25 587 OFFCURVE",
"64 634 OFFCURVE",
"84 699 CURVE",
"53 709 OFFCURVE",
"28 715 OFFCURVE",
"-6 715 CURVE SMOOTH",
"-47 715 OFFCURVE",
"-64 697 OFFCURVE",
"-64 680 CURVE SMOOTH",
"-64 672 OFFCURVE",
"-61 668 OFFCURVE",
"-59 664 CURVE",
"-49 675 OFFCURVE",
"-34 681 OFFCURVE",
"-11 681 CURVE SMOOTH",
"9 681 OFFCURVE",
"29 680 OFFCURVE",
"47 676 CURVE",
"20 625 OFFCURVE",
"-15 610 OFFCURVE",
"-81 605 CURVE",
"-53 587 LINE"
);
}
);
width = 0;
},
{
anchors = (
{
name = _top;
position = "{0, 577}";
},
{
name = top3;
position = "{0, 739}";
}
);
layerId = "26E2967D-790C-4793-AF2A-2D0AD74EDC69";
paths = (
{
closed = 1;
nodes = (
"-49 591 LINE SMOOTH",
"25 591 OFFCURVE",
"64 639 OFFCURVE",
"84 704 CURVE",
"53 714 OFFCURVE",
"28 720 OFFCURVE",
"-6 720 CURVE SMOOTH",
"-47 720 OFFCURVE",
"-64 702 OFFCURVE",
"-64 685 CURVE SMOOTH",
"-64 677 OFFCURVE",
"-61 662 OFFCURVE",
"-59 659 CURVE",
"-49 670 OFFCURVE",
"-34 675 OFFCURVE",
"-11 676 CURVE SMOOTH",
"9 677 OFFCURVE",
"19 677 OFFCURVE",
"37 673 CURVE",
"1 633 OFFCURVE",
"-23 630 OFFCURVE",
"-89 622 CURVE",
"-53 591 LINE"
);
}
);
width = 0;
}
);
unicode = 06E1;
}
{
glyphname = uni06E2;
layers = (
{
anchors = (
{
name = bottom;
position = "{25, -130}";
},
{
name = top;
position = "{9, 930}";
}
);
layerId = master01;
paths = (
{
closed = 1;
nodes = (
"-50 646 OFFCURVE",
"-41 653 OFFCURVE",
"-36 659 CURVE",
"-38 676 OFFCURVE",
"-40 694 OFFCURVE",
"-44 715 CURVE SMOOTH",
"-50 751 LINE",
"-15 763 OFFCURVE",
"10 765 OFFCURVE",
"51 765 CURVE",
"65 804 LINE",
"37 827 OFFCURVE",
"20 872 OFFCURVE",
"-3 872 CURVE SMOOTH",
"-24 872 OFFCURVE",
"-41 855 OFFCURVE",
"-55 820 CURVE",
"-43 815 LINE",
"-31 830 OFFCURVE",
"-21 838 OFFCURVE",
"-12 838 CURVE SMOOTH",
"-8 838 OFFCURVE",
"-4 836 OFFCURVE",
"1 832 CURVE SMOOTH",
"5 827 OFFCURVE",
"12 819 OFFCURVE",
"21 805 CURVE",
"30 797 LINE",
"-11 795 OFFCURVE",
"-12 794 OFFCURVE",
"-54 783 CURVE",
"-62 763 OFFCURVE",
"-66 750 OFFCURVE",
"-66 745 CURVE SMOOTH",
"-66 735 OFFCURVE",
"-66 721 OFFCURVE",
"-64 704 CURVE SMOOTH",
"-62 686 OFFCURVE",
"-61 665 OFFCURVE",
"-61 638 CURVE"
);
}
);
width = 0;
},
{
anchors = (
{
name = bottom;
position = "{25, -130}";
},
{
name = top;
position = "{9, 930}";
}
);
layerId = "26E2967D-790C-4793-AF2A-2D0AD74EDC69";
paths = (
{
closed = 1;
nodes = (
"-50 644 OFFCURVE",
"-42 648 OFFCURVE",
"-32 656 CURVE",
"-34 673 OFFCURVE",
"-36 691 OFFCURVE",
"-40 713 CURVE SMOOTH",
"-46 746 LINE",
"-12 758 OFFCURVE",
"12 759 OFFCURVE",
"54 759 CURVE",
"69 802 LINE",
"41 823 OFFCURVE",
"24 872 OFFCURVE",
"-4 872 CURVE SMOOTH",
"-28 872 OFFCURVE",
"-47 853 OFFCURVE",
"-62 816 CURVE",
"-42 808 LINE",
"-29 825 OFFCURVE",
"-19 832 OFFCURVE",
"-13 832 CURVE SMOOTH",
"-11 832 OFFCURVE",
"-8 830 OFFCURVE",
"-4 827 CURVE SMOOTH",
"0 823 OFFCURVE",
"6 815 OFFCURVE",
"16 801 CURVE",
"20 797 LINE",
"-15 795 OFFCURVE",
"-13 795 OFFCURVE",
"-60 781 CURVE",
"-68 760 OFFCURVE",
"-72 747 OFFCURVE",
"-72 742 CURVE SMOOTH",
"-72 732 OFFCURVE",
"-72 718 OFFCURVE",
"-70 701 CURVE SMOOTH",
"-68 683 OFFCURVE",
"-67 662 OFFCURVE",
"-67 635 CURVE"
);
}
);
width = 0;
}
);
unicode = 06E2;
}
{
glyphname = uni06E3;
layers = (
{
anchors = (
{
name = _bottom;
position = "{0, 92}";
},
{
name = bottom3;
position = "{75, -123}";
}
);
layerId = master01;
paths = (
{
closed = 1;
nodes = (
"-68 -146 OFFCURVE",
"-50 -141 OFFCURVE",
"-33 -132 CURVE SMOOTH",
"1 -114 OFFCURVE",
"22 -83 OFFCURVE",
"22 -51 CURVE SMOOTH",
"22 -43 LINE",
"26 -44 OFFCURVE",
"31 -44 OFFCURVE",
"35 -44 CURVE SMOOTH",
"48 -44 OFFCURVE",
"59 -43 OFFCURVE",
"68 -41 CURVE SMOOTH",
"77 -39 OFFCURVE",
"83 -37 OFFCURVE",
"85 -34 CURVE SMOOTH",
"88 -27 LINE",
"115 -40 OFFCURVE",
"135 -44 OFFCURVE",
"168 -44 CURVE",
"175 -30 OFFCURVE",
"182 -5 OFFCURVE",
"182 4 CURVE SMOOTH",
"182 16 OFFCURVE",
"179 29 OFFCURVE",
"176 43 CURVE SMOOTH",
"174 55 OFFCURVE",
"169 76 OFFCURVE",
"167 88 CURVE",
"152 79 OFFCURVE",
"143 67 OFFCURVE",
"143 55 CURVE SMOOTH",
"143 51 OFFCURVE",
"145 43 OFFCURVE",
"150 29 CURVE SMOOTH",
"157 11 OFFCURVE",
"161 -3 OFFCURVE",
"164 -13 CURVE",
"141 -13 OFFCURVE",
"123 -10 OFFCURVE",
"98 2 CURVE",
"105 27 OFFCURVE",
"111 43 OFFCURVE",
"114 51 CURVE",
"112 53 OFFCURVE",
"109 54 OFFCURVE",
"105 54 CURVE SMOOTH",
"97 54 OFFCURVE",
"94 51 OFFCURVE",
"90 41 CURVE SMOOTH",
"88 36 OFFCURVE",
"83 22 OFFCURVE",
"77 1 CURVE SMOOTH",
"76 -5 OFFCURVE",
"74 -8 OFFCURVE",
"73 -11 CURVE",
"64 -13 OFFCURVE",
"53 -15 OFFCURVE",
"40 -15 CURVE SMOOTH",
"32 -15 OFFCURVE",
"25 -13 OFFCURVE",
"17 -11 CURVE",
"11 22 OFFCURVE",
"9 33 OFFCURVE",
"8 44 CURVE",
"-10 32 OFFCURVE",
"-17 22 OFFCURVE",
"-17 9 CURVE SMOOTH",
"-17 -3 OFFCURVE",
"-9 -28 OFFCURVE",
"8 -65 CURVE",
"-5 -93 OFFCURVE",
"-48 -114 OFFCURVE",
"-85 -114 CURVE SMOOTH",
"-118 -114 OFFCURVE",
"-137 -92 OFFCURVE",
"-137 -53 CURVE SMOOTH",
"-137 -46 OFFCURVE",
"-136 -37 OFFCURVE",
"-133 -26 CURVE",
"-147 -22 LINE",
"-153 -48 OFFCURVE",
"-154 -58 OFFCURVE",
"-154 -73 CURVE SMOOTH",
"-154 -120 OFFCURVE",
"-129 -146 OFFCURVE",
"-86 -146 CURVE SMOOTH"
);
}
);
width = 0;
},
{
anchors = (
{
name = _bottom;
position = "{0, 101}";
},
{
name = bottom3;
position = "{75, -114}";
}
);
layerId = "26E2967D-790C-4793-AF2A-2D0AD74EDC69";
paths = (
{
closed = 1;
nodes = (
"-75 -116 OFFCURVE",
"-57 -112 OFFCURVE",
"-41 -104 CURVE SMOOTH",
"-8 -88 OFFCURVE",
"13 -59 OFFCURVE",
"13 -26 CURVE SMOOTH",
"13 -23 LINE",
"17 -23 OFFCURVE",
"20 -24 OFFCURVE",
"24 -24 CURVE SMOOTH",
"37 -24 OFFCURVE",
"47 -22 OFFCURVE",
"56 -21 CURVE SMOOTH",
"65 -19 OFFCURVE",
"70 -16 OFFCURVE",
"72 -13 CURVE SMOOTH",
"76 -5 LINE",
"99 -16 OFFCURVE",
"132 -24 OFFCURVE",
"161 -24 CURVE",
"168 -10 OFFCURVE",
"176 17 OFFCURVE",
"176 29 CURVE SMOOTH",
"176 35 OFFCURVE",
"174 48 OFFCURVE",
"171 67 CURVE SMOOTH",
"167 84 OFFCURVE",
"164 100 OFFCURVE",
"161 117 CURVE",
"143 108 OFFCURVE",
"129 91 OFFCURVE",
"129 80 CURVE SMOOTH",
"129 70 OFFCURVE",
"134 60 OFFCURVE",
"140 49 CURVE SMOOTH",
"145 38 OFFCURVE",
"150 27 OFFCURVE",
"155 17 CURVE",
"127 20 OFFCURVE",
"107 24 OFFCURVE",
"89 33 CURVE",
"95 55 OFFCURVE",
"101 73 OFFCURVE",
"104 80 CURVE",
"100 83 OFFCURVE",
"95 84 OFFCURVE",
"90 84 CURVE SMOOTH",
"82 84 OFFCURVE",
"76 81 OFFCURVE",
"74 74 CURVE SMOOTH",
"70 65 OFFCURVE",
"67 56 OFFCURVE",
"64 47 CURVE SMOOTH",
"59 36 OFFCURVE",
"56 28 OFFCURVE",
"54 24 CURVE",
"41 20 OFFCURVE",
"38 20 OFFCURVE",
"29 20 CURVE SMOOTH",
"23 20 OFFCURVE",
"15 21 OFFCURVE",
"7 22 CURVE",
"3 48 OFFCURVE",
"0 66 OFFCURVE",
"-1 76 CURVE",
"-26 63 OFFCURVE",
"-37 48 OFFCURVE",
"-37 27 CURVE SMOOTH",
"-37 17 OFFCURVE",
"-23 -8 OFFCURVE",
"-7 -40 CURVE",
"-32 -64 OFFCURVE",
"-56 -73 OFFCURVE",
"-94 -73 CURVE SMOOTH",
"-125 -73 OFFCURVE",
"-140 -56 OFFCURVE",
"-140 -21 CURVE SMOOTH",
"-140 -13 OFFCURVE",
"-139 -3 OFFCURVE",
"-135 8 CURVE",
"-151 12 LINE",
"-157 -11 OFFCURVE",
"-160 -28 OFFCURVE",
"-160 -41 CURVE SMOOTH",
"-160 -90 OFFCURVE",
"-137 -116 OFFCURVE",
"-95 -116 CURVE SMOOTH"
);
}
);
width = 0;
}
);
unicode = 06E3;
}
{
glyphname = uni06E4;
layers = (
{
anchors = (
{
name = _top;
position = "{0, 600}";
},
{
name = top3;
position = "{1, 678}";
}
);
layerId = master01;
paths = (
{
closed = 1;
nodes = (
"-61 626 LINE",
"-30 613 OFFCURVE",
"-2 607 OFFCURVE",
"23 607 CURVE SMOOTH",
"43 607 OFFCURVE",
"77 625 OFFCURVE",
"100 650 CURVE",
"93 670 LINE",
"77 662 OFFCURVE",
"45 653 OFFCURVE",
"27 653 CURVE SMOOTH",
"13 653 OFFCURVE",
"-10 658 OFFCURVE",
"-42 666 CURVE",
"-56 668 LINE",
"-60 668 OFFCURVE",
"-78 653 OFFCURVE",
"-110 625 CURVE",
"-100 605 LINE"
);
}
);
width = 0;
},
{
anchors = (
{
name = _top;
position = "{0, 609}";
},
{
name = top3;
position = "{1, 687}";
}
);
layerId = "26E2967D-790C-4793-AF2A-2D0AD74EDC69";
paths = (
{
closed = 1;
nodes = (
"-61 617 LINE",
"-29 602 OFFCURVE",
"0 595 OFFCURVE",
"27 595 CURVE SMOOTH",
"47 595 OFFCURVE",
"82 615 OFFCURVE",
"105 644 CURVE",
"99 666 LINE",
"82 657 OFFCURVE",
"49 647 OFFCURVE",
"31 647 CURVE SMOOTH",
"17 647 OFFCURVE",
"-8 653 OFFCURVE",
"-41 662 CURVE",
"-56 664 LINE",
"-60 664 OFFCURVE",
"-78 647 OFFCURVE",
"-112 615 CURVE",
"-101 593 LINE"
);
}
);
width = 0;
}
);
unicode = 06E4;
}
{
glyphname = uni06E5;
layers = (
{
anchors = (
{
name = bottom;
position = "{93, 41}";
},
{
name = top;
position = "{101, 575}";
}
);
layerId = master01;
paths = (
{
closed = 1;
nodes = (
"133 104 OFFCURVE",
"176 155 OFFCURVE",
"176 216 CURVE SMOOTH",
"176 273 OFFCURVE",
"144 319 OFFCURVE",
"102 319 CURVE SMOOTH",
"66 319 OFFCURVE",
"37 281 OFFCURVE",
"37 234 CURVE SMOOTH",
"37 201 OFFCURVE",
"59 181 OFFCURVE",
"96 181 CURVE SMOOTH",
"117 181 OFFCURVE",
"140 185 OFFCURVE",
"141 187 CURVE",
"141 204 LINE",
"127 163 OFFCURVE",
"105 143 OFFCURVE",
"72 143 CURVE SMOOTH",
"54 143 OFFCURVE",
"40 147 OFFCURVE",
"21 154 CURVE",
"11 133 LINE",
"22 120 OFFCURVE",
"61 104 OFFCURVE",
"81 104 CURVE SMOOTH"
);
},
{
closed = 1;
nodes = (
"82 221 OFFCURVE",
"72 228 OFFCURVE",
"72 245 CURVE SMOOTH",
"72 258 OFFCURVE",
"86 277 OFFCURVE",
"96 277 CURVE SMOOTH",
"113 277 OFFCURVE",
"127 260 OFFCURVE",
"137 227 CURVE",
"127 223 OFFCURVE",
"118 221 OFFCURVE",
"105 221 CURVE SMOOTH"
);
}
);
width = 205;
},
{
anchors = (
{
name = bottom;
position = "{93, 50}";
},
{
name = top;
position = "{101, 584}";
}
);
layerId = "26E2967D-790C-4793-AF2A-2D0AD74EDC69";
paths = (
{
closed = 1;
nodes = (
"136 112 OFFCURVE",
"181 165 OFFCURVE",
"181 229 CURVE SMOOTH",
"181 288 OFFCURVE",
"147 337 OFFCURVE",
"102 337 CURVE SMOOTH",
"63 337 OFFCURVE",
"32 297 OFFCURVE",
"32 247 CURVE SMOOTH",
"32 211 OFFCURVE",
"57 188 OFFCURVE",
"96 188 CURVE SMOOTH",
"117 188 OFFCURVE",
"133 190 OFFCURVE",
"136 190 CURVE",
"136 218 LINE",
"123 179 OFFCURVE",
"102 161 OFFCURVE",
"72 161 CURVE SMOOTH",
"54 161 OFFCURVE",
"39 165 OFFCURVE",
"18 174 CURVE",
"5 146 LINE",
"12 130 OFFCURVE",
"57 112 OFFCURVE",
"81 112 CURVE SMOOTH"
);
},
{
closed = 1;
nodes = (
"85 239 OFFCURVE",
"77 245 OFFCURVE",
"77 258 CURVE SMOOTH",
"77 269 OFFCURVE",
"89 285 OFFCURVE",
"96 285 CURVE SMOOTH",
"109 285 OFFCURVE",
"122 271 OFFCURVE",
"131 243 CURVE",
"123 240 OFFCURVE",
"115 239 OFFCURVE",
"105 239 CURVE SMOOTH"
);
}
);
width = 205;
}
);
unicode = 06E5;
}
{
glyphname = uni06E6;
layers = (
{
anchors = (
{
name = bottom;
position = "{170, 41}";
},
{
name = top;
position = "{173, 575}";
}
);
layerId = master01;
paths = (
{
closed = 1;
nodes = (
"194 135 OFFCURVE",
"219 137 OFFCURVE",
"244 141 CURVE SMOOTH",
"280 147 OFFCURVE",
"303 154 OFFCURVE",
"303 168 CURVE SMOOTH",
"303 172 OFFCURVE",
"301 177 OFFCURVE",
"297 181 CURVE",
"264 171 OFFCURVE",
"212 164 OFFCURVE",
"175 164 CURVE SMOOTH",
"124 164 OFFCURVE",
"86 169 OFFCURVE",
"61 179 CURVE",
"83 194 OFFCURVE",
"84 196 OFFCURVE",
"127 209 CURVE SMOOTH",
"146 214 OFFCURVE",
"154 228 OFFCURVE",
"161 247 CURVE",
"149 254 LINE",
"144 243 OFFCURVE",
"134 235 OFFCURVE",
"120 230 CURVE SMOOTH",
"86 218 LINE",
"74 213 OFFCURVE",
"64 205 OFFCURVE",
"55 197 CURVE",
"50 194 OFFCURVE",
"43 164 OFFCURVE",
"43 155 CURVE SMOOTH",
"43 150 OFFCURVE",
"57 146 OFFCURVE",
"84 142 CURVE SMOOTH",
"112 137 OFFCURVE",
"140 135 OFFCURVE",
"170 135 CURVE SMOOTH"
);
}
);
width = 344;
},
{
anchors = (
{
name = bottom;
position = "{170, 50}";
},
{
name = top;
position = "{173, 584}";
}
);
layerId = "26E2967D-790C-4793-AF2A-2D0AD74EDC69";
paths = (
{
closed = 1;
nodes = (
"194 144 OFFCURVE",
"219 146 OFFCURVE",
"244 150 CURVE SMOOTH",
"280 155 OFFCURVE",
"303 162 OFFCURVE",
"303 177 CURVE SMOOTH",
"303 181 OFFCURVE",
"301 186 OFFCURVE",
"297 190 CURVE",
"264 180 OFFCURVE",
"212 173 OFFCURVE",
"175 173 CURVE SMOOTH",
"124 173 OFFCURVE",
"86 178 OFFCURVE",
"61 188 CURVE",
"83 203 OFFCURVE",
"84 204 OFFCURVE",
"127 218 CURVE SMOOTH",
"146 223 OFFCURVE",
"154 237 OFFCURVE",
"161 256 CURVE",
"149 262 LINE",
"144 251 OFFCURVE",
"134 244 OFFCURVE",
"120 239 CURVE SMOOTH",
"86 227 LINE",
"74 221 OFFCURVE",
"64 214 OFFCURVE",
"55 206 CURVE",
"50 203 OFFCURVE",
"43 173 OFFCURVE",
"43 164 CURVE SMOOTH",
"43 159 OFFCURVE",
"57 155 OFFCURVE",
"84 150 CURVE SMOOTH",
"112 146 OFFCURVE",
"140 144 OFFCURVE",
"170 144 CURVE SMOOTH"
);
}
);
width = 344;
}
);
unicode = 06E6;
}
{
glyphname = uni06E7;
layers = (
{
anchors = (
{
name = _top;
position = "{-6, 573}";
},
{
name = top3;
position = "{-3, 726}";
}
);
layerId = master01;
paths = (
{
closed = 1;
nodes = (
"46 583 OFFCURVE",
"125 593 OFFCURVE",
"125 616 CURVE SMOOTH",
"125 620 OFFCURVE",
"124 624 OFFCURVE",
"120 629 CURVE",
"86 619 OFFCURVE",
"35 612 OFFCURVE",
"-1 612 CURVE SMOOTH",
"-55 612 OFFCURVE",
"-93 617 OFFCURVE",
"-116 627 CURVE",
"-89 645 OFFCURVE",
"-90 644 OFFCURVE",
"-50 657 CURVE SMOOTH",
"-31 662 OFFCURVE",
"-23 676 OFFCURVE",
"-16 695 CURVE",
"-28 701 LINE",
"-33 692 OFFCURVE",
"-39 686 OFFCURVE",
"-47 682 CURVE",
"-90 666 LINE",
"-104 660 OFFCURVE",
"-114 653 OFFCURVE",
"-122 645 CURVE",
"-127 642 OFFCURVE",
"-134 612 OFFCURVE",
"-134 603 CURVE SMOOTH",
"-134 598 OFFCURVE",
"-120 594 OFFCURVE",
"-93 589 CURVE SMOOTH",
"-65 585 OFFCURVE",
"-36 583 OFFCURVE",
"-6 583 CURVE SMOOTH"
);
}
);
width = 0;
},
{
anchors = (
{
name = _top;
position = "{-6, 582}";
},
{
name = top3;
position = "{-3, 735}";
}
);
layerId = "26E2967D-790C-4793-AF2A-2D0AD74EDC69";
paths = (
{
closed = 1;
nodes = (
"46 586 OFFCURVE",
"125 595 OFFCURVE",
"125 619 CURVE SMOOTH",
"125 623 OFFCURVE",
"124 632 OFFCURVE",
"120 637 CURVE",
"86 627 OFFCURVE",
"35 619 OFFCURVE",
"-1 619 CURVE SMOOTH",
"-55 619 OFFCURVE",
"-85 620 OFFCURVE",
"-108 630 CURVE",
"-81 648 OFFCURVE",
"-85 645 OFFCURVE",
"-45 658 CURVE SMOOTH",
"-26 663 OFFCURVE",
"-18 676 OFFCURVE",
"-11 695 CURVE",
"-28 707 LINE",
"-33 698 OFFCURVE",
"-39 692 OFFCURVE",
"-47 688 CURVE",
"-90 672 LINE",
"-104 666 OFFCURVE",
"-114 658 OFFCURVE",
"-122 651 CURVE",
"-127 647 OFFCURVE",
"-134 615 OFFCURVE",
"-134 606 CURVE SMOOTH",
"-134 601 OFFCURVE",
"-120 597 OFFCURVE",
"-93 592 CURVE SMOOTH",
"-65 588 OFFCURVE",
"-36 586 OFFCURVE",
"-6 586 CURVE SMOOTH"
);
}
);
width = 0;
}
);
unicode = 06E7;
}
{
glyphname = uni06E8;
layers = (
{
anchors = (
{
name = _top;
position = "{-9, 545}";
},
{
name = top3;
position = "{-17, 787}";
}
);
layerId = master01;
paths = (
{
closed = 1;
nodes = (
"-4 543 OFFCURVE",
"14 548 OFFCURVE",
"30 558 CURVE SMOOTH",
"65 577 OFFCURVE",
"86 609 OFFCURVE",
"86 643 CURVE SMOOTH",
"86 654 OFFCURVE",
"84 670 OFFCURVE",
"80 689 CURVE SMOOTH",
"76 715 OFFCURVE",
"73 732 OFFCURVE",
"72 742 CURVE",
"53 730 OFFCURVE",
"47 719 OFFCURVE",
"47 705 CURVE SMOOTH",
"47 692 OFFCURVE",
"55 666 OFFCURVE",
"72 628 CURVE",
"59 599 OFFCURVE",
"16 577 OFFCURVE",
"-22 577 CURVE SMOOTH",
"-54 577 OFFCURVE",
"-74 600 OFFCURVE",
"-74 640 CURVE SMOOTH",
"-74 647 OFFCURVE",
"-72 657 OFFCURVE",
"-69 669 CURVE",
"-83 673 LINE",
"-89 646 OFFCURVE",
"-91 635 OFFCURVE",
"-91 620 CURVE SMOOTH",
"-91 571 OFFCURVE",
"-65 543 OFFCURVE",
"-22 543 CURVE SMOOTH"
);
},
{
closed = 1;
nodes = (
"-7 720 OFFCURVE",
"1 731 OFFCURVE",
"7 740 CURVE",
"-2 748 OFFCURVE",
"-10 757 OFFCURVE",
"-18 766 CURVE",
"-23 760 OFFCURVE",
"-32 750 OFFCURVE",
"-44 736 CURVE",
"-38 728 OFFCURVE",
"-29 719 OFFCURVE",
"-17 710 CURVE"
);
}
);
width = 0;
},
{
anchors = (
{
name = _top;
position = "{-9, 554}";
},
{
name = top3;
position = "{-17, 800}";
}
);
layerId = "26E2967D-790C-4793-AF2A-2D0AD74EDC69";
paths = (
{
closed = 1;
nodes = (
"-4 554 OFFCURVE",
"14 558 OFFCURVE",
"31 567 CURVE SMOOTH",
"64 584 OFFCURVE",
"85 617 OFFCURVE",
"85 653 CURVE SMOOTH",
"85 668 OFFCURVE",
"82 687 OFFCURVE",
"80 707 CURVE SMOOTH",
"77 723 OFFCURVE",
"73 750 OFFCURVE",
"71 767 CURVE",
"46 753 OFFCURVE",
"34 735 OFFCURVE",
"34 713 CURVE SMOOTH",
"34 702 OFFCURVE",
"48 674 OFFCURVE",
"65 638 CURVE",
"39 612 OFFCURVE",
"15 602 OFFCURVE",
"-23 602 CURVE SMOOTH",
"-56 602 OFFCURVE",
"-71 620 OFFCURVE",
"-71 659 CURVE SMOOTH",
"-71 669 OFFCURVE",
"-69 680 OFFCURVE",
"-66 692 CURVE",
"-82 696 LINE",
"-88 671 OFFCURVE",
"-91 651 OFFCURVE",
"-91 637 CURVE SMOOTH",
"-91 583 OFFCURVE",
"-68 554 OFFCURVE",
"-24 554 CURVE SMOOTH"
);
},
{
closed = 1;
nodes = (
"-8 725 OFFCURVE",
"1 736 OFFCURVE",
"7 745 CURVE",
"-6 758 OFFCURVE",
"-14 768 OFFCURVE",
"-20 775 CURVE",
"-27 765 OFFCURVE",
"-36 754 OFFCURVE",
"-47 742 CURVE",
"-40 733 OFFCURVE",
"-31 724 OFFCURVE",
"-19 713 CURVE"
);
}
);
width = 0;
}
);
unicode = 06E8;
}
{
glyphname = uni06E9;
layers = (
{
layerId = master01;
paths = (
{
closed = 1;
nodes = (
"490 74 LINE",
"394 182 LINE",
"394 427 LINE",
"490 534 LINE",
"255 770 LINE",
"21 534 LINE",
"116 427 LINE",
"116 182 LINE",
"21 74 LINE"
);
},
{
closed = 1;
nodes = (
"217 500 LINE",
"187 534 LINE",
"255 605 LINE",
"324 534 LINE",
"292 500 LINE",
"292 203 LINE",
"217 203 LINE"
);
},
{
closed = 1;
nodes = (
"179 477 LINE",
"127 534 LINE",
"255 662 LINE",
"383 534 LINE",
"331 477 LINE",
"331 152 LINE",
"179 152 LINE"
);
},
{
closed = 1;
nodes = (
"309 185 LINE",
"309 494 LINE",
"346 534 LINE",
"255 627 LINE",
"164 534 LINE",
"201 494 LINE",
"201 185 LINE"
);
},
{
closed = 1;
nodes = (
"351 129 LINE",
"351 464 LINE",
"413 534 LINE",
"255 693 LINE",
"97 534 LINE",
"159 464 LINE",
"159 129 LINE"
);
},
{
closed = 1;
nodes = (
"140 174 LINE",
"140 436 LINE",
"53 534 LINE",
"255 738 LINE",
"458 534 LINE",
"370 436 LINE",
"370 174 LINE",
"436 97 LINE",
"74 97 LINE"
);
}
);
width = 510;
},
{
layerId = "26E2967D-790C-4793-AF2A-2D0AD74EDC69";
paths = (
{
closed = 1;
nodes = (
"490 83 LINE",
"394 191 LINE",
"394 436 LINE",
"490 543 LINE",
"255 779 LINE",
"21 543 LINE",
"116 436 LINE",
"116 191 LINE",
"21 83 LINE"
);
},
{
closed = 1;
nodes = (
"217 509 LINE",
"187 543 LINE",
"255 614 LINE",
"324 543 LINE",
"292 509 LINE",
"292 212 LINE",
"217 212 LINE"
);
},
{
closed = 1;
nodes = (
"179 486 LINE",
"127 543 LINE",
"255 671 LINE",
"383 543 LINE",
"331 486 LINE",
"331 160 LINE",
"179 160 LINE"
);
},
{
closed = 1;
nodes = (
"309 194 LINE",
"309 503 LINE",
"346 543 LINE",
"255 635 LINE",
"164 543 LINE",
"201 503 LINE",
"201 194 LINE"
);
},
{
closed = 1;
nodes = (
"351 137 LINE",
"351 472 LINE",
"413 543 LINE",
"255 701 LINE",
"97 543 LINE",
"159 472 LINE",
"159 137 LINE"
);
},
{
closed = 1;
nodes = (
"140 183 LINE",
"140 445 LINE",
"53 543 LINE",
"255 746 LINE",
"458 543 LINE",
"370 445 LINE",
"370 183 LINE",
"436 106 LINE",
"74 106 LINE"
);
}
);
width = 510;
}
);
unicode = 06E9;
}
{
glyphname = uni06EA;
layers = (
{
anchors = (
{
name = _bottom;
position = "{0, -61}";
},
{
name = bottom3;
position = "{-1, -217}";
}
);
layerId = master01;
paths = (
{
closed = 1;
nodes = (
"65 -141 LINE",
"0 -76 LINE",
"-65 -141 LINE",
"0 -207 LINE"
);
},
{
closed = 1;
nodes = (
"-41 -141 LINE",
"0 -100 LINE",
"41 -141 LINE",
"0 -182 LINE"
);
}
);
width = 0;
},
{
anchors = (
{
name = _bottom;
position = "{0, -52}";
},
{
name = bottom3;
position = "{-1, -208}";
}
);
layerId = "26E2967D-790C-4793-AF2A-2D0AD74EDC69";
paths = (
{
closed = 1;
nodes = (
"72 -140 LINE",
"0 -68 LINE",
"-72 -140 LINE",
"0 -213 LINE"
);
},
{
closed = 1;
nodes = (
"-34 -140 LINE",
"0 -107 LINE",
"34 -140 LINE",
"0 -174 LINE"
);
}
);
width = 0;
}
);
unicode = 06EA;
}
{
glyphname = uni06EB;
layers = (
{
anchors = (
{
name = _top;
position = "{0, 588}";
},
{
name = top3;
position = "{0, 753}";
}
);
layerId = master01;
paths = (
{
closed = 1;
nodes = (
"65 663 LINE",
"0 728 LINE",
"-65 663 LINE",
"0 597 LINE"
);
},
{
closed = 1;
nodes = (
"-41 663 LINE",
"0 703 LINE",
"41 663 LINE",
"0 622 LINE"
);
}
);
width = 0;
},
{
anchors = (
{
name = _top;
position = "{0, 596}";
},
{
name = top3;
position = "{0, 761}";
}
);
layerId = "26E2967D-790C-4793-AF2A-2D0AD74EDC69";
paths = (
{
closed = 1;
nodes = (
"72 662 LINE",
"0 734 LINE",
"-72 662 LINE",
"0 589 LINE"
);
},
{
closed = 1;
nodes = (
"-34 662 LINE",
"0 695 LINE",
"34 662 LINE",
"0 628 LINE"
);
}
);
width = 0;
}
);
unicode = 06EB;
}
{
glyphname = uni06EC;
layers = (
{
anchors = (
{
name = _top;
position = "{0, 565}";
},
{
name = top3;
position = "{1, 745}";
}
);
layerId = master01;
paths = (
{
closed = 1;
nodes = (
"40 574 OFFCURVE",
"73 607 OFFCURVE",
"73 648 CURVE SMOOTH",
"73 688 OFFCURVE",
"40 721 OFFCURVE",
"0 721 CURVE SMOOTH",
"-40 721 OFFCURVE",
"-73 688 OFFCURVE",
"-73 648 CURVE SMOOTH",
"-73 607 OFFCURVE",
"-40 574 OFFCURVE",
"0 574 CURVE SMOOTH"
);
}
);
width = 0;
},
{
anchors = (
{
name = _top;
position = "{0, 573}";
},
{
name = top3;
position = "{1, 754}";
}
);
layerId = "26E2967D-790C-4793-AF2A-2D0AD74EDC69";
paths = (
{
closed = 1;
nodes = (
"43 572 OFFCURVE",
"78 607 OFFCURVE",
"78 650 CURVE SMOOTH",
"78 693 OFFCURVE",
"43 728 OFFCURVE",
"1 728 CURVE SMOOTH",
"-42 728 OFFCURVE",
"-77 693 OFFCURVE",
"-77 650 CURVE SMOOTH",
"-77 607 OFFCURVE",
"-42 572 OFFCURVE",
"1 572 CURVE SMOOTH"
);
}
);
width = 0;
}
);
unicode = 06EC;
}
{
glyphname = uni06ED;
layers = (
{
anchors = (
{
name = _bottom;
position = "{0, 35}";
},
{
name = bottom3;
position = "{15, -192}";
}
);
layerId = master01;
paths = (
{
closed = 1;
nodes = (
"-47 -204 OFFCURVE",
"-38 -197 OFFCURVE",
"-33 -191 CURVE",
"-35 -174 OFFCURVE",
"-37 -156 OFFCURVE",
"-41 -135 CURVE SMOOTH",
"-47 -99 LINE",
"-12 -87 OFFCURVE",
"13 -85 OFFCURVE",
"54 -85 CURVE",
"68 -46 LINE",
"40 -23 OFFCURVE",
"23 22 OFFCURVE",
"0 22 CURVE SMOOTH",
"-21 22 OFFCURVE",
"-38 5 OFFCURVE",
"-52 -30 CURVE",
"-40 -35 LINE",
"-28 -20 OFFCURVE",
"-18 -12 OFFCURVE",
"-9 -12 CURVE SMOOTH",
"-5 -12 OFFCURVE",
"-1 -14 OFFCURVE",
"4 -18 CURVE SMOOTH",
"8 -23 OFFCURVE",
"15 -31 OFFCURVE",
"24 -45 CURVE",
"33 -53 LINE",
"-8 -55 OFFCURVE",
"-9 -56 OFFCURVE",
"-51 -67 CURVE",
"-59 -87 OFFCURVE",
"-63 -100 OFFCURVE",
"-63 -105 CURVE SMOOTH",
"-63 -115 OFFCURVE",
"-63 -129 OFFCURVE",
"-61 -146 CURVE SMOOTH",
"-59 -164 OFFCURVE",
"-58 -185 OFFCURVE",
"-58 -212 CURVE"
);
}
);
width = 0;
},
{
anchors = (
{
name = _bottom;
position = "{0, 44}";
},
{
name = bottom3;
position = "{15, -183}";
}
);
layerId = "26E2967D-790C-4793-AF2A-2D0AD74EDC69";
paths = (
{
closed = 1;
nodes = (
"-46 -200 OFFCURVE",
"-38 -196 OFFCURVE",
"-28 -188 CURVE",
"-30 -171 OFFCURVE",
"-32 -153 OFFCURVE",
"-36 -131 CURVE SMOOTH",
"-42 -98 LINE",
"-8 -86 OFFCURVE",
"16 -85 OFFCURVE",
"58 -85 CURVE",
"73 -42 LINE",
"45 -21 OFFCURVE",
"28 28 OFFCURVE",
"0 28 CURVE SMOOTH",
"-24 28 OFFCURVE",
"-43 9 OFFCURVE",
"-58 -28 CURVE",
"-38 -36 LINE",
"-25 -19 OFFCURVE",
"-15 -12 OFFCURVE",
"-9 -12 CURVE SMOOTH",
"-7 -12 OFFCURVE",
"-4 -14 OFFCURVE",
"0 -17 CURVE SMOOTH",
"4 -21 OFFCURVE",
"10 -29 OFFCURVE",
"20 -43 CURVE",
"24 -47 LINE",
"-11 -49 OFFCURVE",
"-9 -49 OFFCURVE",
"-56 -63 CURVE",
"-64 -84 OFFCURVE",
"-68 -97 OFFCURVE",
"-68 -102 CURVE SMOOTH",
"-68 -112 OFFCURVE",
"-68 -126 OFFCURVE",
"-66 -143 CURVE SMOOTH",
"-64 -161 OFFCURVE",
"-63 -182 OFFCURVE",
"-63 -209 CURVE"
);
}
);
width = 0;
}
);
unicode = 06ED;
}
{
glyphname = uni06F4;
layers = (
{
layerId = master01;
paths = (
{
closed = 1;
nodes = (
"235 201 OFFCURVE",
"239 265 OFFCURVE",
"239 327 CURVE SMOOTH",
"239 371 OFFCURVE",
"231 424 OFFCURVE",
"216 485 CURVE",
"241 477 OFFCURVE",
"266 473 OFFCURVE",
"291 473 CURVE SMOOTH",
"371 473 OFFCURVE",
"439 503 OFFCURVE",
"439 554 CURVE SMOOTH",
"439 564 OFFCURVE",
"437 574 OFFCURVE",
"433 586 CURVE",
"407 573 OFFCURVE",
"381 562 OFFCURVE",
"354 554 CURVE",
"300 559 OFFCURVE",
"272 583 OFFCURVE",
"272 626 CURVE",
"297 639 OFFCURVE",
"311 645 OFFCURVE",
"328 645 CURVE SMOOTH",
"347 645 OFFCURVE",
"368 638 OFFCURVE",
"390 623 CURVE",
"413 646 LINE",
"382 690 OFFCURVE",
"353 711 OFFCURVE",
"326 711 CURVE SMOOTH",
"308 711 OFFCURVE",
"292 705 OFFCURVE",
"276 694 CURVE SMOOTH",
"246 671 OFFCURVE",
"226 630 OFFCURVE",
"226 595 CURVE SMOOTH",
"226 575 OFFCURVE",
"234 558 OFFCURVE",
"250 546 CURVE",
"228 549 OFFCURVE",
"209 554 OFFCURVE",
"193 563 CURVE",
"177 611 OFFCURVE",
"156 658 OFFCURVE",
"131 703 CURVE",
"95 683 OFFCURVE",
"77 659 OFFCURVE",
"77 631 CURVE SMOOTH",
"77 622 OFFCURVE",
"79 612 OFFCURVE",
"85 601 CURVE SMOOTH",
"129 512 OFFCURVE",
"147 463 OFFCURVE",
"162 398 CURVE SMOOTH",
"179 333 OFFCURVE",
"187 263 OFFCURVE",
"188 144 CURVE",
"226 135 LINE"
);
}
);
width = 466;
},
{
layerId = "26E2967D-790C-4793-AF2A-2D0AD74EDC69";
paths = (
{
closed = 1;
nodes = (
"261 199 OFFCURVE",
"267 253 OFFCURVE",
"267 330 CURVE SMOOTH",
"267 369 OFFCURVE",
"262 412 OFFCURVE",
"252 461 CURVE",
"272 457 OFFCURVE",
"290 455 OFFCURVE",
"306 455 CURVE SMOOTH",
"386 455 OFFCURVE",
"477 491 OFFCURVE",
"477 561 CURVE SMOOTH",
"477 574 OFFCURVE",
"473 590 OFFCURVE",
"466 606 CURVE",
"439 591 OFFCURVE",
"413 580 OFFCURVE",
"388 572 CURVE",
"341 572 OFFCURVE",
"309 599 OFFCURVE",
"309 640 CURVE",
"325 650 OFFCURVE",
"342 655 OFFCURVE",
"361 655 CURVE SMOOTH",
"379 655 OFFCURVE",
"400 648 OFFCURVE",
"423 635 CURVE",
"452 665 LINE",
"422 721 OFFCURVE",
"390 749 OFFCURVE",
"354 749 CURVE SMOOTH",
"335 749 OFFCURVE",
"317 742 OFFCURVE",
"301 729 CURVE SMOOTH",
"269 704 OFFCURVE",
"250 657 OFFCURVE",
"250 613 CURVE SMOOTH",
"250 591 OFFCURVE",
"258 572 OFFCURVE",
"275 554 CURVE",
"255 556 OFFCURVE",
"239 560 OFFCURVE",
"226 565 CURVE",
"208 625 OFFCURVE",
"185 681 OFFCURVE",
"156 732 CURVE",
"105 711 OFFCURVE",
"77 677 OFFCURVE",
"77 634 CURVE SMOOTH",
"77 617 OFFCURVE",
"81 600 OFFCURVE",
"89 583 CURVE SMOOTH",
"134 489 OFFCURVE",
"148 451 OFFCURVE",
"161 398 CURVE SMOOTH",
"179 318 OFFCURVE",
"188 234 OFFCURVE",
"189 144 CURVE",
"246 134 LINE"
);
}
);
width = 502;
}
);
unicode = 06F4;
}
{
glyphname = uni06F5;
layers = (
{
layerId = master01;
paths = (
{
closed = 1;
nodes = (
"186 142 OFFCURVE",
"208 155 OFFCURVE",
"226 179 CURVE",
"245 155 OFFCURVE",
"270 142 OFFCURVE",
"298 142 CURVE SMOOTH",
"319 142 OFFCURVE",
"338 150 OFFCURVE",
"355 166 CURVE SMOOTH",
"388 199 OFFCURVE",
"407 260 OFFCURVE",
"407 325 CURVE SMOOTH",
"407 371 OFFCURVE",
"400 413 OFFCURVE",
"387 452 CURVE SMOOTH",
"359 529 OFFCURVE",
"308 598 OFFCURVE",
"174 720 CURVE",
"161 698 OFFCURVE",
"154 673 OFFCURVE",
"154 646 CURVE SMOOTH",
"154 631 OFFCURVE",
"156 619 OFFCURVE",
"161 610 CURVE",
"118 540 OFFCURVE",
"112 531 OFFCURVE",
"100 506 CURVE SMOOTH",
"64 436 OFFCURVE",
"47 372 OFFCURVE",
"47 313 CURVE SMOOTH",
"47 205 OFFCURVE",
"88 142 OFFCURVE",
"159 142 CURVE SMOOTH"
);
},
{
closed = 1;
nodes = (
"116 227 OFFCURVE",
"86 269 OFFCURVE",
"86 316 CURVE SMOOTH",
"86 392 OFFCURVE",
"136 494 OFFCURVE",
"203 571 CURVE",
"302 478 OFFCURVE",
"367 369 OFFCURVE",
"367 300 CURVE SMOOTH",
"367 260 OFFCURVE",
"340 227 OFFCURVE",
"305 227 CURVE SMOOTH",
"264 227 OFFCURVE",
"246 262 OFFCURVE",
"246 319 CURVE",
"210 300 LINE",
"206 251 OFFCURVE",
"188 227 OFFCURVE",
"156 227 CURVE SMOOTH"
);
}
);
width = 454;
},
{
layerId = "26E2967D-790C-4793-AF2A-2D0AD74EDC69";
paths = (
{
closed = 1;
nodes = (
"205 134 OFFCURVE",
"232 154 OFFCURVE",
"239 189 CURVE",
"248 154 OFFCURVE",
"278 134 OFFCURVE",
"309 134 CURVE SMOOTH",
"333 134 OFFCURVE",
"355 141 OFFCURVE",
"374 156 CURVE SMOOTH",
"410 186 OFFCURVE",
"433 242 OFFCURVE",
"433 315 CURVE SMOOTH",
"433 366 OFFCURVE",
"424 415 OFFCURVE",
"406 462 CURVE SMOOTH",
"369 558 OFFCURVE",
"308 644 OFFCURVE",
"177 767 CURVE",
"158 737 OFFCURVE",
"141 687 OFFCURVE",
"141 647 CURVE SMOOTH",
"141 628 OFFCURVE",
"145 613 OFFCURVE",
"152 601 CURVE",
"127 564 OFFCURVE",
"107 531 OFFCURVE",
"93 503 CURVE SMOOTH",
"65 446 OFFCURVE",
"47 383 OFFCURVE",
"47 313 CURVE SMOOTH",
"47 203 OFFCURVE",
"93 134 OFFCURVE",
"171 134 CURVE SMOOTH"
);
},
{
closed = 1;
nodes = (
"130 255 OFFCURVE",
"105 287 OFFCURVE",
"105 335 CURVE SMOOTH",
"105 400 OFFCURVE",
"142 480 OFFCURVE",
"205 555 CURVE",
"315 460 OFFCURVE",
"372 378 OFFCURVE",
"372 319 CURVE SMOOTH",
"372 278 OFFCURVE",
"351 255 OFFCURVE",
"317 255 CURVE SMOOTH",
"280 255 OFFCURVE",
"263 283 OFFCURVE",
"263 347 CURVE",
"217 328 LINE",
"212 280 OFFCURVE",
"201 255 OFFCURVE",
"167 255 CURVE SMOOTH"
);
}
);
width = 479;
}
);
unicode = 06F5;
}
{
glyphname = uni06F6;
layers = (
{
layerId = master01;
paths = (
{
closed = 1;
nodes = (
"178 287 OFFCURVE",
"235 344 OFFCURVE",
"356 424 CURVE SMOOTH",
"394 449 OFFCURVE",
"414 472 OFFCURVE",
"414 490 CURVE SMOOTH",
"414 502 OFFCURVE",
"408 527 OFFCURVE",
"403 534 CURVE",
"350 510 OFFCURVE",
"308 488 OFFCURVE",
"273 463 CURVE",
"238 464 OFFCURVE",
"208 470 OFFCURVE",
"185 480 CURVE SMOOTH",
"142 499 OFFCURVE",
"121 532 OFFCURVE",
"121 583 CURVE",
"156 608 OFFCURVE",
"190 618 OFFCURVE",
"236 618 CURVE SMOOTH",
"266 618 OFFCURVE",
"275 617 OFFCURVE",
"336 594 CURVE",
"354 629 LINE",
"290 684 OFFCURVE",
"255 702 OFFCURVE",
"210 702 CURVE SMOOTH",
"183 702 OFFCURVE",
"159 693 OFFCURVE",
"137 675 CURVE SMOOTH",
"94 640 OFFCURVE",
"68 575 OFFCURVE",
"68 513 CURVE SMOOTH",
"68 456 OFFCURVE",
"118 406 OFFCURVE",
"191 387 CURVE",
"131 314 OFFCURVE",
"112 284 OFFCURVE",
"60 183 CURVE",
"89 135 LINE"
);
}
);
width = 444;
},
{
layerId = "26E2967D-790C-4793-AF2A-2D0AD74EDC69";
paths = (
{
closed = 1;
nodes = (
"174 254 OFFCURVE",
"220 307 OFFCURVE",
"367 413 CURVE SMOOTH",
"423 453 OFFCURVE",
"437 464 OFFCURVE",
"437 521 CURVE SMOOTH",
"436 540 OFFCURVE",
"434 559 OFFCURVE",
"429 575 CURVE",
"388 557 OFFCURVE",
"354 538 OFFCURVE",
"277 487 CURVE",
"246 489 OFFCURVE",
"221 493 OFFCURVE",
"203 500 CURVE SMOOTH",
"167 514 OFFCURVE",
"147 539 OFFCURVE",
"136 583 CURVE",
"172 605 OFFCURVE",
"205 616 OFFCURVE",
"234 616 CURVE SMOOTH",
"264 616 OFFCURVE",
"301 608 OFFCURVE",
"344 592 CURVE",
"368 635 LINE",
"316 693 OFFCURVE",
"278 729 OFFCURVE",
"224 729 CURVE SMOOTH",
"198 729 OFFCURVE",
"173 719 OFFCURVE",
"149 700 CURVE SMOOTH",
"102 661 OFFCURVE",
"68 586 OFFCURVE",
"68 523 CURVE SMOOTH",
"68 471 OFFCURVE",
"111 422 OFFCURVE",
"180 396 CURVE",
"137 340 OFFCURVE",
"110 296 OFFCURVE",
"60 208 CURVE",
"99 145 LINE"
);
}
);
width = 466;
}
);
unicode = 06F6;
}
{
glyphname = uni08AA;
layers = (
{
anchors = (
{
name = bottom;
position = "{182, -123}";
},
{
name = top;
position = "{267, 673}";
}
);
layerId = master01;
paths = (
{
closed = 1;
nodes = (
"427 -80 LINE",
"397 -40 OFFCURVE",
"366 4 OFFCURVE",
"330 44 CURVE",
"358 93 OFFCURVE",
"373 152 OFFCURVE",
"373 216 CURVE SMOOTH",
"373 253 OFFCURVE",
"359 300 OFFCURVE",
"342 347 CURVE SMOOTH",
"328 385 OFFCURVE",
"305 444 OFFCURVE",
"296 476 CURVE",
"259 458 OFFCURVE",
"238 440 OFFCURVE",
"238 406 CURVE SMOOTH",
"238 376 OFFCURVE",
"253 345 OFFCURVE",
"266 319 CURVE SMOOTH",
"279 294 OFFCURVE",
"298 260 OFFCURVE",
"305 247 CURVE SMOOTH",
"315 229 OFFCURVE",
"324 213 OFFCURVE",
"335 184 CURVE",
"323 147 OFFCURVE",
"307 114 OFFCURVE",
"286 87 CURVE",
"239 127 OFFCURVE",
"187 155 OFFCURVE",
"127 155 CURVE SMOOTH",
"68 155 OFFCURVE",
"5 115 OFFCURVE",
"5 51 CURVE SMOOTH",
"5 -17 OFFCURVE",
"79 -69 OFFCURVE",
"148 -69 CURVE SMOOTH",
"208 -69 OFFCURVE",
"257 -44 OFFCURVE",
"296 -2 CURVE",
"314 -19 OFFCURVE",
"333 -36 OFFCURVE",
"350 -54 CURVE SMOOTH",
"368 -72 OFFCURVE",
"385 -89 OFFCURVE",
"402 -105 CURVE"
);
},
{
closed = 1;
nodes = (
"98 9 OFFCURVE",
"62 25 OFFCURVE",
"41 48 CURVE",
"67 68 OFFCURVE",
"96 80 OFFCURVE",
"131 80 CURVE SMOOTH",
"168 80 OFFCURVE",
"204 65 OFFCURVE",
"239 42 CURVE",
"208 21 OFFCURVE",
"170 9 OFFCURVE",
"125 9 CURVE SMOOTH"
);
}
);
width = 424;
},
{
anchors = (
{
name = bottom;
position = "{202, -123}";
},
{
name = top;
position = "{299, 727}";
}
);
layerId = "26E2967D-790C-4793-AF2A-2D0AD74EDC69";
paths = (
{
closed = 1;
nodes = (
"468 -65 LINE",
"442 -26 OFFCURVE",
"413 18 OFFCURVE",
"379 59 CURVE",
"403 109 OFFCURVE",
"416 166 OFFCURVE",
"416 224 CURVE SMOOTH",
"416 267 OFFCURVE",
"403 315 OFFCURVE",
"386 365 CURVE SMOOTH",
"372 406 OFFCURVE",
"348 476 OFFCURVE",
"337 518 CURVE",
"299 499 OFFCURVE",
"254 458 OFFCURVE",
"254 413 CURVE SMOOTH",
"254 382 OFFCURVE",
"270 351 OFFCURVE",
"284 325 CURVE SMOOTH",
"314 273 OFFCURVE",
"343 234 OFFCURVE",
"363 193 CURVE",
"354 163 OFFCURVE",
"341 138 OFFCURVE",
"326 115 CURVE",
"279 158 OFFCURVE",
"225 189 OFFCURVE",
"162 189 CURVE SMOOTH",
"85 189 OFFCURVE",
"20 136 OFFCURVE",
"20 64 CURVE SMOOTH",
"20 23 OFFCURVE",
"40 -13 OFFCURVE",
"70 -39 CURVE SMOOTH",
"100 -64 OFFCURVE",
"141 -80 OFFCURVE",
"183 -80 CURVE SMOOTH",
"247 -80 OFFCURVE",
"300 -49 OFFCURVE",
"339 -2 CURVE",
"357 -17 OFFCURVE",
"373 -33 OFFCURVE",
"389 -50 CURVE SMOOTH",
"406 -66 OFFCURVE",
"421 -81 OFFCURVE",
"437 -96 CURVE"
);
},
{
closed = 1;
nodes = (
"137 30 OFFCURVE",
"106 38 OFFCURVE",
"76 57 CURVE",
"102 77 OFFCURVE",
"128 89 OFFCURVE",
"166 89 CURVE SMOOTH",
"199 89 OFFCURVE",
"232 76 OFFCURVE",
"264 57 CURVE",
"234 39 OFFCURVE",
"200 30 OFFCURVE",
"165 30 CURVE SMOOTH"
);
}
);
width = 458;
}
);
unicode = 08AA;
}
{
glyphname = uni08B1;
layers = (
{
anchors = (
{
name = bottom;
position = "{377, -117}";
},
{
name = top;
position = "{256, 672}";
},
{
name = top.dot;
position = "{256, 481}";
}
);
layerId = master01;
paths = (
{
closed = 1;
nodes = (
"417 135 LINE",
"477 135 LINE SMOOTH",
"483 135 OFFCURVE",
"485 138 OFFCURVE",
"485 143 CURVE SMOOTH",
"485 203 LINE SMOOTH",
"485 208 OFFCURVE",
"483 211 OFFCURVE",
"477 211 CURVE SMOOTH",
"417 211 LINE",
"416 258 OFFCURVE",
"411 300 OFFCURVE",
"396 344 CURVE SMOOTH",
"366 430 OFFCURVE",
"316 483 OFFCURVE",
"261 483 CURVE SMOOTH",
"239 483 OFFCURVE",
"216 473 OFFCURVE",
"194 453 CURVE SMOOTH",
"150 413 OFFCURVE",
"120 340 OFFCURVE",
"120 272 CURVE SMOOTH",
"120 203 OFFCURVE",
"144 172 OFFCURVE",
"215 153 CURVE SMOOTH",
"247 144 OFFCURVE",
"309 139 OFFCURVE",
"374 136 CURVE",
"363 -80 LINE",
"430 -91 LINE"
);
},
{
closed = 1;
nodes = (
"324 215 OFFCURVE",
"285 216 OFFCURVE",
"255 221 CURVE SMOOTH",
"195 232 OFFCURVE",
"158 254 OFFCURVE",
"158 301 CURVE SMOOTH",
"158 313 OFFCURVE",
"162 327 OFFCURVE",
"171 343 CURVE SMOOTH",
"188 374 OFFCURVE",
"218 398 OFFCURVE",
"246 398 CURVE SMOOTH",
"303 398 OFFCURVE",
"361 316 OFFCURVE",
"377 212 CURVE"
);
}
);
width = 468;
},
{
anchors = (
{
name = bottom;
position = "{414, -257}";
},
{
name = top;
position = "{269, 580}";
},
{
name = top.dot;
position = "{269, 399}";
}
);
layerId = "26E2967D-790C-4793-AF2A-2D0AD74EDC69";
paths = (
{
closed = 1;
nodes = (
"443 9 LINE",
"497 9 LINE SMOOTH",
"502 9 OFFCURVE",
"505 12 OFFCURVE",
"505 17 CURVE SMOOTH",
"505 119 LINE SMOOTH",
"505 125 OFFCURVE",
"502 127 OFFCURVE",
"497 127 CURVE SMOOTH",
"443 127 LINE",
"437 174 OFFCURVE",
"428 217 OFFCURVE",
"414 254 CURVE SMOOTH",
"382 333 OFFCURVE",
"331 387 OFFCURVE",
"276 387 CURVE SMOOTH",
"253 387 OFFCURVE",
"230 376 OFFCURVE",
"207 354 CURVE SMOOTH",
"161 310 OFFCURVE",
"131 232 OFFCURVE",
"131 159 CURVE SMOOTH",
"131 83 OFFCURVE",
"168 40 OFFCURVE",
"246 23 CURVE SMOOTH",
"271 18 OFFCURVE",
"321 14 OFFCURVE",
"378 10 CURVE",
"373 -215 LINE",
"463 -230 LINE"
);
},
{
closed = 1;
nodes = (
"328 130 OFFCURVE",
"297 132 OFFCURVE",
"282 134 CURVE SMOOTH",
"216 143 OFFCURVE",
"184 165 OFFCURVE",
"184 202 CURVE SMOOTH",
"184 213 OFFCURVE",
"187 224 OFFCURVE",
"193 234 CURVE SMOOTH",
"206 253 OFFCURVE",
"228 268 OFFCURVE",
"254 268 CURVE SMOOTH",
"305 268 OFFCURVE",
"350 218 OFFCURVE",
"378 128 CURVE"
);
}
);
width = 488;
}
);
unicode = 08B1;
}
{
glyphname = uni08E4;
layers = (
{
layerId = master01;
paths = (
{
closed = 1;
nodes = (
"-53 636 LINE",
"-58 646 OFFCURVE",
"-62 659 OFFCURVE",
"-62 671 CURVE SMOOTH",
"-62 689 OFFCURVE",
"-49 702 OFFCURVE",
"-28 704 CURVE SMOOTH",
"-15 705 OFFCURVE",
"0 706 OFFCURVE",
"17 706 CURVE SMOOTH",
"33 707 OFFCURVE",
"51 709 OFFCURVE",
"69 715 CURVE SMOOTH",
"115 727 OFFCURVE",
"140 760 OFFCURVE",
"140 797 CURVE SMOOTH",
"140 815 OFFCURVE",
"131 834 OFFCURVE",
"112 847 CURVE",
"95 833 LINE",
"104 820 OFFCURVE",
"109 810 OFFCURVE",
"109 802 CURVE SMOOTH",
"109 785 OFFCURVE",
"93 775 OFFCURVE",
"60 765 CURVE SMOOTH",
"23 754 OFFCURVE",
"-6 760 OFFCURVE",
"-37 754 CURVE SMOOTH",
"-78 745 OFFCURVE",
"-92 715 OFFCURVE",
"-92 683 CURVE SMOOTH",
"-92 664 OFFCURVE",
"-86 646 OFFCURVE",
"-76 627 CURVE"
);
}
);
width = 0;
},
{
layerId = "26E2967D-790C-4793-AF2A-2D0AD74EDC69";
paths = (
{
closed = 1;
nodes = (
"-45 635 LINE",
"-52 648 OFFCURVE",
"-56 662 OFFCURVE",
"-56 673 CURVE SMOOTH",
"-56 688 OFFCURVE",
"-44 699 OFFCURVE",
"-27 701 CURVE SMOOTH",
"-14 702 OFFCURVE",
"1 703 OFFCURVE",
"18 703 CURVE SMOOTH",
"34 703 OFFCURVE",
"53 706 OFFCURVE",
"71 711 CURVE SMOOTH",
"117 724 OFFCURVE",
"146 758 OFFCURVE",
"146 798 CURVE SMOOTH",
"146 821 OFFCURVE",
"133 842 OFFCURVE",
"113 855 CURVE",
"89 836 LINE",
"100 821 OFFCURVE",
"105 810 OFFCURVE",
"105 803 CURVE SMOOTH",
"105 790 OFFCURVE",
"91 780 OFFCURVE",
"60 772 CURVE SMOOTH",
"23 761 OFFCURVE",
"-5 767 OFFCURVE",
"-37 760 CURVE SMOOTH",
"-74 753 OFFCURVE",
"-96 725 OFFCURVE",
"-96 685 CURVE SMOOTH",
"-96 666 OFFCURVE",
"-90 646 OFFCURVE",
"-77 623 CURVE"
);
}
);
width = 0;
}
);
unicode = 08E4;
}
{
glyphname = uni08E5;
layers = (
{
anchors = (
{
name = _top;
position = "{83, 559}";
},
{
name = top3;
position = "{60, 765}";
}
);
layerId = master01;
paths = (
{
closed = 1;
nodes = (
"33 569 OFFCURVE",
"78 596 OFFCURVE",
"106 623 CURVE",
"112 623 OFFCURVE",
"116 622 OFFCURVE",
"120 622 CURVE SMOOTH",
"147 622 OFFCURVE",
"159 629 OFFCURVE",
"160 650 CURVE",
"150 650 OFFCURVE",
"140 650 OFFCURVE",
"129 652 CURVE",
"133 662 OFFCURVE",
"133 672 OFFCURVE",
"133 677 CURVE SMOOTH",
"133 700 OFFCURVE",
"130 716 OFFCURVE",
"123 726 CURVE SMOOTH",
"115 736 OFFCURVE",
"108 741 OFFCURVE",
"99 741 CURVE SMOOTH",
"73 741 OFFCURVE",
"41 711 OFFCURVE",
"41 680 CURVE SMOOTH",
"41 657 OFFCURVE",
"58 641 OFFCURVE",
"79 632 CURVE",
"63 621 OFFCURVE",
"41 609 OFFCURVE",
"11 602 CURVE",
"7 619 OFFCURVE",
"4 636 OFFCURVE",
"4 653 CURVE SMOOTH",
"4 660 OFFCURVE",
"4 670 OFFCURVE",
"5 682 CURVE",
"-7 686 LINE",
"-14 669 OFFCURVE",
"-21 647 OFFCURVE",
"-21 627 CURVE SMOOTH",
"-21 614 OFFCURVE",
"-19 602 OFFCURVE",
"-17 589 CURVE",
"-17 586 OFFCURVE",
"7 569 OFFCURVE",
"10 569 CURVE SMOOTH"
);
},
{
closed = 1;
nodes = (
"82 665 OFFCURVE",
"65 676 OFFCURVE",
"65 694 CURVE SMOOTH",
"65 700 OFFCURVE",
"75 710 OFFCURVE",
"87 710 CURVE SMOOTH",
"102 710 OFFCURVE",
"108 693 OFFCURVE",
"108 675 CURVE SMOOTH",
"108 670 OFFCURVE",
"108 665 OFFCURVE",
"104 657 CURVE"
);
}
);
width = 0;
},
{
anchors = (
{
name = _top;
position = "{83, 568}";
},
{
name = top3;
position = "{60, 774}";
}
);
layerId = "26E2967D-790C-4793-AF2A-2D0AD74EDC69";
paths = (
{
closed = 1;
nodes = (
"33 566 OFFCURVE",
"77 591 OFFCURVE",
"109 621 CURVE",
"114 620 OFFCURVE",
"118 620 OFFCURVE",
"121 620 CURVE SMOOTH",
"151 620 OFFCURVE",
"165 635 OFFCURVE",
"166 658 CURVE",
"152 658 OFFCURVE",
"159 658 OFFCURVE",
"137 658 CURVE",
"139 668 OFFCURVE",
"139 676 OFFCURVE",
"139 680 CURVE SMOOTH",
"139 705 OFFCURVE",
"135 721 OFFCURVE",
"128 732 CURVE SMOOTH",
"119 744 OFFCURVE",
"110 749 OFFCURVE",
"100 749 CURVE SMOOTH",
"70 749 OFFCURVE",
"37 714 OFFCURVE",
"37 683 CURVE SMOOTH",
"37 663 OFFCURVE",
"49 646 OFFCURVE",
"70 634 CURVE",
"56 626 OFFCURVE",
"38 617 OFFCURVE",
"16 611 CURVE",
"13 625 OFFCURVE",
"11 642 OFFCURVE",
"10 659 CURVE SMOOTH",
"9 669 OFFCURVE",
"10 676 OFFCURVE",
"11 688 CURVE",
"-9 695 LINE",
"-16 677 OFFCURVE",
"-25 659 OFFCURVE",
"-25 630 CURVE SMOOTH",
"-25 616 OFFCURVE",
"-23 602 OFFCURVE",
"-21 591 CURVE",
"-21 584 OFFCURVE",
"5 566 OFFCURVE",
"11 566 CURVE SMOOTH"
);
},
{
closed = 1;
nodes = (
"81 674 OFFCURVE",
"71 684 OFFCURVE",
"71 697 CURVE SMOOTH",
"71 701 OFFCURVE",
"80 707 OFFCURVE",
"88 707 CURVE SMOOTH",
"98 707 OFFCURVE",
"104 696 OFFCURVE",
"104 678 CURVE SMOOTH",
"104 674 OFFCURVE",
"104 670 OFFCURVE",
"102 666 CURVE"
);
}
);
width = 0;
}
);
unicode = 08E5;
}
{
glyphname = uni08EA;
layers = (
{
anchors = (
{
name = _top;
position = "{4, 757}";
},
{
name = top3;
position = "{2, 895}";
}
);
layerId = master01;
paths = (
{
closed = 1;
nodes = (
"24 786 OFFCURVE",
"41 805 OFFCURVE",
"53 822 CURVE",
"35 837 OFFCURVE",
"18 853 OFFCURVE",
"2 871 CURVE",
"-7 859 OFFCURVE",
"-25 841 OFFCURVE",
"-50 815 CURVE",
"-37 800 OFFCURVE",
"-19 784 OFFCURVE",
"4 766 CURVE"
);
}
);
width = 0;
},
{
anchors = (
{
name = _top;
position = "{4, 765}";
},
{
name = top3;
position = "{2, 904}";
}
);
layerId = "26E2967D-790C-4793-AF2A-2D0AD74EDC69";
paths = (
{
closed = 1;
nodes = (
"21 776 OFFCURVE",
"52 807 OFFCURVE",
"61 820 CURVE",
"41 837 OFFCURVE",
"24 852 OFFCURVE",
"3 875 CURVE",
"-12 857 OFFCURVE",
"-37 835 OFFCURVE",
"-59 814 CURVE",
"-41 796 OFFCURVE",
"-19 777 OFFCURVE",
"4 761 CURVE"
);
}
);
width = 0;
}
);
unicode = 08EA;
}
{
glyphname = uni08EC;
layers = (
{
anchors = (
{
name = _top;
position = "{-4, 664}";
},
{
name = top3;
position = "{-1, 810}";
}
);
layerId = master01;
paths = (
{
closed = 1;
nodes = (
"2 674 OFFCURVE",
"30 699 OFFCURVE",
"54 729 CURVE",
"71 721 OFFCURVE",
"89 711 OFFCURVE",
"104 702 CURVE",
"118 713 LINE",
"104 730 OFFCURVE",
"89 745 OFFCURVE",
"74 757 CURVE",
"85 772 OFFCURVE",
"93 786 OFFCURVE",
"101 799 CURVE",
"89 807 LINE",
"84 801 OFFCURVE",
"80 795 OFFCURVE",
"74 788 CURVE SMOOTH",
"69 781 OFFCURVE",
"64 774 OFFCURVE",
"58 767 CURVE",
"39 779 OFFCURVE",
"19 786 OFFCURVE",
"-1 786 CURVE SMOOTH",
"-27 786 OFFCURVE",
"-43 781 OFFCURVE",
"-63 766 CURVE",
"-67 757 OFFCURVE",
"-71 746 OFFCURVE",
"-71 733 CURVE SMOOTH",
"-71 700 OFFCURVE",
"-52 674 OFFCURVE",
"-28 674 CURVE SMOOTH"
);
},
{
closed = 1;
nodes = (
"-36 712 OFFCURVE",
"-48 721 OFFCURVE",
"-55 736 CURVE",
"-33 744 OFFCURVE",
"-26 746 OFFCURVE",
"-1 746 CURVE SMOOTH",
"7 746 OFFCURVE",
"17 743 OFFCURVE",
"31 738 CURVE",
"14 723 OFFCURVE",
"-3 712 OFFCURVE",
"-21 712 CURVE SMOOTH"
);
}
);
width = 0;
},
{
anchors = (
{
name = _top;
position = "{-4, 673}";
},
{
name = top3;
position = "{-1, 819}";
}
);
layerId = "26E2967D-790C-4793-AF2A-2D0AD74EDC69";
paths = (
{
closed = 1;
nodes = (
"-1 670 OFFCURVE",
"26 688 OFFCURVE",
"55 724 CURVE",
"71 716 OFFCURVE",
"88 707 OFFCURVE",
"104 697 CURVE",
"125 712 LINE",
"109 732 OFFCURVE",
"95 747 OFFCURVE",
"81 758 CURVE",
"90 771 OFFCURVE",
"99 786 OFFCURVE",
"108 801 CURVE",
"88 815 LINE",
"81 807 OFFCURVE",
"77 801 OFFCURVE",
"74 797 CURVE SMOOTH",
"67 789 OFFCURVE",
"62 782 OFFCURVE",
"57 775 CURVE",
"37 786 OFFCURVE",
"18 792 OFFCURVE",
"-1 792 CURVE SMOOTH",
"-31 792 OFFCURVE",
"-48 789 OFFCURVE",
"-68 769 CURVE",
"-73 756 OFFCURVE",
"-76 744 OFFCURVE",
"-76 733 CURVE SMOOTH",
"-76 698 OFFCURVE",
"-55 670 OFFCURVE",
"-28 670 CURVE SMOOTH"
);
},
{
closed = 1;
nodes = (
"-32 718 OFFCURVE",
"-41 723 OFFCURVE",
"-48 734 CURVE",
"-30 741 OFFCURVE",
"-23 742 OFFCURVE",
"-1 742 CURVE SMOOTH",
"4 742 OFFCURVE",
"11 741 OFFCURVE",
"21 737 CURVE",
"4 724 OFFCURVE",
"-9 718 OFFCURVE",
"-21 718 CURVE SMOOTH"
);
}
);
width = 0;
}
);
unicode = 08EC;
}
{
glyphname = uni08F4;
layers = (
{
anchors = (
{
name = _top;
position = "{5, 605}";
},
{
name = top3;
position = "{-2, 786}";
}
);
layerId = master01;
paths = (
{
closed = 1;
nodes = (
"40 615 OFFCURVE",
"70 640 OFFCURVE",
"70 680 CURVE SMOOTH",
"70 688 OFFCURVE",
"69 695 OFFCURVE",
"68 701 CURVE",
"94 713 LINE",
"96 743 LINE",
"59 726 LINE",
"46 751 OFFCURVE",
"24 762 OFFCURVE",
"6 762 CURVE SMOOTH",
"-23 762 OFFCURVE",
"-55 730 OFFCURVE",
"-55 681 CURVE SMOOTH",
"-55 676 OFFCURVE",
"-54 672 OFFCURVE",
"-54 669 CURVE",
"-73 657 LINE SMOOTH",
"-85 650 OFFCURVE",
"-87 640 OFFCURVE",
"-87 625 CURVE",
"-74 632 OFFCURVE",
"-53 643 OFFCURVE",
"-46 647 CURVE",
"-36 627 OFFCURVE",
"-17 615 OFFCURVE",
"5 615 CURVE SMOOTH"
);
},
{
closed = 1;
nodes = (
"-5 651 OFFCURVE",
"-15 654 OFFCURVE",
"-21 659 CURVE",
"0 670 OFFCURVE",
"23 681 OFFCURVE",
"46 692 CURVE",
"48 689 OFFCURVE",
"50 685 OFFCURVE",
"50 680 CURVE SMOOTH",
"50 666 OFFCURVE",
"31 651 OFFCURVE",
"7 651 CURVE SMOOTH"
);
},
{
closed = 1;
nodes = (
"-35 684 OFFCURVE",
"-35 687 OFFCURVE",
"-35 689 CURVE SMOOTH",
"-35 709 OFFCURVE",
"-20 727 OFFCURVE",
"-1 727 CURVE SMOOTH",
"13 727 OFFCURVE",
"23 721 OFFCURVE",
"31 714 CURVE",
"9 703 OFFCURVE",
"-13 692 OFFCURVE",
"-34 681 CURVE"
);
}
);
width = 0;
},
{
anchors = (
{
name = _top;
position = "{5, 614}";
},
{
name = top3;
position = "{-2, 795}";
}
);
layerId = "26E2967D-790C-4793-AF2A-2D0AD74EDC69";
paths = (
{
closed = 1;
nodes = (
"50 612 OFFCURVE",
"80 642 OFFCURVE",
"80 682 CURVE SMOOTH",
"80 689 OFFCURVE",
"78 699 OFFCURVE",
"78 704 CURVE",
"103 718 LINE",
"105 755 LINE",
"66 734 LINE",
"53 756 OFFCURVE",
"33 769 OFFCURVE",
"11 769 CURVE SMOOTH",
"-24 769 OFFCURVE",
"-55 730 OFFCURVE",
"-55 683 CURVE SMOOTH",
"-55 680 OFFCURVE",
"-55 674 OFFCURVE",
"-55 671 CURVE",
"-71 663 LINE SMOOTH",
"-90 653 OFFCURVE",
"-99 639 OFFCURVE",
"-92 616 CURVE",
"-88 618 OFFCURVE",
"-55 636 OFFCURVE",
"-43 642 CURVE",
"-32 624 OFFCURVE",
"-12 612 OFFCURVE",
"10 612 CURVE SMOOTH"
);
},
{
closed = 1;
nodes = (
"10 656 OFFCURVE",
"2 659 OFFCURVE",
"-3 663 CURVE",
"14 672 OFFCURVE",
"32 682 OFFCURVE",
"51 691 CURVE",
"52 688 OFFCURVE",
"54 685 OFFCURVE",
"54 681 CURVE SMOOTH",
"54 669 OFFCURVE",
"39 656 OFFCURVE",
"20 656 CURVE SMOOTH"
);
},
{
closed = 1;
nodes = (
"-21 693 OFFCURVE",
"-21 696 OFFCURVE",
"-21 697 CURVE SMOOTH",
"-21 714 OFFCURVE",
"-9 729 OFFCURVE",
"6 729 CURVE SMOOTH",
"17 729 OFFCURVE",
"25 724 OFFCURVE",
"32 718 CURVE",
"14 709 OFFCURVE",
"-3 700 OFFCURVE",
"-20 691 CURVE"
);
}
);
width = 0;
}
);
unicode = 08F4;
}
{
glyphname = uni08F7;
layers = (
{
anchors = (
{
name = _top;
position = "{-24, 549}";
},
{
name = top3;
position = "{-24, 756}";
}
);
layerId = master01;
paths = (
{
closed = 1;
nodes = (
"52 577 OFFCURVE",
"47 603 OFFCURVE",
"28 616 CURVE SMOOTH",
"7 630 OFFCURVE",
"-12 638 OFFCURVE",
"-45 644 CURVE",
"-16 658 OFFCURVE",
"35 700 OFFCURVE",
"50 716 CURVE",
"46 726 OFFCURVE",
"40 732 OFFCURVE",
"33 732 CURVE SMOOTH",
"26 732 OFFCURVE",
"21 731 OFFCURVE",
"16 728 CURVE SMOOTH",
"7 724 OFFCURVE",
"-5 714 OFFCURVE",
"-20 700 CURVE SMOOTH",
"-35 686 OFFCURVE",
"-54 671 OFFCURVE",
"-78 654 CURVE",
"-83 637 OFFCURVE",
"-84 624 OFFCURVE",
"-84 602 CURVE",
"-29 591 OFFCURVE",
"1 578 OFFCURVE",
"52 557 CURVE"
);
}
);
width = 0;
},
{
anchors = (
{
name = _top;
position = "{-24, 557}";
},
{
name = top3;
position = "{-24, 765}";
}
);
layerId = "26E2967D-790C-4793-AF2A-2D0AD74EDC69";
paths = (
{
closed = 1;
nodes = (
"55 575 OFFCURVE",
"45 607 OFFCURVE",
"28 619 CURVE SMOOTH",
"9 631 OFFCURVE",
"-16 641 OFFCURVE",
"-40 647 CURVE",
"-12 659 OFFCURVE",
"40 699 OFFCURVE",
"54 715 CURVE",
"49 727 OFFCURVE",
"41 738 OFFCURVE",
"33 738 CURVE SMOOTH",
"28 738 OFFCURVE",
"21 737 OFFCURVE",
"17 735 CURVE SMOOTH",
"8 731 OFFCURVE",
"-9 718 OFFCURVE",
"-24 703 CURVE SMOOTH",
"-40 686 OFFCURVE",
"-57 671 OFFCURVE",
"-80 653 CURVE",
"-85 637 OFFCURVE",
"-86 627 OFFCURVE",
"-86 604 CURVE",
"-26 589 OFFCURVE",
"5 578 OFFCURVE",
"55 555 CURVE"
);
}
);
width = 0;
}
);
unicode = 08F7;
}
{
glyphname = uni08F8;
layers = (
{
anchors = (
{
name = _top;
position = "{0, 571}";
},
{
name = top3;
position = "{0, 778}";
}
);
layerId = master01;
paths = (
{
closed = 1;
nodes = (
"-37 733 OFFCURVE",
"-41 707 OFFCURVE",
"-27 689 CURVE SMOOTH",
"-12 669 OFFCURVE",
"3 654 OFFCURVE",
"32 638 CURVE",
"0 634 OFFCURVE",
"-63 612 OFFCURVE",
"-82 602 CURVE",
"-82 591 OFFCURVE",
"-78 584 OFFCURVE",
"-71 582 CURVE SMOOTH",
"-65 580 OFFCURVE",
"-60 578 OFFCURVE",
"-54 579 CURVE SMOOTH",
"-44 580 OFFCURVE",
"-30 586 OFFCURVE",
"-11 593 CURVE SMOOTH",
"8 602 OFFCURVE",
"31 609 OFFCURVE",
"59 617 CURVE",
"70 632 OFFCURVE",
"75 642 OFFCURVE",
"82 664 CURVE",
"35 692 OFFCURVE",
"12 716 OFFCURVE",
"-29 753 CURVE"
);
}
);
width = 0;
},
{
anchors = (
{
name = _top;
position = "{0, 579}";
},
{
name = top3;
position = "{0, 787}";
}
);
layerId = "26E2967D-790C-4793-AF2A-2D0AD74EDC69";
paths = (
{
closed = 1;
nodes = (
"-37 743 OFFCURVE",
"-38 710 OFFCURVE",
"-27 693 CURVE SMOOTH",
"-13 675 OFFCURVE",
"7 657 OFFCURVE",
"28 643 CURVE",
"-3 642 OFFCURVE",
"-65 622 OFFCURVE",
"-84 612 CURVE",
"-83 599 OFFCURVE",
"-79 585 OFFCURVE",
"-72 583 CURVE SMOOTH",
"-67 581 OFFCURVE",
"-60 580 OFFCURVE",
"-56 580 CURVE SMOOTH",
"-46 581 OFFCURVE",
"-26 587 OFFCURVE",
"-6 596 CURVE SMOOTH",
"14 607 OFFCURVE",
"36 615 OFFCURVE",
"63 624 CURVE",
"73 637 OFFCURVE",
"78 646 OFFCURVE",
"86 668 CURVE",
"34 703 OFFCURVE",
"9 724 OFFCURVE",
"-30 762 CURVE"
);
}
);
width = 0;
}
);
unicode = 08F8;
}
{
glyphname = uni0021;
layers = (
{
layerId = master01;
paths = (
{
closed = 1;
nodes = (
"130 269 LINE",
"130 511 OFFCURVE",
"128 572 OFFCURVE",
"119 749 CURVE",
"91 729 OFFCURVE",
"69 711 OFFCURVE",
"51 693 CURVE",
"67 562 OFFCURVE",
"76 426 OFFCURVE",
"85 249 CURVE"
);
},
{
closed = 1;
nodes = (
"153 109 OFFCURVE",
"167 133 OFFCURVE",
"167 140 CURVE SMOOTH",
"167 144 OFFCURVE",
"161 151 OFFCURVE",
"149 161 CURVE SMOOTH",
"137 171 OFFCURVE",
"118 183 OFFCURVE",
"90 199 CURVE",
"82 187 OFFCURVE",
"74 174 OFFCURVE",
"68 161 CURVE SMOOTH",
"61 148 OFFCURVE",
"54 135 OFFCURVE",
"46 121 CURVE",
"76 103 OFFCURVE",
"95 91 OFFCURVE",
"125 69 CURVE"
);
}
);
width = 206;
},
{
layerId = "26E2967D-790C-4793-AF2A-2D0AD74EDC69";
paths = (
{
closed = 1;
nodes = (
"179 307 LINE",
"183 430 OFFCURVE",
"185 561 OFFCURVE",
"185 776 CURVE",
"130 756 OFFCURVE",
"89 737 OFFCURVE",
"61 718 CURVE",
"80 594 OFFCURVE",
"96 477 OFFCURVE",
"117 292 CURVE"
);
},
{
closed = 1;
nodes = (
"198 130 OFFCURVE",
"216 161 OFFCURVE",
"216 170 CURVE SMOOTH",
"216 176 OFFCURVE",
"208 185 OFFCURVE",
"193 198 CURVE SMOOTH",
"178 211 OFFCURVE",
"153 228 OFFCURVE",
"118 249 CURVE",
"106 232 OFFCURVE",
"96 215 OFFCURVE",
"87 198 CURVE SMOOTH",
"79 181 OFFCURVE",
"69 164 OFFCURVE",
"59 147 CURVE",
"94 127 OFFCURVE",
"129 104 OFFCURVE",
"162 78 CURVE"
);
}
);
width = 260;
}
);
unicode = 0021;
}
{
glyphname = uni25CC;
layers = (
{
anchors = (
{
name = bottom;
position = "{302, -9}";
},
{
name = bottom.dot;
position = "{316, -26}";
},
{
name = top;
position = "{302, 597}";
}
);
layerId = master01;
paths = (
{
closed = 1;
nodes = (
"158 429 OFFCURVE",
"167 438 OFFCURVE",
"167 455 CURVE SMOOTH",
"167 473 OFFCURVE",
"158 482 OFFCURVE",
"140 482 CURVE SMOOTH",
"123 482 OFFCURVE",
"114 473 OFFCURVE",
"114 454 CURVE SMOOTH",
"114 437 OFFCURVE",
"123 429 OFFCURVE",
"140 429 CURVE SMOOTH"
);
},
{
closed = 1;
nodes = (
"158 114 OFFCURVE",
"167 123 OFFCURVE",
"167 140 CURVE SMOOTH",
"167 158 OFFCURVE",
"158 167 OFFCURVE",
"140 167 CURVE SMOOTH",
"123 167 OFFCURVE",
"114 158 OFFCURVE",
"114 140 CURVE SMOOTH",
"114 123 OFFCURVE",
"123 114 OFFCURVE",
"140 114 CURVE SMOOTH"
);
},
{
closed = 1;
nodes = (
"109 187 OFFCURVE",
"118 196 OFFCURVE",
"118 213 CURVE SMOOTH",
"118 231 OFFCURVE",
"109 240 OFFCURVE",
"92 240 CURVE SMOOTH",
"74 240 OFFCURVE",
"65 231 OFFCURVE",
"65 213 CURVE SMOOTH",
"65 196 OFFCURVE",
"74 187 OFFCURVE",
"92 187 CURVE SMOOTH"
);
},
{
closed = 1;
nodes = (
"230 67 OFFCURVE",
"239 76 OFFCURVE",
"239 94 CURVE SMOOTH",
"239 111 OFFCURVE",
"230 119 OFFCURVE",
"212 119 CURVE SMOOTH",
"195 119 OFFCURVE",
"186 110 OFFCURVE",
"186 92 CURVE SMOOTH",
"186 75 OFFCURVE",
"195 67 OFFCURVE",
"212 67 CURVE SMOOTH"
);
},
{
closed = 1;
nodes = (
"92 272 OFFCURVE",
"101 281 OFFCURVE",
"101 298 CURVE SMOOTH",
"101 315 OFFCURVE",
"92 324 OFFCURVE",
"75 324 CURVE SMOOTH",
"57 324 OFFCURVE",
"48 315 OFFCURVE",
"48 298 CURVE SMOOTH",
"48 281 OFFCURVE",
"57 272 OFFCURVE",
"75 272 CURVE SMOOTH"
);
},
{
closed = 1;
nodes = (
"314 49 OFFCURVE",
"323 58 OFFCURVE",
"323 76 CURVE SMOOTH",
"323 93 OFFCURVE",
"314 102 OFFCURVE",
"297 102 CURVE SMOOTH",
"280 102 OFFCURVE",
"271 93 OFFCURVE",
"271 76 CURVE SMOOTH",
"271 58 OFFCURVE",
"280 49 OFFCURVE",
"297 49 CURVE SMOOTH"
);
},
{
closed = 1;
nodes = (
"110 356 OFFCURVE",
"118 365 OFFCURVE",
"118 383 CURVE SMOOTH",
"118 400 OFFCURVE",
"109 409 OFFCURVE",
"92 409 CURVE SMOOTH",
"74 409 OFFCURVE",
"65 400 OFFCURVE",
"65 383 CURVE SMOOTH",
"65 365 OFFCURVE",
"74 356 OFFCURVE",
"93 356 CURVE SMOOTH"
);
},
{
closed = 1;
nodes = (
"400 67 OFFCURVE",
"408 75 OFFCURVE",
"408 92 CURVE SMOOTH",
"408 110 OFFCURVE",
"400 119 OFFCURVE",
"383 119 CURVE SMOOTH",
"364 119 OFFCURVE",
"355 110 OFFCURVE",
"355 92 CURVE SMOOTH",
"355 75 OFFCURVE",
"364 67 OFFCURVE",
"383 67 CURVE SMOOTH"
);
},
{
closed = 1;
nodes = (
"472 114 OFFCURVE",
"480 123 OFFCURVE",
"480 140 CURVE SMOOTH",
"480 158 OFFCURVE",
"472 167 OFFCURVE",
"455 167 CURVE SMOOTH",
"437 167 OFFCURVE",
"428 158 OFFCURVE",
"428 140 CURVE SMOOTH",
"428 123 OFFCURVE",
"437 114 OFFCURVE",
"455 114 CURVE SMOOTH"
);
},
{
closed = 1;
nodes = (
"520 187 OFFCURVE",
"529 196 OFFCURVE",
"529 213 CURVE SMOOTH",
"529 231 OFFCURVE",
"520 240 OFFCURVE",
"502 240 CURVE SMOOTH",
"485 240 OFFCURVE",
"476 231 OFFCURVE",
"476 213 CURVE SMOOTH",
"476 196 OFFCURVE",
"485 187 OFFCURVE",
"502 187 CURVE SMOOTH"
);
},
{
closed = 1;
nodes = (
"230 477 OFFCURVE",
"239 486 OFFCURVE",
"239 503 CURVE SMOOTH",
"239 521 OFFCURVE",
"230 530 OFFCURVE",
"212 530 CURVE SMOOTH",
"195 530 OFFCURVE",
"186 521 OFFCURVE",
"186 503 CURVE SMOOTH",
"186 486 OFFCURVE",
"195 477 OFFCURVE",
"212 477 CURVE SMOOTH"
);
},
{
closed = 1;
nodes = (
"314 494 OFFCURVE",
"323 503 OFFCURVE",
"323 521 CURVE SMOOTH",
"323 538 OFFCURVE",
"314 547 OFFCURVE",
"297 547 CURVE SMOOTH",
"280 547 OFFCURVE",
"271 538 OFFCURVE",
"271 521 CURVE SMOOTH",
"271 503 OFFCURVE",
"280 494 OFFCURVE",
"297 494 CURVE SMOOTH"
);
},
{
closed = 1;
nodes = (
"538 272 OFFCURVE",
"546 281 OFFCURVE",
"546 298 CURVE SMOOTH",
"546 315 OFFCURVE",
"538 324 OFFCURVE",
"521 324 CURVE SMOOTH",
"503 324 OFFCURVE",
"494 315 OFFCURVE",
"494 298 CURVE SMOOTH",
"494 281 OFFCURVE",
"503 272 OFFCURVE",
"521 272 CURVE SMOOTH"
);
},
{
closed = 1;
nodes = (
"520 356 OFFCURVE",
"529 365 OFFCURVE",
"529 383 CURVE SMOOTH",
"529 400 OFFCURVE",
"520 409 OFFCURVE",
"503 409 CURVE SMOOTH",
"485 409 OFFCURVE",
"476 400 OFFCURVE",
"476 383 CURVE SMOOTH",
"476 365 OFFCURVE",
"485 356 OFFCURVE",
"502 356 CURVE SMOOTH"
);
},
{
closed = 1;
nodes = (
"400 477 OFFCURVE",
"408 486 OFFCURVE",
"408 503 CURVE SMOOTH",
"408 521 OFFCURVE",
"400 530 OFFCURVE",
"383 530 CURVE SMOOTH",
"364 530 OFFCURVE",
"355 521 OFFCURVE",
"355 503 CURVE SMOOTH",
"355 486 OFFCURVE",
"364 477 OFFCURVE",
"383 477 CURVE SMOOTH"
);
},
{
closed = 1;
nodes = (
"472 429 OFFCURVE",
"480 438 OFFCURVE",
"480 455 CURVE SMOOTH",
"480 473 OFFCURVE",
"472 482 OFFCURVE",
"455 482 CURVE SMOOTH",
"437 482 OFFCURVE",
"428 473 OFFCURVE",
"428 455 CURVE SMOOTH",
"428 438 OFFCURVE",
"437 429 OFFCURVE",
"455 429 CURVE SMOOTH"
);
}
);
width = 603;
},
{
anchors = (
{
name = bottom;
position = "{302, 0}";
},
{
name = bottom.dot;
position = "{316, -18}";
},
{
name = top;
position = "{302, 596}";
}
);
layerId = "26E2967D-790C-4793-AF2A-2D0AD74EDC69";
paths = (
{
closed = 1;
nodes = (
"158 429 OFFCURVE",
"167 438 OFFCURVE",
"167 455 CURVE SMOOTH",
"167 473 OFFCURVE",
"158 482 OFFCURVE",
"140 482 CURVE SMOOTH",
"123 482 OFFCURVE",
"114 473 OFFCURVE",
"114 454 CURVE SMOOTH",
"114 437 OFFCURVE",
"123 429 OFFCURVE",
"140 429 CURVE SMOOTH"
);
},
{
closed = 1;
nodes = (
"158 114 OFFCURVE",
"167 123 OFFCURVE",
"167 140 CURVE SMOOTH",
"167 158 OFFCURVE",
"158 167 OFFCURVE",
"140 167 CURVE SMOOTH",
"123 167 OFFCURVE",
"114 158 OFFCURVE",
"114 140 CURVE SMOOTH",
"114 123 OFFCURVE",
"123 114 OFFCURVE",
"140 114 CURVE SMOOTH"
);
},
{
closed = 1;
nodes = (
"109 187 OFFCURVE",
"118 196 OFFCURVE",
"118 213 CURVE SMOOTH",
"118 231 OFFCURVE",
"109 240 OFFCURVE",
"92 240 CURVE SMOOTH",
"74 240 OFFCURVE",
"65 231 OFFCURVE",
"65 213 CURVE SMOOTH",
"65 196 OFFCURVE",
"74 187 OFFCURVE",
"92 187 CURVE SMOOTH"
);
},
{
closed = 1;
nodes = (
"230 67 OFFCURVE",
"239 76 OFFCURVE",
"239 94 CURVE SMOOTH",
"239 111 OFFCURVE",
"230 119 OFFCURVE",
"212 119 CURVE SMOOTH",
"195 119 OFFCURVE",
"186 110 OFFCURVE",
"186 92 CURVE SMOOTH",
"186 75 OFFCURVE",
"195 67 OFFCURVE",
"212 67 CURVE SMOOTH"
);
},
{
closed = 1;
nodes = (
"92 272 OFFCURVE",
"101 281 OFFCURVE",
"101 298 CURVE SMOOTH",
"101 315 OFFCURVE",
"92 324 OFFCURVE",
"75 324 CURVE SMOOTH",
"57 324 OFFCURVE",
"48 315 OFFCURVE",
"48 298 CURVE SMOOTH",
"48 281 OFFCURVE",
"57 272 OFFCURVE",
"75 272 CURVE SMOOTH"
);
},
{
closed = 1;
nodes = (
"314 49 OFFCURVE",
"323 58 OFFCURVE",
"323 76 CURVE SMOOTH",
"323 93 OFFCURVE",
"314 102 OFFCURVE",
"297 102 CURVE SMOOTH",
"280 102 OFFCURVE",
"271 93 OFFCURVE",
"271 76 CURVE SMOOTH",
"271 58 OFFCURVE",
"280 49 OFFCURVE",
"297 49 CURVE SMOOTH"
);
},
{
closed = 1;
nodes = (
"110 356 OFFCURVE",
"118 365 OFFCURVE",
"118 383 CURVE SMOOTH",
"118 400 OFFCURVE",
"109 409 OFFCURVE",
"92 409 CURVE SMOOTH",
"74 409 OFFCURVE",
"65 400 OFFCURVE",
"65 383 CURVE SMOOTH",
"65 365 OFFCURVE",
"74 356 OFFCURVE",
"93 356 CURVE SMOOTH"
);
},
{
closed = 1;
nodes = (
"400 67 OFFCURVE",
"408 75 OFFCURVE",
"408 92 CURVE SMOOTH",
"408 110 OFFCURVE",
"400 119 OFFCURVE",
"383 119 CURVE SMOOTH",
"364 119 OFFCURVE",
"355 110 OFFCURVE",
"355 92 CURVE SMOOTH",
"355 75 OFFCURVE",
"364 67 OFFCURVE",
"383 67 CURVE SMOOTH"
);
},
{
closed = 1;
nodes = (
"472 114 OFFCURVE",
"480 123 OFFCURVE",
"480 140 CURVE SMOOTH",
"480 158 OFFCURVE",
"472 167 OFFCURVE",
"455 167 CURVE SMOOTH",
"437 167 OFFCURVE",
"428 158 OFFCURVE",
"428 140 CURVE SMOOTH",
"428 123 OFFCURVE",
"437 114 OFFCURVE",
"455 114 CURVE SMOOTH"
);
},
{
closed = 1;
nodes = (
"520 187 OFFCURVE",
"529 196 OFFCURVE",
"529 213 CURVE SMOOTH",
"529 231 OFFCURVE",
"520 240 OFFCURVE",
"502 240 CURVE SMOOTH",
"485 240 OFFCURVE",
"476 231 OFFCURVE",
"476 213 CURVE SMOOTH",
"476 196 OFFCURVE",
"485 187 OFFCURVE",
"502 187 CURVE SMOOTH"
);
},
{
closed = 1;
nodes = (
"230 477 OFFCURVE",
"239 486 OFFCURVE",
"239 503 CURVE SMOOTH",
"239 521 OFFCURVE",
"230 530 OFFCURVE",
"212 530 CURVE SMOOTH",
"195 530 OFFCURVE",
"186 521 OFFCURVE",
"186 503 CURVE SMOOTH",
"186 486 OFFCURVE",
"195 477 OFFCURVE",
"212 477 CURVE SMOOTH"
);
},
{
closed = 1;
nodes = (
"314 494 OFFCURVE",
"323 503 OFFCURVE",
"323 521 CURVE SMOOTH",
"323 538 OFFCURVE",
"314 547 OFFCURVE",
"297 547 CURVE SMOOTH",
"280 547 OFFCURVE",
"271 538 OFFCURVE",
"271 521 CURVE SMOOTH",
"271 503 OFFCURVE",
"280 494 OFFCURVE",
"297 494 CURVE SMOOTH"
);
},
{
closed = 1;
nodes = (
"538 272 OFFCURVE",
"546 281 OFFCURVE",
"546 298 CURVE SMOOTH",
"546 315 OFFCURVE",
"538 324 OFFCURVE",
"521 324 CURVE SMOOTH",
"503 324 OFFCURVE",
"494 315 OFFCURVE",
"494 298 CURVE SMOOTH",
"494 281 OFFCURVE",
"503 272 OFFCURVE",
"521 272 CURVE SMOOTH"
);
},
{
closed = 1;
nodes = (
"520 356 OFFCURVE",
"529 365 OFFCURVE",
"529 383 CURVE SMOOTH",
"529 400 OFFCURVE",
"520 409 OFFCURVE",
"503 409 CURVE SMOOTH",
"485 409 OFFCURVE",
"476 400 OFFCURVE",
"476 383 CURVE SMOOTH",
"476 365 OFFCURVE",
"485 356 OFFCURVE",
"502 356 CURVE SMOOTH"
);
},
{
closed = 1;
nodes = (
"400 477 OFFCURVE",
"408 486 OFFCURVE",
"408 503 CURVE SMOOTH",
"408 521 OFFCURVE",
"400 530 OFFCURVE",
"383 530 CURVE SMOOTH",
"364 530 OFFCURVE",
"355 521 OFFCURVE",
"355 503 CURVE SMOOTH",
"355 486 OFFCURVE",
"364 477 OFFCURVE",
"383 477 CURVE SMOOTH"
);
},
{
closed = 1;
nodes = (
"472 429 OFFCURVE",
"480 438 OFFCURVE",
"480 455 CURVE SMOOTH",
"480 473 OFFCURVE",
"472 482 OFFCURVE",
"455 482 CURVE SMOOTH",
"437 482 OFFCURVE",
"428 473 OFFCURVE",
"428 455 CURVE SMOOTH",
"428 438 OFFCURVE",
"437 429 OFFCURVE",
"455 429 CURVE SMOOTH"
);
}
);
width = 603;
}
);
unicode = 25CC;
}
{
glyphname = uni0030;
layers = (
{
layerId = master01;
paths = (
{
closed = 1;
nodes = (
"445 125 OFFCURVE",
"523 245 OFFCURVE",
"523 493 CURVE SMOOTH",
"523 732 OFFCURVE",
"440 860 OFFCURVE",
"285 860 CURVE SMOOTH",
"124 860 OFFCURVE",
"49 742 OFFCURVE",
"49 493 CURVE SMOOTH",
"49 252 OFFCURVE",
"130 125 OFFCURVE",
"285 125 CURVE SMOOTH"
);
},
{
closed = 1;
nodes = (
"246 200 OFFCURVE",
"215 212 OFFCURVE",
"192 239 CURVE SMOOTH",
"154 283 OFFCURVE",
"137 364 OFFCURVE",
"137 493 CURVE SMOOTH",
"137 616 OFFCURVE",
"153 697 OFFCURVE",
"188 741 CURVE SMOOTH",
"212 771 OFFCURVE",
"244 785 OFFCURVE",
"285 785 CURVE SMOOTH",
"320 785 OFFCURVE",
"348 775 OFFCURVE",
"370 754 CURVE SMOOTH",
"414 712 OFFCURVE",
"434 626 OFFCURVE",
"434 493 CURVE SMOOTH",
"434 368 OFFCURVE",
"417 286 OFFCURVE",
"379 241 CURVE SMOOTH",
"356 213 OFFCURVE",
"325 200 OFFCURVE",
"285 200 CURVE SMOOTH"
);
}
);
width = 572;
},
{
layerId = "26E2967D-790C-4793-AF2A-2D0AD74EDC69";
paths = (
{
closed = 1;
nodes = (
"455 125 OFFCURVE",
"535 243 OFFCURVE",
"535 492 CURVE SMOOTH",
"535 733 OFFCURVE",
"450 860 OFFCURVE",
"285 860 CURVE SMOOTH",
"116 860 OFFCURVE",
"36 744 OFFCURVE",
"36 492 CURVE SMOOTH",
"36 250 OFFCURVE",
"120 125 OFFCURVE",
"285 125 CURVE SMOOTH"
);
},
{
closed = 1;
nodes = (
"249 247 OFFCURVE",
"224 266 OFFCURVE",
"209 304 CURVE SMOOTH",
"194 342 OFFCURVE",
"186 404 OFFCURVE",
"186 492 CURVE SMOOTH",
"186 579 OFFCURVE",
"194 642 OFFCURVE",
"209 681 CURVE SMOOTH",
"224 719 OFFCURVE",
"250 738 OFFCURVE",
"285 738 CURVE SMOOTH",
"320 738 OFFCURVE",
"345 719 OFFCURVE",
"361 681 CURVE SMOOTH",
"377 642 OFFCURVE",
"385 579 OFFCURVE",
"385 492 CURVE SMOOTH",
"385 405 OFFCURVE",
"377 343 OFFCURVE",
"361 304 CURVE SMOOTH",
"346 266 OFFCURVE",
"320 247 OFFCURVE",
"285 247 CURVE SMOOTH"
);
}
);
width = 572;
}
);
unicode = 0030;
}
{
glyphname = uni0031;
layers = (
{
layerId = master01;
paths = (
{
closed = 1;
nodes = (
"355 135 LINE",
"355 849 LINE",
"282 849 LINE",
"89 699 LINE",
"135 640 LINE",
"174 672 OFFCURVE",
"210 702 OFFCURVE",
"244 730 CURVE SMOOTH",
"254 738 OFFCURVE",
"264 747 OFFCURVE",
"273 757 CURVE",
"270 719 OFFCURVE",
"269 678 OFFCURVE",
"269 634 CURVE SMOOTH",
"269 135 LINE"
);
}
);
width = 572;
},
{
layerId = "26E2967D-790C-4793-AF2A-2D0AD74EDC69";
paths = (
{
closed = 1;
nodes = (
"413 135 LINE",
"413 849 LINE",
"289 849 LINE",
"59 666 LINE",
"132 575 LINE",
"159 597 OFFCURVE",
"187 619 OFFCURVE",
"214 641 CURVE SMOOTH",
"224 649 OFFCURVE",
"241 665 OFFCURVE",
"266 690 CURVE",
"264 620 OFFCURVE",
"262 585 OFFCURVE",
"262 548 CURVE SMOOTH",
"262 135 LINE"
);
}
);
width = 572;
}
);
unicode = 0031;
}
{
glyphname = uni0032;
layers = (
{
layerId = master01;
paths = (
{
closed = 1;
nodes = (
"520 135 LINE",
"520 215 LINE",
"159 215 LINE",
"159 219 LINE",
"308 366 LINE SMOOTH",
"362 418 OFFCURVE",
"400 460 OFFCURVE",
"423 490 CURVE SMOOTH",
"468 550 OFFCURVE",
"491 607 OFFCURVE",
"491 669 CURVE SMOOTH",
"491 698 OFFCURVE",
"486 724 OFFCURVE",
"477 748 CURVE SMOOTH",
"447 818 OFFCURVE",
"375 859 OFFCURVE",
"275 859 CURVE SMOOTH",
"196 859 OFFCURVE",
"123 831 OFFCURVE",
"56 775 CURVE",
"103 716 LINE",
"169 767 OFFCURVE",
"216 784 OFFCURVE",
"275 784 CURVE SMOOTH",
"353 784 OFFCURVE",
"401 739 OFFCURVE",
"401 664 CURVE SMOOTH",
"401 610 OFFCURVE",
"387 573 OFFCURVE",
"347 519 CURVE SMOOTH",
"328 495 OFFCURVE",
"291 454 OFFCURVE",
"235 397 CURVE SMOOTH",
"48 208 LINE",
"48 135 LINE"
);
}
);
width = 572;
},
{
layerId = "26E2967D-790C-4793-AF2A-2D0AD74EDC69";
paths = (
{
closed = 1;
nodes = (
"539 135 LINE",
"539 262 LINE",
"228 262 LINE",
"228 269 LINE",
"320 355 LINE SMOOTH",
"381 411 OFFCURVE",
"424 454 OFFCURVE",
"448 485 CURVE SMOOTH",
"497 546 OFFCURVE",
"519 600 OFFCURVE",
"519 666 CURVE SMOOTH",
"519 704 OFFCURVE",
"510 737 OFFCURVE",
"491 766 CURVE SMOOTH",
"453 825 OFFCURVE",
"382 859 OFFCURVE",
"293 859 CURVE SMOOTH",
"186 859 OFFCURVE",
"124 830 OFFCURVE",
"38 757 CURVE",
"120 660 LINE",
"177 707 OFFCURVE",
"227 733 OFFCURVE",
"282 733 CURVE SMOOTH",
"335 733 OFFCURVE",
"369 705 OFFCURVE",
"369 648 CURVE SMOOTH",
"369 606 OFFCURVE",
"357 578 OFFCURVE",
"323 534 CURVE SMOOTH",
"307 513 OFFCURVE",
"272 475 OFFCURVE",
"219 421 CURVE SMOOTH",
"40 240 LINE",
"40 135 LINE"
);
}
);
width = 572;
}
);
unicode = 0032;
}
{
glyphname = uni0033;
layers = (
{
layerId = master01;
paths = (
{
closed = 1;
nodes = (
"418 125 OFFCURVE",
"515 202 OFFCURVE",
"515 338 CURVE SMOOTH",
"515 432 OFFCURVE",
"459 493 OFFCURVE",
"345 507 CURVE",
"345 511 LINE",
"440 531 OFFCURVE",
"493 591 OFFCURVE",
"493 682 CURVE SMOOTH",
"493 791 OFFCURVE",
"411 859 OFFCURVE",
"272 859 CURVE SMOOTH",
"186 859 OFFCURVE",
"107 831 OFFCURVE",
"49 785 CURVE",
"93 725 LINE",
"162 770 OFFCURVE",
"210 785 OFFCURVE",
"273 785 CURVE SMOOTH",
"354 785 OFFCURVE",
"403 744 OFFCURVE",
"403 676 CURVE SMOOTH",
"403 591 OFFCURVE",
"336 541 OFFCURVE",
"224 541 CURVE SMOOTH",
"154 541 LINE",
"154 466 LINE",
"223 466 LINE SMOOTH",
"356 466 OFFCURVE",
"423 424 OFFCURVE",
"423 340 CURVE SMOOTH",
"423 246 OFFCURVE",
"363 199 OFFCURVE",
"242 199 CURVE SMOOTH",
"178 199 OFFCURVE",
"105 216 OFFCURVE",
"45 246 CURVE",
"45 164 LINE",
"104 135 OFFCURVE",
"166 125 OFFCURVE",
"241 125 CURVE SMOOTH"
);
}
);
width = 572;
},
{
layerId = "26E2967D-790C-4793-AF2A-2D0AD74EDC69";
paths = (
{
closed = 1;
nodes = (
"429 125 OFFCURVE",
"532 206 OFFCURVE",
"532 343 CURVE SMOOTH",
"532 437 OFFCURVE",
"472 494 OFFCURVE",
"357 508 CURVE",
"357 511 LINE",
"455 534 OFFCURVE",
"511 600 OFFCURVE",
"511 689 CURVE SMOOTH",
"511 796 OFFCURVE",
"420 859 OFFCURVE",
"272 859 CURVE SMOOTH",
"182 859 OFFCURVE",
"104 836 OFFCURVE",
"39 789 CURVE",
"109 685 LINE",
"168 723 OFFCURVE",
"214 737 OFFCURVE",
"261 737 CURVE SMOOTH",
"329 737 OFFCURVE",
"363 710 OFFCURVE",
"363 656 CURVE SMOOTH",
"363 586 OFFCURVE",
"314 560 OFFCURVE",
"203 560 CURVE SMOOTH",
"148 560 LINE",
"148 444 LINE",
"202 444 LINE SMOOTH",
"322 444 OFFCURVE",
"374 419 OFFCURVE",
"374 352 CURVE SMOOTH",
"374 277 OFFCURVE",
"328 245 OFFCURVE",
"228 245 CURVE SMOOTH",
"163 245 OFFCURVE",
"93 264 OFFCURVE",
"38 292 CURVE",
"38 164 LINE",
"98 138 OFFCURVE",
"167 125 OFFCURVE",
"244 125 CURVE SMOOTH"
);
}
);
width = 572;
}
);
unicode = 0033;
}
{
glyphname = uni0034;
layers = (
{
layerId = master01;
paths = (
{
closed = 1;
nodes = (
"448 135 LINE",
"448 297 LINE",
"552 297 LINE",
"552 376 LINE",
"448 376 LINE",
"448 853 LINE",
"357 853 LINE",
"21 372 LINE",
"21 297 LINE",
"363 297 LINE",
"363 135 LINE"
);
},
{
closed = 1;
nodes = (
"321 681 LINE SMOOTH",
"335 700 OFFCURVE",
"357 742 OFFCURVE",
"364 759 CURVE",
"368 759 LINE",
"365 698 OFFCURVE",
"363 645 OFFCURVE",
"363 601 CURVE SMOOTH",
"363 376 LINE",
"107 376 LINE"
);
}
);
width = 572;
},
{
layerId = "26E2967D-790C-4793-AF2A-2D0AD74EDC69";
paths = (
{
closed = 1;
nodes = (
"469 135 LINE",
"469 283 LINE",
"555 283 LINE",
"555 400 LINE",
"469 400 LINE",
"469 849 LINE",
"330 849 LINE",
"17 388 LINE",
"17 283 LINE",
"322 283 LINE",
"322 135 LINE"
);
},
{
closed = 1;
nodes = (
"281 598 LINE SMOOTH",
"298 623 OFFCURVE",
"312 649 OFFCURVE",
"324 676 CURVE",
"328 676 LINE",
"326 664 OFFCURVE",
"322 562 OFFCURVE",
"322 521 CURVE SMOOTH",
"322 400 LINE",
"150 400 LINE"
);
}
);
width = 572;
}
);
unicode = 0034;
}
{
glyphname = uni0035;
layers = (
{
layerId = master01;
paths = (
{
closed = 1;
nodes = (
"415 125 OFFCURVE",
"515 215 OFFCURVE",
"515 363 CURVE SMOOTH",
"515 493 OFFCURVE",
"424 573 OFFCURVE",
"275 573 CURVE SMOOTH",
"239 573 OFFCURVE",
"202 569 OFFCURVE",
"165 562 CURVE",
"182 769 LINE",
"465 769 LINE",
"465 849 LINE",
"107 849 LINE",
"80 512 LINE",
"124 484 LINE",
"167 494 OFFCURVE",
"208 499 OFFCURVE",
"246 499 CURVE SMOOTH",
"365 499 OFFCURVE",
"425 451 OFFCURVE",
"425 354 CURVE SMOOTH",
"425 255 OFFCURVE",
"361 200 OFFCURVE",
"249 200 CURVE SMOOTH",
"185 200 OFFCURVE",
"111 218 OFFCURVE",
"63 247 CURVE",
"63 164 LINE",
"107 138 OFFCURVE",
"168 125 OFFCURVE",
"248 125 CURVE SMOOTH"
);
}
);
width = 572;
},
{
layerId = "26E2967D-790C-4793-AF2A-2D0AD74EDC69";
paths = (
{
closed = 1;
nodes = (
"424 125 OFFCURVE",
"526 214 OFFCURVE",
"526 374 CURVE SMOOTH",
"526 509 OFFCURVE",
"438 591 OFFCURVE",
"300 591 CURVE SMOOTH",
"268 591 OFFCURVE",
"244 588 OFFCURVE",
"209 581 CURVE",
"222 721 LINE",
"477 721 LINE",
"477 849 LINE",
"90 849 LINE",
"63 485 LINE",
"123 453 LINE",
"149 461 OFFCURVE",
"196 469 OFFCURVE",
"231 469 CURVE SMOOTH",
"326 469 OFFCURVE",
"374 433 OFFCURVE",
"374 361 CURVE SMOOTH",
"374 286 OFFCURVE",
"328 248 OFFCURVE",
"236 248 CURVE SMOOTH",
"175 248 OFFCURVE",
"100 267 OFFCURVE",
"49 294 CURVE",
"49 164 LINE",
"98 138 OFFCURVE",
"162 125 OFFCURVE",
"241 125 CURVE SMOOTH"
);
}
);
width = 572;
}
);
unicode = 0035;
}
{
glyphname = uni0036;
layers = (
{
layerId = master01;
paths = (
{
closed = 1;
nodes = (
"438 125 OFFCURVE",
"525 217 OFFCURVE",
"525 365 CURVE SMOOTH",
"525 498 OFFCURVE",
"447 582 OFFCURVE",
"318 582 CURVE SMOOTH",
"241 582 OFFCURVE",
"185 554 OFFCURVE",
"149 498 CURVE",
"143 498 LINE",
"146 567 OFFCURVE",
"158 623 OFFCURVE",
"178 667 CURVE SMOOTH",
"216 749 OFFCURVE",
"285 787 OFFCURVE",
"384 787 CURVE SMOOTH",
"417 787 OFFCURVE",
"445 783 OFFCURVE",
"470 775 CURVE",
"470 850 LINE",
"449 856 OFFCURVE",
"420 859 OFFCURVE",
"382 859 CURVE SMOOTH",
"164 859 OFFCURVE",
"55 719 OFFCURVE",
"55 440 CURVE SMOOTH",
"55 375 OFFCURVE",
"65 319 OFFCURVE",
"85 271 CURVE SMOOTH",
"125 176 OFFCURVE",
"200 125 OFFCURVE",
"298 125 CURVE SMOOTH"
);
},
{
closed = 1;
nodes = (
"267 199 OFFCURVE",
"241 207 OFFCURVE",
"218 223 CURVE SMOOTH",
"172 256 OFFCURVE",
"144 317 OFFCURVE",
"144 382 CURVE SMOOTH",
"144 404 OFFCURVE",
"151 426 OFFCURVE",
"165 447 CURVE SMOOTH",
"194 488 OFFCURVE",
"243 513 OFFCURVE",
"300 513 CURVE SMOOTH",
"389 513 OFFCURVE",
"438 460 OFFCURVE",
"438 365 CURVE SMOOTH",
"438 260 OFFCURVE",
"387 199 OFFCURVE",
"297 199 CURVE SMOOTH"
);
}
);
width = 572;
},
{
layerId = "26E2967D-790C-4793-AF2A-2D0AD74EDC69";
paths = (
{
closed = 1;
nodes = (
"448 125 OFFCURVE",
"539 220 OFFCURVE",
"539 373 CURVE SMOOTH",
"539 514 OFFCURVE",
"463 599 OFFCURVE",
"335 599 CURVE SMOOTH",
"264 599 OFFCURVE",
"212 571 OFFCURVE",
"180 516 CURVE",
"174 516 LINE",
"177 572 OFFCURVE",
"186 616 OFFCURVE",
"203 646 CURVE SMOOTH",
"235 707 OFFCURVE",
"299 739 OFFCURVE",
"403 739 CURVE SMOOTH",
"431 739 OFFCURVE",
"460 736 OFFCURVE",
"489 729 CURVE",
"489 850 LINE",
"466 855 OFFCURVE",
"434 857 OFFCURVE",
"393 857 CURVE SMOOTH",
"155 857 OFFCURVE",
"35 721 OFFCURVE",
"35 438 CURVE SMOOTH",
"35 372 OFFCURVE",
"46 316 OFFCURVE",
"67 269 CURVE SMOOTH",
"110 175 OFFCURVE",
"190 125 OFFCURVE",
"296 125 CURVE SMOOTH"
);
},
{
closed = 1;
nodes = (
"270 246 OFFCURVE",
"249 254 OFFCURVE",
"232 268 CURVE SMOOTH",
"203 293 OFFCURVE",
"185 335 OFFCURVE",
"185 384 CURVE SMOOTH",
"185 405 OFFCURVE",
"193 425 OFFCURVE",
"206 441 CURVE SMOOTH",
"226 466 OFFCURVE",
"259 483 OFFCURVE",
"296 483 CURVE SMOOTH",
"361 483 OFFCURVE",
"393 441 OFFCURVE",
"393 371 CURVE SMOOTH",
"393 291 OFFCURVE",
"357 246 OFFCURVE",
"293 246 CURVE SMOOTH"
);
}
);
width = 572;
}
);
unicode = 0036;
}
{
glyphname = uni0037;
layers = (
{
layerId = master01;
paths = (
{
closed = 1;
nodes = (
"233 135 LINE",
"523 781 LINE",
"523 849 LINE",
"44 849 LINE",
"44 769 LINE",
"429 769 LINE",
"136 135 LINE"
);
}
);
width = 572;
},
{
layerId = "26E2967D-790C-4793-AF2A-2D0AD74EDC69";
paths = (
{
closed = 1;
nodes = (
"269 135 LINE",
"539 754 LINE",
"539 849 LINE",
"27 849 LINE",
"27 722 LINE",
"379 722 LINE",
"111 135 LINE"
);
}
);
width = 572;
}
);
unicode = 0037;
}
{
glyphname = uni0038;
layers = (
{
layerId = master01;
paths = (
{
closed = 1;
nodes = (
"432 125 OFFCURVE",
"522 202 OFFCURVE",
"522 320 CURVE SMOOTH",
"522 399 OFFCURVE",
"478 457 OFFCURVE",
"363 513 CURVE",
"458 562 OFFCURVE",
"499 617 OFFCURVE",
"499 688 CURVE SMOOTH",
"499 795 OFFCURVE",
"415 859 OFFCURVE",
"285 859 CURVE SMOOTH",
"156 859 OFFCURVE",
"72 793 OFFCURVE",
"72 689 CURVE SMOOTH",
"72 616 OFFCURVE",
"108 559 OFFCURVE",
"197 508 CURVE",
"98 462 OFFCURVE",
"49 399 OFFCURVE",
"49 317 CURVE SMOOTH",
"49 194 OFFCURVE",
"136 125 OFFCURVE",
"288 125 CURVE SMOOTH"
);
},
{
closed = 1;
nodes = (
"192 195 OFFCURVE",
"135 241 OFFCURVE",
"135 316 CURVE SMOOTH",
"135 385 OFFCURVE",
"176 432 OFFCURVE",
"270 472 CURVE",
"390 428 OFFCURVE",
"436 382 OFFCURVE",
"436 319 CURVE SMOOTH",
"436 242 OFFCURVE",
"379 195 OFFCURVE",
"286 195 CURVE SMOOTH"
);
},
{
closed = 1;
nodes = (
"253 562 OFFCURVE",
"226 576 OFFCURVE",
"209 589 CURVE SMOOTH",
"176 613 OFFCURVE",
"158 644 OFFCURVE",
"158 685 CURVE SMOOTH",
"158 749 OFFCURVE",
"207 788 OFFCURVE",
"284 788 CURVE SMOOTH",
"362 788 OFFCURVE",
"412 750 OFFCURVE",
"412 685 CURVE SMOOTH",
"412 627 OFFCURVE",
"378 584 OFFCURVE",
"289 547 CURVE"
);
}
);
width = 572;
},
{
layerId = "26E2967D-790C-4793-AF2A-2D0AD74EDC69";
paths = (
{
closed = 1;
nodes = (
"436 125 OFFCURVE",
"536 203 OFFCURVE",
"536 320 CURVE SMOOTH",
"536 394 OFFCURVE",
"493 455 OFFCURVE",
"386 512 CURVE",
"476 557 OFFCURVE",
"514 613 OFFCURVE",
"514 686 CURVE SMOOTH",
"514 791 OFFCURVE",
"423 858 OFFCURVE",
"286 858 CURVE SMOOTH",
"150 858 OFFCURVE",
"57 789 OFFCURVE",
"57 687 CURVE SMOOTH",
"57 617 OFFCURVE",
"90 559 OFFCURVE",
"172 508 CURVE",
"76 460 OFFCURVE",
"35 398 OFFCURVE",
"35 316 CURVE SMOOTH",
"35 194 OFFCURVE",
"130 125 OFFCURVE",
"286 125 CURVE SMOOTH"
);
},
{
closed = 1;
nodes = (
"216 236 OFFCURVE",
"175 269 OFFCURVE",
"175 325 CURVE SMOOTH",
"175 374 OFFCURVE",
"209 414 OFFCURVE",
"279 446 CURVE",
"361 403 OFFCURVE",
"396 368 OFFCURVE",
"396 324 CURVE SMOOTH",
"396 271 OFFCURVE",
"359 236 OFFCURVE",
"284 236 CURVE SMOOTH"
);
},
{
closed = 1;
nodes = (
"257 589 OFFCURVE",
"237 602 OFFCURVE",
"224 616 CURVE SMOOTH",
"206 635 OFFCURVE",
"199 653 OFFCURVE",
"199 675 CURVE SMOOTH",
"199 719 OFFCURVE",
"234 748 OFFCURVE",
"285 748 CURVE SMOOTH",
"336 748 OFFCURVE",
"372 720 OFFCURVE",
"372 675 CURVE SMOOTH",
"372 634 OFFCURVE",
"350 605 OFFCURVE",
"286 575 CURVE"
);
}
);
width = 572;
}
);
unicode = 0038;
}
{
glyphname = uni0039;
layers = (
{
layerId = master01;
paths = (
{
closed = 1;
nodes = (
"411 125 OFFCURVE",
"520 265 OFFCURVE",
"520 544 CURVE SMOOTH",
"520 609 OFFCURVE",
"510 665 OFFCURVE",
"490 713 CURVE SMOOTH",
"451 808 OFFCURVE",
"375 859 OFFCURVE",
"278 859 CURVE SMOOTH",
"139 859 OFFCURVE",
"50 765 OFFCURVE",
"50 618 CURVE SMOOTH",
"50 483 OFFCURVE",
"129 402 OFFCURVE",
"255 402 CURVE SMOOTH",
"332 402 OFFCURVE",
"388 430 OFFCURVE",
"425 485 CURVE",
"431 485 LINE",
"429 417 OFFCURVE",
"418 363 OFFCURVE",
"400 322 CURVE SMOOTH",
"364 241 OFFCURVE",
"296 197 OFFCURVE",
"190 197 CURVE SMOOTH",
"156 197 OFFCURVE",
"127 201 OFFCURVE",
"102 210 CURVE",
"102 135 LINE",
"124 128 OFFCURVE",
"154 125 OFFCURVE",
"192 125 CURVE SMOOTH"
);
},
{
closed = 1;
nodes = (
"185 472 OFFCURVE",
"137 524 OFFCURVE",
"137 619 CURVE SMOOTH",
"137 724 OFFCURVE",
"189 785 OFFCURVE",
"278 785 CURVE SMOOTH",
"308 785 OFFCURVE",
"335 777 OFFCURVE",
"358 760 CURVE SMOOTH",
"404 727 OFFCURVE",
"431 667 OFFCURVE",
"431 602 CURVE SMOOTH",
"431 579 OFFCURVE",
"424 558 OFFCURVE",
"411 538 CURVE SMOOTH",
"383 497 OFFCURVE",
"333 472 OFFCURVE",
"274 472 CURVE SMOOTH"
);
}
);
width = 572;
},
{
layerId = "26E2967D-790C-4793-AF2A-2D0AD74EDC69";
paths = (
{
closed = 1;
nodes = (
"418 125 OFFCURVE",
"536 263 OFFCURVE",
"536 544 CURVE SMOOTH",
"536 609 OFFCURVE",
"526 665 OFFCURVE",
"504 712 CURVE SMOOTH",
"462 806 OFFCURVE",
"380 857 OFFCURVE",
"275 857 CURVE SMOOTH",
"125 857 OFFCURVE",
"32 762 OFFCURVE",
"32 609 CURVE SMOOTH",
"32 467 OFFCURVE",
"109 383 OFFCURVE",
"233 383 CURVE SMOOTH",
"307 383 OFFCURVE",
"353 405 OFFCURVE",
"391 466 CURVE",
"397 466 LINE",
"394 410 OFFCURVE",
"384 367 OFFCURVE",
"367 335 CURVE SMOOTH",
"333 271 OFFCURVE",
"269 243 OFFCURVE",
"168 243 CURVE SMOOTH",
"138 243 OFFCURVE",
"109 246 OFFCURVE",
"82 253 CURVE",
"82 132 LINE",
"104 128 OFFCURVE",
"136 125 OFFCURVE",
"178 125 CURVE SMOOTH"
);
},
{
closed = 1;
nodes = (
"210 499 OFFCURVE",
"178 542 OFFCURVE",
"178 611 CURVE SMOOTH",
"178 692 OFFCURVE",
"215 736 OFFCURVE",
"278 736 CURVE SMOOTH",
"296 736 OFFCURVE",
"312 731 OFFCURVE",
"327 722 CURVE SMOOTH",
"363 700 OFFCURVE",
"386 654 OFFCURVE",
"386 598 CURVE SMOOTH",
"386 578 OFFCURVE",
"379 559 OFFCURVE",
"367 544 CURVE SMOOTH",
"347 517 OFFCURVE",
"313 499 OFFCURVE",
"275 499 CURVE SMOOTH"
);
}
);
width = 572;
}
);
unicode = 0039;
}
{
glyphname = uni060C;
layers = (
{
layerId = master01;
paths = (
{
closed = 1;
nodes = (
"135 75 OFFCURVE",
"163 103 OFFCURVE",
"169 142 CURVE",
"134 153 OFFCURVE",
"113 163 OFFCURVE",
"113 181 CURVE SMOOTH",
"113 217 OFFCURVE",
"137 282 OFFCURVE",
"169 317 CURVE",
"142 340 LINE",
"85 279 OFFCURVE",
"40 191 OFFCURVE",
"40 141 CURVE SMOOTH",
"40 108 OFFCURVE",
"65 75 OFFCURVE",
"102 75 CURVE SMOOTH"
);
}
);
width = 212;
},
{
layerId = "26E2967D-790C-4793-AF2A-2D0AD74EDC69";
paths = (
{
closed = 1;
nodes = (
"183 84 OFFCURVE",
"217 120 OFFCURVE",
"227 174 CURVE",
"189 186 OFFCURVE",
"167 197 OFFCURVE",
"167 217 CURVE SMOOTH",
"167 241 OFFCURVE",
"188 286 OFFCURVE",
"231 334 CURVE",
"181 374 LINE",
"84 285 OFFCURVE",
"59 234 OFFCURVE",
"59 173 CURVE SMOOTH",
"59 121 OFFCURVE",
"92 84 OFFCURVE",
"139 84 CURVE SMOOTH"
);
}
);
width = 261;
}
);
unicode = 060C;
}
{
glyphname = uni060D;
layers = (
{
layerId = master01;
paths = (
{
closed = 1;
nodes = (
"98 74 OFFCURVE",
"147 150 OFFCURVE",
"228 230 CURVE",
"210 290 LINE",
"185 264 OFFCURVE",
"157 233 OFFCURVE",
"131 199 CURVE SMOOTH",
"83 136 OFFCURVE",
"41 68 OFFCURVE",
"41 25 CURVE SMOOTH",
"41 8 OFFCURVE",
"52 -11 OFFCURVE",
"69 -16 CURVE"
);
}
);
width = 300;
},
{
layerId = "26E2967D-790C-4793-AF2A-2D0AD74EDC69";
paths = (
{
closed = 1;
nodes = (
"104 66 OFFCURVE",
"153 142 OFFCURVE",
"233 222 CURVE",
"202 325 LINE",
"166 288 OFFCURVE",
"135 251 OFFCURVE",
"109 215 CURVE SMOOTH",
"56 143 OFFCURVE",
"29 77 OFFCURVE",
"29 37 CURVE SMOOTH",
"29 4 OFFCURVE",
"44 -16 OFFCURVE",
"75 -25 CURVE"
);
}
);
width = 300;
}
);
unicode = 060D;
}
{
glyphname = uni060E;
layers = (
{
layerId = master01;
paths = (
{
closed = 1;
nodes = (
"470 135 OFFCURVE",
"570 142 OFFCURVE",
"641 157 CURVE SMOOTH",
"711 172 OFFCURVE",
"763 196 OFFCURVE",
"795 228 CURVE SMOOTH",
"810 242 OFFCURVE",
"824 264 OFFCURVE",
"837 291 CURVE",
"811 312 LINE",
"795 292 OFFCURVE",
"771 274 OFFCURVE",
"737 260 CURVE SMOOTH",
"661 227 OFFCURVE",
"539 210 OFFCURVE",
"371 207 CURVE",
"374 216 OFFCURVE",
"383 266 OFFCURVE",
"383 288 CURVE SMOOTH",
"383 382 OFFCURVE",
"333 446 OFFCURVE",
"255 446 CURVE SMOOTH",
"218 446 OFFCURVE",
"181 434 OFFCURVE",
"150 414 CURVE SMOOTH",
"102 383 OFFCURVE",
"68 331 OFFCURVE",
"68 274 CURVE SMOOTH",
"68 223 OFFCURVE",
"88 187 OFFCURVE",
"128 166 CURVE SMOOTH",
"168 145 OFFCURVE",
"240 135 OFFCURVE",
"342 135 CURVE SMOOTH"
);
},
{
closed = 1;
nodes = (
"260 208 OFFCURVE",
"203 216 OFFCURVE",
"164 231 CURVE SMOOTH",
"124 246 OFFCURVE",
"104 267 OFFCURVE",
"104 295 CURVE SMOOTH",
"104 306 OFFCURVE",
"111 317 OFFCURVE",
"124 329 CURVE SMOOTH",
"151 352 OFFCURVE",
"194 368 OFFCURVE",
"237 368 CURVE SMOOTH",
"256 368 OFFCURVE",
"273 363 OFFCURVE",
"290 354 CURVE SMOOTH",
"322 335 OFFCURVE",
"342 300 OFFCURVE",
"342 254 CURVE SMOOTH",
"342 244 OFFCURVE",
"339 228 OFFCURVE",
"334 207 CURVE"
);
}
);
width = 854;
},
{
layerId = "26E2967D-790C-4793-AF2A-2D0AD74EDC69";
paths = (
{
closed = 1;
nodes = (
"456 135 OFFCURVE",
"549 141 OFFCURVE",
"623 155 CURVE SMOOTH",
"703 170 OFFCURVE",
"759 195 OFFCURVE",
"795 230 CURVE SMOOTH",
"812 247 OFFCURVE",
"832 276 OFFCURVE",
"854 318 CURVE",
"817 350 LINE",
"802 332 OFFCURVE",
"774 315 OFFCURVE",
"733 301 CURVE SMOOTH",
"651 272 OFFCURVE",
"514 253 OFFCURVE",
"387 251 CURVE",
"394 304 OFFCURVE",
"394 340 OFFCURVE",
"375 386 CURVE SMOOTH",
"352 439 OFFCURVE",
"309 472 OFFCURVE",
"252 472 CURVE SMOOTH",
"219 472 OFFCURVE",
"186 463 OFFCURVE",
"156 445 CURVE SMOOTH",
"95 408 OFFCURVE",
"62 344 OFFCURVE",
"62 283 CURVE SMOOTH",
"62 231 OFFCURVE",
"80 195 OFFCURVE",
"121 171 CURVE SMOOTH",
"165 146 OFFCURVE",
"236 135 OFFCURVE",
"342 135 CURVE SMOOTH"
);
},
{
closed = 1;
nodes = (
"250 250 OFFCURVE",
"193 254 OFFCURVE",
"162 261 CURVE SMOOTH",
"131 268 OFFCURVE",
"116 281 OFFCURVE",
"116 298 CURVE SMOOTH",
"116 307 OFFCURVE",
"121 316 OFFCURVE",
"130 323 CURVE SMOOTH",
"151 342 OFFCURVE",
"191 355 OFFCURVE",
"237 355 CURVE SMOOTH",
"254 355 OFFCURVE",
"271 352 OFFCURVE",
"284 345 CURVE SMOOTH",
"314 331 OFFCURVE",
"333 302 OFFCURVE",
"333 262 CURVE SMOOTH",
"333 259 OFFCURVE",
"333 254 OFFCURVE",
"333 250 CURVE"
);
}
);
width = 854;
}
);
unicode = 060E;
}
{
glyphname = uni060F;
layers = (
{
anchors = (
{
name = bottom;
position = "{365, -207}";
},
{
name = top;
position = "{229, 814}";
}
);
layerId = master01;
paths = (
{
closed = 1;
nodes = (
"99 -114 OFFCURVE",
"127 -76 OFFCURVE",
"151 -47 CURVE",
"189 -110 OFFCURVE",
"254 -146 OFFCURVE",
"338 -146 CURVE SMOOTH",
"378 -146 OFFCURVE",
"416 -137 OFFCURVE",
"452 -120 CURVE SMOOTH",
"524 -85 OFFCURVE",
"569 -21 OFFCURVE",
"569 52 CURVE SMOOTH",
"569 154 OFFCURVE",
"518 211 OFFCURVE",
"425 211 CURVE SMOOTH",
"337 211 OFFCURVE",
"254 156 OFFCURVE",
"161 39 CURVE",
"152 60 OFFCURVE",
"148 84 OFFCURVE",
"148 110 CURVE SMOOTH",
"148 159 OFFCURVE",
"167 205 OFFCURVE",
"202 247 CURVE SMOOTH",
"243 295 OFFCURVE",
"308 337 OFFCURVE",
"394 371 CURVE SMOOTH",
"416 380 OFFCURVE",
"431 387 OFFCURVE",
"440 394 CURVE SMOOTH",
"459 406 OFFCURVE",
"471 422 OFFCURVE",
"471 444 CURVE SMOOTH",
"471 454 OFFCURVE",
"467 465 OFFCURVE",
"460 475 CURVE",
"395 454 OFFCURVE",
"340 430 OFFCURVE",
"296 402 CURVE",
"190 411 OFFCURVE",
"125 467 OFFCURVE",
"125 551 CURVE",
"171 575 OFFCURVE",
"213 587 OFFCURVE",
"253 587 CURVE SMOOTH",
"282 587 OFFCURVE",
"297 584 OFFCURVE",
"350 564 CURVE",
"368 595 LINE",
"310 646 OFFCURVE",
"272 667 OFFCURVE",
"228 667 CURVE SMOOTH",
"201 667 OFFCURVE",
"176 658 OFFCURVE",
"151 638 CURVE SMOOTH",
"101 599 OFFCURVE",
"68 530 OFFCURVE",
"68 473 CURVE SMOOTH",
"68 453 OFFCURVE",
"74 433 OFFCURVE",
"84 415 CURVE SMOOTH",
"107 374 OFFCURVE",
"152 340 OFFCURVE",
"204 328 CURVE",
"148 272 OFFCURVE",
"112 193 OFFCURVE",
"112 110 CURVE SMOOTH",
"112 66 OFFCURVE",
"118 29 OFFCURVE",
"129 -2 CURVE",
"100 -43 OFFCURVE",
"70 -89 OFFCURVE",
"38 -140 CURVE",
"67 -162 LINE"
);
},
{
closed = 1;
nodes = (
"286 -69 OFFCURVE",
"228 -47 OFFCURVE",
"188 -5 CURVE",
"271 83 OFFCURVE",
"352 126 OFFCURVE",
"432 126 CURVE SMOOTH",
"484 126 OFFCURVE",
"534 91 OFFCURVE",
"534 49 CURVE SMOOTH",
"534 26 OFFCURVE",
"526 6 OFFCURVE",
"511 -11 CURVE SMOOTH",
"481 -47 OFFCURVE",
"413 -69 OFFCURVE",
"346 -69 CURVE SMOOTH"
);
}
);
width = 648;
},
{
anchors = (
{
name = bottom;
position = "{365, -187}";
},
{
name = top;
position = "{239, 851}";
}
);
layerId = "26E2967D-790C-4793-AF2A-2D0AD74EDC69";
paths = (
{
closed = 1;
nodes = (
"101 -117 OFFCURVE",
"128 -80 OFFCURVE",
"157 -48 CURVE",
"197 -107 OFFCURVE",
"258 -137 OFFCURVE",
"338 -137 CURVE SMOOTH",
"384 -137 OFFCURVE",
"425 -129 OFFCURVE",
"462 -112 CURVE SMOOTH",
"535 -79 OFFCURVE",
"578 -15 OFFCURVE",
"578 60 CURVE SMOOTH",
"578 171 OFFCURVE",
"519 241 OFFCURVE",
"425 241 CURVE SMOOTH",
"338 241 OFFCURVE",
"259 194 OFFCURVE",
"172 88 CURVE",
"167 102 OFFCURVE",
"165 118 OFFCURVE",
"165 135 CURVE SMOOTH",
"165 174 OFFCURVE",
"185 213 OFFCURVE",
"225 250 CURVE SMOOTH",
"265 288 OFFCURVE",
"332 327 OFFCURVE",
"425 366 CURVE SMOOTH",
"440 372 OFFCURVE",
"452 379 OFFCURVE",
"461 387 CURVE SMOOTH",
"481 403 OFFCURVE",
"491 423 OFFCURVE",
"491 449 CURVE SMOOTH",
"491 473 OFFCURVE",
"487 490 OFFCURVE",
"479 500 CURVE",
"412 479 OFFCURVE",
"352 451 OFFCURVE",
"300 417 CURVE",
"198 429 OFFCURVE",
"144 479 OFFCURVE",
"140 556 CURVE",
"182 579 OFFCURVE",
"214 588 OFFCURVE",
"261 588 CURVE SMOOTH",
"291 588 OFFCURVE",
"326 580 OFFCURVE",
"367 565 CURVE",
"388 605 LINE",
"332 667 OFFCURVE",
"282 698 OFFCURVE",
"235 698 CURVE SMOOTH",
"209 698 OFFCURVE",
"183 688 OFFCURVE",
"157 667 CURVE SMOOTH",
"106 625 OFFCURVE",
"68 544 OFFCURVE",
"68 484 CURVE SMOOTH",
"68 463 OFFCURVE",
"74 442 OFFCURVE",
"86 421 CURVE SMOOTH",
"110 380 OFFCURVE",
"155 348 OFFCURVE",
"204 337 CURVE",
"148 275 OFFCURVE",
"114 201 OFFCURVE",
"114 124 CURVE SMOOTH",
"114 88 OFFCURVE",
"118 55 OFFCURVE",
"125 26 CURVE",
"95 -18 OFFCURVE",
"64 -69 OFFCURVE",
"32 -128 CURVE",
"73 -158 LINE"
);
},
{
closed = 1;
nodes = (
"307 -26 OFFCURVE",
"263 -11 OFFCURVE",
"222 20 CURVE",
"297 87 OFFCURVE",
"367 121 OFFCURVE",
"432 121 CURVE SMOOTH",
"482 121 OFFCURVE",
"525 92 OFFCURVE",
"525 58 CURVE SMOOTH",
"525 38 OFFCURVE",
"515 21 OFFCURVE",
"496 8 CURVE SMOOTH",
"467 -13 OFFCURVE",
"417 -26 OFFCURVE",
"356 -26 CURVE SMOOTH"
);
}
);
width = 664;
}
);
unicode = 060F;
}
{
glyphname = uni061A;
layers = (
{
anchors = (
{
name = _bottom;
position = "{0, 46}";
},
{
name = _bottom3;
position = "{0, 46}";
},
{
name = _bottom_two;
position = "{0, 46}";
},
{
name = bottom3;
position = "{7, -53}";
}
);
layerId = master01;
paths = (
{
closed = 1;
nodes = (
"-25 -40 LINE SMOOTH",
"-3 -32 OFFCURVE",
"23 -23 OFFCURVE",
"54 -10 CURVE SMOOTH",
"70 -4 OFFCURVE",
"77 8 OFFCURVE",
"77 25 CURVE",
"76 36 LINE",
"43 23 OFFCURVE",
"3 9 OFFCURVE",
"-46 -6 CURVE",
"-51 -49 LINE"
);
}
);
width = 0;
},
{
anchors = (
{
name = _bottom;
position = "{0, 54}";
},
{
name = _bottom3;
position = "{0, 54}";
},
{
name = _bottom_two;
position = "{0, 54}";
},
{
name = bottom3;
position = "{7, -45}";
}
);
layerId = "26E2967D-790C-4793-AF2A-2D0AD74EDC69";
paths = (
{
closed = 1;
nodes = (
"-28 -40 LINE SMOOTH",
"-7 -32 OFFCURVE",
"18 -24 OFFCURVE",
"51 -11 CURVE SMOOTH",
"67 -4 OFFCURVE",
"75 10 OFFCURVE",
"75 30 CURVE",
"73 46 LINE",
"41 33 OFFCURVE",
"0 18 OFFCURVE",
"-52 2 CURVE",
"-58 -50 LINE"
);
}
);
width = 0;
}
);
unicode = 061A;
}
{
glyphname = uni061B;
layers = (
{
layerId = master01;
paths = (
{
closed = 1;
nodes = (
"140 311 OFFCURVE",
"167 338 OFFCURVE",
"173 378 CURVE",
"139 389 OFFCURVE",
"118 399 OFFCURVE",
"118 417 CURVE SMOOTH",
"118 452 OFFCURVE",
"141 517 OFFCURVE",
"173 552 CURVE",
"146 575 LINE",
"89 514 OFFCURVE",
"44 427 OFFCURVE",
"44 377 CURVE SMOOTH",
"44 343 OFFCURVE",
"69 311 OFFCURVE",
"106 311 CURVE SMOOTH"
);
},
{
closed = 1;
nodes = (
"153 109 OFFCURVE",
"167 132 OFFCURVE",
"167 140 CURVE SMOOTH",
"167 150 OFFCURVE",
"141 169 OFFCURVE",
"90 199 CURVE",
"82 187 OFFCURVE",
"74 174 OFFCURVE",
"67 161 CURVE SMOOTH",
"61 148 OFFCURVE",
"53 135 OFFCURVE",
"46 121 CURVE",
"66 109 OFFCURVE",
"93 92 OFFCURVE",
"125 69 CURVE"
);
}
);
width = 212;
},
{
layerId = "26E2967D-790C-4793-AF2A-2D0AD74EDC69";
paths = (
{
closed = 1;
nodes = (
"182 329 OFFCURVE",
"217 363 OFFCURVE",
"227 419 CURVE",
"189 430 OFFCURVE",
"166 442 OFFCURVE",
"166 461 CURVE SMOOTH",
"166 486 OFFCURVE",
"188 530 OFFCURVE",
"231 578 CURVE",
"181 618 LINE",
"84 530 OFFCURVE",
"59 478 OFFCURVE",
"59 418 CURVE SMOOTH",
"59 366 OFFCURVE",
"92 329 OFFCURVE",
"139 329 CURVE SMOOTH"
);
},
{
closed = 1;
nodes = (
"214 127 OFFCURVE",
"232 158 OFFCURVE",
"232 167 CURVE SMOOTH",
"232 182 OFFCURVE",
"199 208 OFFCURVE",
"134 246 CURVE",
"122 229 OFFCURVE",
"112 213 OFFCURVE",
"104 196 CURVE SMOOTH",
"95 179 OFFCURVE",
"85 162 OFFCURVE",
"75 144 CURVE",
"109 125 OFFCURVE",
"143 102 OFFCURVE",
"178 75 CURVE"
);
}
);
width = 261;
}
);
unicode = 061B;
}
{
glyphname = uni061F;
layers = (
{
layerId = master01;
paths = (
{
closed = 1;
nodes = (
"262 278 OFFCURVE",
"273 315 OFFCURVE",
"273 343 CURVE SMOOTH",
"273 369 OFFCURVE",
"263 392 OFFCURVE",
"243 413 CURVE SMOOTH",
"204 453 OFFCURVE",
"134 474 OFFCURVE",
"91 501 CURVE",
"113 567 OFFCURVE",
"171 611 OFFCURVE",
"232 611 CURVE SMOOTH",
"278 611 OFFCURVE",
"303 600 OFFCURVE",
"343 563 CURVE",
"363 580 OFFCURVE",
"373 599 OFFCURVE",
"373 618 CURVE SMOOTH",
"373 630 OFFCURVE",
"368 641 OFFCURVE",
"359 651 CURVE SMOOTH",
"331 681 OFFCURVE",
"292 697 OFFCURVE",
"243 697 CURVE SMOOTH",
"211 697 OFFCURVE",
"180 687 OFFCURVE",
"151 668 CURVE SMOOTH",
"94 630 OFFCURVE",
"55 560 OFFCURVE",
"55 498 CURVE SMOOTH",
"55 450 OFFCURVE",
"80 415 OFFCURVE",
"132 387 CURVE SMOOTH",
"162 370 OFFCURVE",
"182 357 OFFCURVE",
"192 346 CURVE SMOOTH",
"203 336 OFFCURVE",
"208 324 OFFCURVE",
"208 311 CURVE SMOOTH",
"208 302 OFFCURVE",
"206 284 OFFCURVE",
"201 257 CURVE",
"239 233 LINE"
);
},
{
closed = 1;
nodes = (
"245 105 OFFCURVE",
"258 128 OFFCURVE",
"258 135 CURVE SMOOTH",
"258 139 OFFCURVE",
"252 146 OFFCURVE",
"241 156 CURVE SMOOTH",
"229 166 OFFCURVE",
"209 178 OFFCURVE",
"182 194 CURVE",
"174 182 OFFCURVE",
"166 169 OFFCURVE",
"159 156 CURVE SMOOTH",
"153 143 OFFCURVE",
"146 130 OFFCURVE",
"138 116 CURVE",
"165 101 OFFCURVE",
"184 88 OFFCURVE",
"217 64 CURVE"
);
}
);
width = 425;
},
{
layerId = "26E2967D-790C-4793-AF2A-2D0AD74EDC69";
paths = (
{
closed = 1;
nodes = (
"268 312 OFFCURVE",
"280 350 OFFCURVE",
"280 379 CURVE SMOOTH",
"280 413 OFFCURVE",
"265 440 OFFCURVE",
"241 462 CURVE SMOOTH",
"217 485 OFFCURVE",
"181 504 OFFCURVE",
"97 528 CURVE",
"116 584 OFFCURVE",
"160 612 OFFCURVE",
"231 612 CURVE SMOOTH",
"278 612 OFFCURVE",
"304 600 OFFCURVE",
"342 563 CURVE",
"365 584 OFFCURVE",
"376 608 OFFCURVE",
"376 637 CURVE SMOOTH",
"376 658 OFFCURVE",
"369 676 OFFCURVE",
"355 689 CURVE SMOOTH",
"328 717 OFFCURVE",
"289 732 OFFCURVE",
"242 732 CURVE SMOOTH",
"210 732 OFFCURVE",
"179 722 OFFCURVE",
"149 701 CURVE SMOOTH",
"88 661 OFFCURVE",
"45 587 OFFCURVE",
"45 524 CURVE SMOOTH",
"45 477 OFFCURVE",
"70 439 OFFCURVE",
"120 410 CURVE SMOOTH",
"148 394 OFFCURVE",
"167 381 OFFCURVE",
"178 371 CURVE SMOOTH",
"188 361 OFFCURVE",
"193 350 OFFCURVE",
"193 339 CURVE SMOOTH",
"193 328 OFFCURVE",
"192 315 OFFCURVE",
"188 300 CURVE",
"245 264 LINE"
);
},
{
closed = 1;
nodes = (
"253 125 OFFCURVE",
"271 156 OFFCURVE",
"271 165 CURVE SMOOTH",
"271 171 OFFCURVE",
"264 181 OFFCURVE",
"249 194 CURVE SMOOTH",
"234 207 OFFCURVE",
"208 223 OFFCURVE",
"173 244 CURVE",
"161 227 OFFCURVE",
"151 211 OFFCURVE",
"143 194 CURVE SMOOTH",
"134 177 OFFCURVE",
"124 160 OFFCURVE",
"114 142 CURVE",
"148 123 OFFCURVE",
"182 100 OFFCURVE",
"217 73 CURVE"
);
}
);
width = 425;
}
);
unicode = 061F;
}
{
glyphname = uni064B;
layers = (
{
anchors = (
{
name = _top;
position = "{85, 585}";
},
{
name = top;
position = "{63, 777}";
},
{
name = top3;
position = "{63, 777}";
}
);
layerId = master01;
paths = (
{
closed = 1;
nodes = (
"59 600 OFFCURVE",
"112 619 OFFCURVE",
"151 637 CURVE SMOOTH",
"166 644 OFFCURVE",
"174 656 OFFCURVE",
"174 673 CURVE",
"173 683 LINE",
"103 656 OFFCURVE",
"45 636 OFFCURVE",
"-4 621 CURVE",
"-8 579 LINE"
);
},
{
closed = 1;
nodes = (
"45 668 OFFCURVE",
"98 685 OFFCURVE",
"140 704 CURVE SMOOTH",
"155 710 OFFCURVE",
"162 723 OFFCURVE",
"162 741 CURVE",
"161 752 LINE",
"102 728 OFFCURVE",
"43 708 OFFCURVE",
"-15 690 CURVE",
"-18 650 LINE"
);
}
);
width = 0;
},
{
anchors = (
{
name = _top;
position = "{85, 594}";
},
{
name = top;
position = "{63, 784}";
},
{
name = top3;
position = "{63, 785}";
}
);
layerId = "26E2967D-790C-4793-AF2A-2D0AD74EDC69";
paths = (
{
closed = 1;
nodes = (
"63 593 OFFCURVE",
"118 616 OFFCURVE",
"152 633 CURVE SMOOTH",
"167 643 OFFCURVE",
"175 656 OFFCURVE",
"175 675 CURVE",
"174 688 LINE",
"138 671 OFFCURVE",
"83 650 OFFCURVE",
"-7 616 CURVE",
"-13 566 LINE"
);
},
{
closed = 1;
nodes = (
"51 666 OFFCURVE",
"106 689 OFFCURVE",
"140 706 CURVE SMOOTH",
"155 716 OFFCURVE",
"163 729 OFFCURVE",
"163 748 CURVE",
"162 761 LINE",
"126 744 OFFCURVE",
"71 723 OFFCURVE",
"-19 689 CURVE",
"-25 639 LINE"
);
}
);
width = 0;
}
);
unicode = 064B;
}
{
glyphname = uni064C;
layers = (
{
anchors = (
{
name = _top;
position = "{90, 571}";
},
{
name = top3;
position = "{77, 765}";
}
);
layerId = master01;
paths = (
{
closed = 1;
nodes = (
"35 567 OFFCURVE",
"80 593 OFFCURVE",
"106 619 CURVE",
"120 618 LINE SMOOTH",
"147 616 OFFCURVE",
"159 625 OFFCURVE",
"160 646 CURVE",
"150 646 OFFCURVE",
"140 646 OFFCURVE",
"129 648 CURVE",
"132 653 OFFCURVE",
"133 662 OFFCURVE",
"133 673 CURVE SMOOTH",
"133 696 OFFCURVE",
"130 712 OFFCURVE",
"123 722 CURVE SMOOTH",
"115 732 OFFCURVE",
"108 737 OFFCURVE",
"99 737 CURVE SMOOTH",
"72 737 OFFCURVE",
"41 706 OFFCURVE",
"41 676 CURVE SMOOTH",
"41 656 OFFCURVE",
"52 642 OFFCURVE",
"78 628 CURVE",
"62 616 OFFCURVE",
"42 607 OFFCURVE",
"18 601 CURVE",
"21 610 OFFCURVE",
"22 619 OFFCURVE",
"22 627 CURVE SMOOTH",
"22 651 OFFCURVE",
"13 663 OFFCURVE",
"-4 663 CURVE SMOOTH",
"-18 663 OFFCURVE",
"-35 650 OFFCURVE",
"-55 624 CURVE",
"-47 614 LINE",
"-29 623 OFFCURVE",
"-18 627 OFFCURVE",
"-14 627 CURVE SMOOTH",
"-7 627 OFFCURVE",
"-4 622 OFFCURVE",
"-4 612 CURVE",
"-8 586 LINE",
"-8 583 OFFCURVE",
"13 567 OFFCURVE",
"17 567 CURVE SMOOTH"
);
},
{
closed = 1;
nodes = (
"79 663 OFFCURVE",
"65 675 OFFCURVE",
"65 690 CURVE SMOOTH",
"65 696 OFFCURVE",
"75 706 OFFCURVE",
"87 706 CURVE SMOOTH",
"102 706 OFFCURVE",
"108 689 OFFCURVE",
"108 671 CURVE SMOOTH",
"108 667 OFFCURVE",
"107 663 OFFCURVE",
"106 658 CURVE SMOOTH",
"105 653 LINE"
);
}
);
width = 0;
},
{
anchors = (
{
name = _top;
position = "{85, 580}";
},
{
name = top3;
position = "{77, 774}";
}
);
layerId = "26E2967D-790C-4793-AF2A-2D0AD74EDC69";
paths = (
{
closed = 1;
nodes = (
"41 572 OFFCURVE",
"84 597 OFFCURVE",
"111 623 CURVE",
"123 622 LINE SMOOTH",
"149 620 OFFCURVE",
"161 637 OFFCURVE",
"162 659 CURVE",
"154 659 OFFCURVE",
"146 659 OFFCURVE",
"138 660 CURVE",
"139 664 OFFCURVE",
"140 672 OFFCURVE",
"140 680 CURVE SMOOTH",
"140 704 OFFCURVE",
"136 720 OFFCURVE",
"130 730 CURVE SMOOTH",
"121 742 OFFCURVE",
"112 747 OFFCURVE",
"102 747 CURVE SMOOTH",
"71 747 OFFCURVE",
"40 714 OFFCURVE",
"40 683 CURVE SMOOTH",
"40 663 OFFCURVE",
"50 649 OFFCURVE",
"72 636 CURVE",
"61 629 OFFCURVE",
"46 622 OFFCURVE",
"29 617 CURVE",
"30 624 OFFCURVE",
"31 629 OFFCURVE",
"31 635 CURVE SMOOTH",
"31 661 OFFCURVE",
"20 675 OFFCURVE",
"0 675 CURVE SMOOTH",
"-16 675 OFFCURVE",
"-35 661 OFFCURVE",
"-56 632 CURVE",
"-43 617 LINE",
"-25 626 OFFCURVE",
"-12 630 OFFCURVE",
"-9 630 CURVE SMOOTH",
"-5 630 OFFCURVE",
"-4 629 OFFCURVE",
"-4 621 CURVE",
"-8 595 LINE",
"-8 590 OFFCURVE",
"15 572 OFFCURVE",
"21 572 CURVE SMOOTH"
);
},
{
closed = 1;
nodes = (
"85 674 OFFCURVE",
"72 685 OFFCURVE",
"72 698 CURVE SMOOTH",
"72 703 OFFCURVE",
"81 712 OFFCURVE",
"93 712 CURVE SMOOTH",
"107 712 OFFCURVE",
"113 697 OFFCURVE",
"113 681 CURVE SMOOTH",
"113 678 OFFCURVE",
"112 674 OFFCURVE",
"111 669 CURVE SMOOTH",
"110 665 LINE"
);
}
);
width = 0;
}
);
unicode = 064C;
}
{
glyphname = uni064D;
layers = (
{
anchors = (
{
name = _bottom;
position = "{79, 131}";
},
{
name = bottom;
position = "{96, -9}";
},
{
name = bottom3;
position = "{102, 1}";
}
);
layerId = master01;
paths = (
{
closed = 1;
nodes = (
"79 78 OFFCURVE",
"114 90 OFFCURVE",
"132 98 CURVE SMOOTH",
"163 110 OFFCURVE",
"179 115 OFFCURVE",
"175 137 CURVE SMOOTH",
"174 143 LINE",
"124 123 OFFCURVE",
"66 104 OFFCURVE",
"3 86 CURVE",
"0 53 LINE"
);
},
{
closed = 1;
nodes = (
"64 18 OFFCURVE",
"91 27 OFFCURVE",
"121 38 CURVE SMOOTH",
"163 53 OFFCURVE",
"182 59 OFFCURVE",
"182 85 CURVE SMOOTH",
"182 91 LINE",
"131 71 OFFCURVE",
"74 52 OFFCURVE",
"10 34 CURVE",
"7 1 LINE"
);
}
);
width = 0;
},
{
anchors = (
{
name = _bottom;
position = "{79, 140}";
},
{
name = bottom;
position = "{97, 3}";
},
{
name = bottom3;
position = "{102, 10}";
}
);
layerId = "26E2967D-790C-4793-AF2A-2D0AD74EDC69";
paths = (
{
closed = 1;
nodes = (
"75 79 OFFCURVE",
"115 93 OFFCURVE",
"137 103 CURVE SMOOTH",
"165 115 OFFCURVE",
"177 120 OFFCURVE",
"175 140 CURVE SMOOTH",
"174 151 LINE",
"124 131 OFFCURVE",
"66 112 OFFCURVE",
"3 94 CURVE",
"0 56 LINE"
);
},
{
closed = 1;
nodes = (
"77 26 OFFCURVE",
"119 40 OFFCURVE",
"133 46 CURVE SMOOTH",
"166 59 OFFCURVE",
"182 64 OFFCURVE",
"182 87 CURVE SMOOTH",
"182 99 LINE",
"131 79 OFFCURVE",
"74 60 OFFCURVE",
"10 42 CURVE",
"7 4 LINE"
);
}
);
width = 0;
}
);
unicode = 064D;
}
{
glyphname = uni064E;
layers = (
{
anchors = (
{
name = _top;
position = "{90, 577}";
},
{
name = top;
position = "{77, 711}";
}
);
layerId = master01;
paths = (
{
closed = 1;
nodes = (
"61 605 OFFCURVE",
"114 625 OFFCURVE",
"150 642 CURVE SMOOTH",
"166 649 OFFCURVE",
"173 661 OFFCURVE",
"173 677 CURVE",
"172 688 LINE",
"139 675 OFFCURVE",
"80 655 OFFCURVE",
"-4 627 CURVE",
"-9 584 LINE"
);
}
);
width = 0;
},
{
anchors = (
{
name = _top;
position = "{90, 585}";
},
{
name = top;
position = "{77, 719}";
}
);
layerId = "26E2967D-790C-4793-AF2A-2D0AD74EDC69";
paths = (
{
closed = 1;
nodes = (
"63 604 OFFCURVE",
"118 627 OFFCURVE",
"152 644 CURVE SMOOTH",
"167 654 OFFCURVE",
"175 667 OFFCURVE",
"175 686 CURVE",
"174 699 LINE",
"138 682 OFFCURVE",
"83 661 OFFCURVE",
"-7 627 CURVE",
"-13 577 LINE"
);
}
);
width = 0;
}
);
unicode = 064E;
}
{
glyphname = uni064F;
layers = (
{
anchors = (
{
name = _top;
position = "{74, 569}";
},
{
name = top3;
position = "{58, 765}";
}
);
layerId = master01;
paths = (
{
closed = 1;
nodes = (
"25 569 OFFCURVE",
"61 589 OFFCURVE",
"95 623 CURVE",
"107 622 LINE",
"134 622 OFFCURVE",
"146 629 OFFCURVE",
"147 650 CURVE",
"116 652 LINE",
"119 660 OFFCURVE",
"121 668 OFFCURVE",
"121 677 CURVE SMOOTH",
"121 701 OFFCURVE",
"116 719 OFFCURVE",
"107 730 CURVE SMOOTH",
"102 737 OFFCURVE",
"95 741 OFFCURVE",
"86 741 CURVE SMOOTH",
"60 741 OFFCURVE",
"28 711 OFFCURVE",
"28 679 CURVE SMOOTH",
"28 659 OFFCURVE",
"41 643 OFFCURVE",
"65 632 CURVE",
"37 613 OFFCURVE",
"6 601 OFFCURVE",
"-28 594 CURVE",
"-28 578 OFFCURVE",
"-17 569 OFFCURVE",
"0 569 CURVE SMOOTH"
);
},
{
closed = 1;
nodes = (
"65 667 OFFCURVE",
"52 679 OFFCURVE",
"52 694 CURVE SMOOTH",
"52 700 OFFCURVE",
"62 709 OFFCURVE",
"74 709 CURVE SMOOTH",
"89 709 OFFCURVE",
"96 693 OFFCURVE",
"96 675 CURVE SMOOTH",
"96 671 OFFCURVE",
"95 667 OFFCURVE",
"93 662 CURVE SMOOTH",
"91 657 LINE"
);
}
);
width = 0;
},
{
anchors = (
{
name = _top;
position = "{74, 578}";
},
{
name = top3;
position = "{58, 774}";
}
);
layerId = "26E2967D-790C-4793-AF2A-2D0AD74EDC69";
paths = (
{
closed = 1;
nodes = (
"27 573 OFFCURVE",
"64 594 OFFCURVE",
"98 627 CURVE",
"107 626 LINE",
"138 626 OFFCURVE",
"152 635 OFFCURVE",
"152 657 CURVE",
"121 659 LINE",
"125 668 OFFCURVE",
"126 675 OFFCURVE",
"126 683 CURVE SMOOTH",
"126 705 OFFCURVE",
"123 721 OFFCURVE",
"114 733 CURVE SMOOTH",
"107 743 OFFCURVE",
"97 749 OFFCURVE",
"86 749 CURVE SMOOTH",
"55 749 OFFCURVE",
"23 716 OFFCURVE",
"23 685 CURVE SMOOTH",
"23 665 OFFCURVE",
"36 650 OFFCURVE",
"59 638 CURVE",
"37 623 OFFCURVE",
"9 609 OFFCURVE",
"-33 600 CURVE",
"-33 583 OFFCURVE",
"-20 573 OFFCURVE",
"0 573 CURVE SMOOTH"
);
},
{
closed = 1;
nodes = (
"66 676 OFFCURVE",
"57 687 OFFCURVE",
"57 700 CURVE SMOOTH",
"57 707 OFFCURVE",
"66 713 OFFCURVE",
"74 713 CURVE SMOOTH",
"83 713 OFFCURVE",
"92 702 OFFCURVE",
"92 683 CURVE SMOOTH",
"92 680 OFFCURVE",
"92 676 OFFCURVE",
"90 671 CURVE SMOOTH",
"88 667 LINE"
);
}
);
width = 0;
}
);
unicode = 064F;
}
{
glyphname = uni065A;
layers = (
{
anchors = (
{
name = _top;
position = "{138, 444}";
},
{
name = top;
position = "{125, 642}";
}
);
layerId = master01;
paths = (
{
closed = 1;
nodes = (
"128 457 OFFCURVE",
"144 462 OFFCURVE",
"157 470 CURVE",
"176 530 OFFCURVE",
"207 577 OFFCURVE",
"207 589 CURVE SMOOTH",
"207 607 OFFCURVE",
"196 616 OFFCURVE",
"185 617 CURVE",
"169 597 OFFCURVE",
"145 535 OFFCURVE",
"139 503 CURVE",
"130 525 OFFCURVE",
"121 544 OFFCURVE",
"111 560 CURVE SMOOTH",
"92 592 OFFCURVE",
"80 604 OFFCURVE",
"62 604 CURVE SMOOTH",
"57 604 OFFCURVE",
"51 603 OFFCURVE",
"44 602 CURVE SMOOTH",
"29 598 LINE",
"62 553 OFFCURVE",
"84 504 OFFCURVE",
"108 454 CURVE"
);
}
);
width = 0;
},
{
anchors = (
{
name = _top;
position = "{138, 453}";
},
{
name = top;
position = "{125, 641}";
}
);
layerId = "26E2967D-790C-4793-AF2A-2D0AD74EDC69";
paths = (
{
closed = 1;
nodes = (
"128 461 OFFCURVE",
"143 463 OFFCURVE",
"162 476 CURVE",
"181 535 OFFCURVE",
"211 583 OFFCURVE",
"211 595 CURVE SMOOTH",
"211 612 OFFCURVE",
"198 625 OFFCURVE",
"182 625 CURVE",
"168 609 OFFCURVE",
"147 560 OFFCURVE",
"137 523 CURVE",
"132 539 OFFCURVE",
"125 553 OFFCURVE",
"117 566 CURVE SMOOTH",
"97 601 OFFCURVE",
"85 612 OFFCURVE",
"62 612 CURVE SMOOTH",
"56 612 OFFCURVE",
"51 611 OFFCURVE",
"46 610 CURVE SMOOTH",
"26 605 LINE",
"58 561 OFFCURVE",
"81 511 OFFCURVE",
"104 459 CURVE"
);
}
);
width = 0;
}
);
unicode = 065A;
}
{
glyphname = uni065C;
layers = (
{
anchors = (
{
name = _bottom;
position = "{0, -39}";
},
{
name = bottom3;
position = "{0, -210}";
}
);
layerId = master01;
paths = (
{
closed = 1;
nodes = (
"40 -200 OFFCURVE",
"73 -167 OFFCURVE",
"73 -127 CURVE SMOOTH",
"73 -86 OFFCURVE",
"40 -53 OFFCURVE",
"0 -53 CURVE SMOOTH",
"-40 -53 OFFCURVE",
"-73 -86 OFFCURVE",
"-73 -127 CURVE SMOOTH",
"-73 -167 OFFCURVE",
"-40 -200 OFFCURVE",
"0 -200 CURVE SMOOTH"
);
}
);
width = 0;
},
{
anchors = (
{
name = _bottom;
position = "{0, -30}";
},
{
name = bottom3;
position = "{0, -201}";
}
);
layerId = "26E2967D-790C-4793-AF2A-2D0AD74EDC69";
paths = (
{
closed = 1;
nodes = (
"43 -201 OFFCURVE",
"77 -165 OFFCURVE",
"77 -123 CURVE SMOOTH",
"77 -81 OFFCURVE",
"43 -47 OFFCURVE",
"1 -47 CURVE SMOOTH",
"-41 -47 OFFCURVE",
"-76 -81 OFFCURVE",
"-76 -123 CURVE SMOOTH",
"-76 -165 OFFCURVE",
"-41 -201 OFFCURVE",
"1 -201 CURVE SMOOTH"
);
}
);
width = 0;
}
);
unicode = 065C;
}
{
glyphname = uni065D;
layers = (
{
anchors = (
{
name = _top;
position = "{79, 610}";
},
{
name = top3;
position = "{86, 848}";
}
);
layerId = master01;
paths = (
{
closed = 1;
nodes = (
"208 621 OFFCURVE",
"222 632 OFFCURVE",
"222 651 CURVE",
"179 659 OFFCURVE",
"143 673 OFFCURVE",
"112 694 CURVE SMOOTH",
"110 696 LINE",
"137 708 OFFCURVE",
"155 728 OFFCURVE",
"155 752 CURVE SMOOTH",
"155 788 OFFCURVE",
"118 825 OFFCURVE",
"86 825 CURVE SMOOTH",
"62 825 OFFCURVE",
"45 796 OFFCURVE",
"45 749 CURVE SMOOTH",
"45 737 OFFCURVE",
"47 727 OFFCURVE",
"50 719 CURVE",
"37 717 OFFCURVE",
"25 716 OFFCURVE",
"13 716 CURVE",
"16 692 OFFCURVE",
"30 684 OFFCURVE",
"61 684 CURVE",
"75 685 LINE",
"114 645 OFFCURVE",
"159 621 OFFCURVE",
"187 621 CURVE SMOOTH"
);
},
{
closed = 1;
nodes = (
"76 731 OFFCURVE",
"75 738 OFFCURVE",
"75 746 CURVE SMOOTH",
"75 767 OFFCURVE",
"83 787 OFFCURVE",
"100 787 CURVE SMOOTH",
"114 787 OFFCURVE",
"126 776 OFFCURVE",
"126 769 CURVE SMOOTH",
"126 748 OFFCURVE",
"103 731 OFFCURVE",
"80 726 CURVE"
);
}
);
width = 0;
},
{
anchors = (
{
name = _top;
position = "{79, 618}";
},
{
name = top3;
position = "{86, 847}";
}
);
layerId = "26E2967D-790C-4793-AF2A-2D0AD74EDC69";
paths = (
{
closed = 1;
nodes = (
"210 618 OFFCURVE",
"224 631 OFFCURVE",
"224 652 CURVE",
"184 658 OFFCURVE",
"146 672 OFFCURVE",
"113 694 CURVE SMOOTH",
"110 696 LINE",
"137 709 OFFCURVE",
"158 729 OFFCURVE",
"158 753 CURVE SMOOTH",
"158 792 OFFCURVE",
"118 830 OFFCURVE",
"85 830 CURVE SMOOTH",
"61 830 OFFCURVE",
"41 798 OFFCURVE",
"41 749 CURVE SMOOTH",
"41 737 OFFCURVE",
"43 730 OFFCURVE",
"46 722 CURVE",
"33 720 OFFCURVE",
"23 719 OFFCURVE",
"11 719 CURVE",
"14 693 OFFCURVE",
"28 682 OFFCURVE",
"60 682 CURVE",
"74 685 LINE",
"116 642 OFFCURVE",
"160 618 OFFCURVE",
"188 618 CURVE SMOOTH"
);
},
{
closed = 1;
nodes = (
"78 736 OFFCURVE",
"77 741 OFFCURVE",
"77 748 CURVE SMOOTH",
"77 767 OFFCURVE",
"84 784 OFFCURVE",
"98 784 CURVE SMOOTH",
"111 784 OFFCURVE",
"121 775 OFFCURVE",
"121 769 CURVE SMOOTH",
"121 750 OFFCURVE",
"101 735 OFFCURVE",
"81 731 CURVE"
);
}
);
width = 0;
}
);
unicode = 065D;
}
{
glyphname = uni065E;
layers = (
{
anchors = (
{
name = bottom;
position = "{25, -130}";
},
{
name = top;
position = "{9, 930}";
}
);
layerId = master01;
paths = (
{
closed = 1;
nodes = (
"-53 702 OFFCURVE",
"-6 728 OFFCURVE",
"48 764 CURVE SMOOTH",
"76 782 OFFCURVE",
"92 784 OFFCURVE",
"92 806 CURVE SMOOTH",
"92 815 OFFCURVE",
"90 824 OFFCURVE",
"86 834 CURVE",
"77 829 OFFCURVE",
"66 821 OFFCURVE",
"53 811 CURVE SMOOTH",
"-8 763 OFFCURVE",
"-54 734 OFFCURVE",
"-84 723 CURVE",
"-94 683 LINE"
);
},
{
closed = 1;
nodes = (
"56 677 OFFCURVE",
"65 688 OFFCURVE",
"75 705 CURVE",
"59 720 OFFCURVE",
"47 731 OFFCURVE",
"38 736 CURVE",
"25 720 LINE",
"12 702 LINE",
"49 671 LINE"
);
},
{
closed = 1;
nodes = (
"-33 779 OFFCURVE",
"-24 791 OFFCURVE",
"-14 807 CURVE",
"-27 820 OFFCURVE",
"-39 831 OFFCURVE",
"-51 839 CURVE",
"-65 821 OFFCURVE",
"-74 809 OFFCURVE",
"-76 805 CURVE",
"-40 774 LINE"
);
}
);
width = 0;
},
{
anchors = (
{
name = bottom;
position = "{25, -130}";
},
{
name = top;
position = "{9, 930}";
}
);
layerId = "26E2967D-790C-4793-AF2A-2D0AD74EDC69";
paths = (
{
closed = 1;
nodes = (
"-55 691 OFFCURVE",
"-5 719 OFFCURVE",
"52 756 CURVE SMOOTH",
"80 774 OFFCURVE",
"98 777 OFFCURVE",
"98 800 CURVE SMOOTH",
"98 811 OFFCURVE",
"95 821 OFFCURVE",
"90 833 CURVE",
"78 827 OFFCURVE",
"69 820 OFFCURVE",
"51 807 CURVE SMOOTH",
"-11 758 OFFCURVE",
"-59 727 OFFCURVE",
"-88 718 CURVE",
"-99 671 LINE"
);
},
{
closed = 1;
nodes = (
"61 669 OFFCURVE",
"71 682 OFFCURVE",
"81 699 CURVE",
"56 722 OFFCURVE",
"48 728 OFFCURVE",
"37 734 CURVE",
"22 715 LINE",
"8 696 LINE",
"50 661 LINE"
);
},
{
closed = 1;
nodes = (
"-27 772 OFFCURVE",
"-19 783 OFFCURVE",
"-9 802 CURVE",
"-26 819 OFFCURVE",
"-38 829 OFFCURVE",
"-51 837 CURVE",
"-69 815 OFFCURVE",
"-78 802 OFFCURVE",
"-80 799 CURVE",
"-40 764 LINE"
);
}
);
width = 0;
}
);
unicode = 065E;
}
{
glyphname = uni065F;
layers = (
{
anchors = (
{
name = _bottom.dot;
position = "{70, 180}";
},
{
name = bottom;
position = "{74, -15}";
}
);
layerId = master01;
paths = (
{
closed = 1;
nodes = (
"-16 3 OFFCURVE",
"-6 10 OFFCURVE",
"4 10 CURVE SMOOTH",
"11 10 OFFCURVE",
"18 7 OFFCURVE",
"26 3 CURVE SMOOTH",
"35 -1 OFFCURVE",
"43 -5 OFFCURVE",
"50 -5 CURVE SMOOTH",
"71 -5 OFFCURVE",
"113 10 OFFCURVE",
"151 32 CURVE",
"153 69 LINE",
"138 63 OFFCURVE",
"125 60 OFFCURVE",
"113 60 CURVE SMOOTH",
"96 60 OFFCURVE",
"72 71 OFFCURVE",
"57 85 CURVE",
"68 105 OFFCURVE",
"87 120 OFFCURVE",
"102 120 CURVE SMOOTH",
"110 120 OFFCURVE",
"114 115 OFFCURVE",
"114 104 CURVE",
"131 99 LINE",
"135 109 OFFCURVE",
"137 118 OFFCURVE",
"137 126 CURVE SMOOTH",
"137 148 OFFCURVE",
"123 161 OFFCURVE",
"101 161 CURVE SMOOTH",
"92 161 OFFCURVE",
"81 157 OFFCURVE",
"70 150 CURVE SMOOTH",
"46 135 OFFCURVE",
"30 108 OFFCURVE",
"30 85 CURVE SMOOTH",
"30 65 OFFCURVE",
"42 50 OFFCURVE",
"67 37 CURVE",
"62 35 OFFCURVE",
"57 34 OFFCURVE",
"51 34 CURVE SMOOTH",
"44 34 OFFCURVE",
"36 35 OFFCURVE",
"27 38 CURVE SMOOTH",
"18 41 OFFCURVE",
"14 43 OFFCURVE",
"7 43 CURVE SMOOTH",
"-7 43 OFFCURVE",
"-29 24 OFFCURVE",
"-42 1 CURVE",
"-28 -10 LINE"
);
}
);
width = 0;
},
{
anchors = (
{
name = _bottom.dot;
position = "{75, 189}";
},
{
name = bottom;
position = "{78, -7}";
}
);
layerId = "26E2967D-790C-4793-AF2A-2D0AD74EDC69";
paths = (
{
closed = 1;
nodes = (
"-16 11 OFFCURVE",
"-5 16 OFFCURVE",
"5 16 CURVE SMOOTH",
"9 16 OFFCURVE",
"17 14 OFFCURVE",
"27 9 CURVE SMOOTH",
"36 4 OFFCURVE",
"46 2 OFFCURVE",
"55 2 CURVE SMOOTH",
"78 2 OFFCURVE",
"120 20 OFFCURVE",
"150 41 CURVE",
"152 85 LINE",
"132 79 OFFCURVE",
"119 76 OFFCURVE",
"112 76 CURVE SMOOTH",
"96 76 OFFCURVE",
"80 84 OFFCURVE",
"65 99 CURVE",
"73 116 OFFCURVE",
"85 125 OFFCURVE",
"100 125 CURVE SMOOTH",
"111 125 OFFCURVE",
"112 120 OFFCURVE",
"112 113 CURVE",
"131 110 LINE",
"134 117 OFFCURVE",
"136 125 OFFCURVE",
"136 134 CURVE SMOOTH",
"136 164 OFFCURVE",
"124 179 OFFCURVE",
"99 179 CURVE SMOOTH",
"87 179 OFFCURVE",
"74 173 OFFCURVE",
"63 162 CURVE SMOOTH",
"45 144 OFFCURVE",
"29 121 OFFCURVE",
"29 99 CURVE SMOOTH",
"29 77 OFFCURVE",
"42 62 OFFCURVE",
"67 54 CURVE",
"63 52 OFFCURVE",
"58 51 OFFCURVE",
"52 51 CURVE SMOOTH",
"44 51 OFFCURVE",
"36 52 OFFCURVE",
"28 54 CURVE SMOOTH",
"20 56 OFFCURVE",
"14 58 OFFCURVE",
"6 58 CURVE SMOOTH",
"-14 58 OFFCURVE",
"-35 39 OFFCURVE",
"-47 14 CURVE",
"-28 -1 LINE"
);
}
);
width = 0;
}
);
unicode = 065F;
}
{
glyphname = uni066B;
layers = (
{
layerId = master01;
paths = (
{
closed = 1;
nodes = (
"109 64 OFFCURVE",
"155 134 OFFCURVE",
"155 218 CURVE SMOOTH",
"155 238 OFFCURVE",
"147 270 OFFCURVE",
"132 310 CURVE SMOOTH",
"126 326 OFFCURVE",
"115 345 OFFCURVE",
"107 362 CURVE",
"91 347 OFFCURVE",
"82 339 OFFCURVE",
"80 318 CURVE SMOOTH",
"79 305 OFFCURVE",
"83 290 OFFCURVE",
"90 272 CURVE SMOOTH",
"101 246 OFFCURVE",
"120 222 OFFCURVE",
"117 201 CURVE",
"106 145 OFFCURVE",
"88 117 OFFCURVE",
"51 117 CURVE SMOOTH",
"43 117 OFFCURVE",
"29 120 OFFCURVE",
"8 125 CURVE",
"3 104 LINE",
"17 87 OFFCURVE",
"47 67 OFFCURVE",
"60 66 CURVE SMOOTH"
);
}
);
width = 222;
},
{
layerId = "26E2967D-790C-4793-AF2A-2D0AD74EDC69";
paths = (
{
closed = 1;
nodes = (
"125 62 OFFCURVE",
"171 137 OFFCURVE",
"171 221 CURVE SMOOTH",
"171 241 OFFCURVE",
"163 275 OFFCURVE",
"144 313 CURVE SMOOTH",
"136 329 OFFCURVE",
"123 348 OFFCURVE",
"115 365 CURVE",
"96 353 OFFCURVE",
"83 342 OFFCURVE",
"78 321 CURVE SMOOTH",
"75 308 OFFCURVE",
"78 293 OFFCURVE",
"85 275 CURVE SMOOTH",
"96 249 OFFCURVE",
"118 225 OFFCURVE",
"115 204 CURVE",
"102 148 OFFCURVE",
"84 120 OFFCURVE",
"47 120 CURVE SMOOTH",
"39 120 OFFCURVE",
"28 123 OFFCURVE",
"7 128 CURVE",
"2 100 LINE",
"16 83 OFFCURVE",
"63 62 OFFCURVE",
"76 62 CURVE SMOOTH"
);
}
);
width = 250;
}
);
unicode = 066B;
}
{
glyphname = uni066C;
layers = (
{
layerId = master01;
paths = (
{
closed = 1;
nodes = (
"93 130 OFFCURVE",
"141 229 OFFCURVE",
"141 309 CURVE SMOOTH",
"141 352 OFFCURVE",
"115 384 OFFCURVE",
"75 384 CURVE SMOOTH",
"44 384 OFFCURVE",
"20 366 OFFCURVE",
"20 334 CURVE SMOOTH",
"20 303 OFFCURVE",
"44 293 OFFCURVE",
"66 293 CURVE SMOOTH",
"83 293 OFFCURVE",
"83 304 OFFCURVE",
"92 294 CURVE",
"114 269 OFFCURVE",
"56 156 OFFCURVE",
"2 139 CURVE",
"2 102 LINE"
);
}
);
width = 164;
},
{
layerId = "26E2967D-790C-4793-AF2A-2D0AD74EDC69";
paths = (
{
closed = 1;
nodes = (
"93 123 OFFCURVE",
"174 241 OFFCURVE",
"161 321 CURVE SMOOTH",
"154 364 OFFCURVE",
"118 391 OFFCURVE",
"78 391 CURVE SMOOTH",
"47 391 OFFCURVE",
"13 359 OFFCURVE",
"13 330 CURVE SMOOTH",
"13 299 OFFCURVE",
"45 280 OFFCURVE",
"67 280 CURVE SMOOTH",
"84 280 OFFCURVE",
"83 285 OFFCURVE",
"92 280 CURVE",
"122 251 OFFCURVE",
"56 168 OFFCURVE",
"2 151 CURVE",
"2 95 LINE"
);
}
);
width = 238;
}
);
unicode = 066C;
}
{
glyphname = uni066D;
layers = (
{
layerId = master01;
paths = (
{
closed = 1;
nodes = (
"199 280 LINE",
"309 194 LINE",
"312 196 LINE",
"265 327 LINE",
"382 406 LINE",
"380 409 LINE",
"241 405 LINE",
"202 539 LINE",
"197 539 LINE",
"159 405 LINE",
"21 409 LINE",
"19 405 LINE",
"134 327 LINE",
"87 196 LINE",
"90 194 LINE"
);
}
);
width = 400;
},
{
layerId = "26E2967D-790C-4793-AF2A-2D0AD74EDC69";
paths = (
{
closed = 1;
nodes = (
"199 290 LINE",
"308 218 LINE",
"313 221 LINE",
"278 348 LINE",
"383 428 LINE",
"380 435 LINE",
"248 441 LINE",
"203 564 LINE",
"196 564 LINE",
"150 441 LINE",
"21 435 LINE",
"18 428 LINE",
"121 348 LINE",
"85 221 LINE",
"90 218 LINE"
);
}
);
width = 400;
}
);
unicode = 066D;
}
{
glyphname = uni066E;
layers = (
{
anchors = (
{
name = bottom;
position = "{378, 35}";
},
{
name = bottom.dot;
position = "{378, 104}";
},
{
name = top;
position = "{365, 603}";
},
{
name = top.dot;
position = "{365, 412}";
}
);
layerId = master01;
paths = (
{
closed = 1;
nodes = (
"472 135 OFFCURVE",
"600 168 OFFCURVE",
"688 224 CURVE",
"711 269 OFFCURVE",
"723 303 OFFCURVE",
"723 326 CURVE SMOOTH",
"723 374 OFFCURVE",
"707 444 OFFCURVE",
"686 543 CURVE",
"643 519 OFFCURVE",
"620 487 OFFCURVE",
"620 459 CURVE SMOOTH",
"620 448 OFFCURVE",
"626 426 OFFCURVE",
"639 392 CURVE SMOOTH",
"656 346 OFFCURVE",
"668 310 OFFCURVE",
"675 282 CURVE",
"583 238 OFFCURVE",
"459 211 OFFCURVE",
"335 211 CURVE SMOOTH",
"282 211 OFFCURVE",
"240 217 OFFCURVE",
"208 228 CURVE SMOOTH",
"144 250 OFFCURVE",
"116 288 OFFCURVE",
"116 366 CURVE SMOOTH",
"116 382 OFFCURVE",
"118 410 OFFCURVE",
"119 415 CURVE",
"83 415 LINE",
"74 383 OFFCURVE",
"70 347 OFFCURVE",
"70 305 CURVE SMOOTH",
"70 191 OFFCURVE",
"157 135 OFFCURVE",
"314 135 CURVE SMOOTH"
);
}
);
width = 772;
},
{
anchors = (
{
name = bottom;
position = "{378, 25}";
},
{
name = bottom.dot;
position = "{378, 97}";
},
{
name = top;
position = "{365, 633}";
},
{
name = top.dot;
position = "{365, 442}";
}
);
layerId = "26E2967D-790C-4793-AF2A-2D0AD74EDC69";
paths = (
{
closed = 1;
nodes = (
"458 135 OFFCURVE",
"606 172 OFFCURVE",
"694 225 CURVE",
"715 263 OFFCURVE",
"733 315 OFFCURVE",
"733 346 CURVE SMOOTH",
"733 369 OFFCURVE",
"723 428 OFFCURVE",
"692 578 CURVE",
"642 553 OFFCURVE",
"601 509 OFFCURVE",
"601 477 CURVE SMOOTH",
"601 459 OFFCURVE",
"611 439 OFFCURVE",
"625 413 CURVE SMOOTH",
"637 391 OFFCURVE",
"661 347 OFFCURVE",
"675 317 CURVE",
"583 276 OFFCURVE",
"467 254 OFFCURVE",
"351 254 CURVE SMOOTH",
"299 254 OFFCURVE",
"256 260 OFFCURVE",
"224 270 CURVE SMOOTH",
"160 292 OFFCURVE",
"131 330 OFFCURVE",
"131 408 CURVE SMOOTH",
"131 421 OFFCURVE",
"133 452 OFFCURVE",
"134 458 CURVE",
"89 458 LINE",
"76 412 OFFCURVE",
"70 376 OFFCURVE",
"70 348 CURVE SMOOTH",
"70 210 OFFCURVE",
"153 135 OFFCURVE",
"314 135 CURVE SMOOTH"
);
}
);
width = 806;
}
);
unicode = 066E;
}
{
glyphname = uni066F;
layers = (
{
anchors = (
{
name = bottom;
position = "{268, -193}";
},
{
name = bottom.dot;
position = "{268, -118}";
},
{
name = top;
position = "{407, 650}";
},
{
name = top.dot;
position = "{408, 479}";
}
);
background = {
anchors = (
{
name = top;
position = "{409, 449}";
},
{
name = top.dot;
position = "{413, 358}";
}
);
};
layerId = master01;
paths = (
{
closed = 1;
nodes = (
"344 -127 OFFCURVE",
"436 -91 OFFCURVE",
"499 -36 CURVE SMOOTH",
"562 19 OFFCURVE",
"596 92 OFFCURVE",
"596 176 CURVE SMOOTH",
"596 227 OFFCURVE",
"588 276 OFFCURVE",
"572 321 CURVE SMOOTH",
"539 413 OFFCURVE",
"476 475 OFFCURVE",
"413 475 CURVE SMOOTH",
"391 475 OFFCURVE",
"368 465 OFFCURVE",
"346 445 CURVE SMOOTH",
"302 404 OFFCURVE",
"272 332 OFFCURVE",
"272 264 CURVE SMOOTH",
"272 186 OFFCURVE",
"321 135 OFFCURVE",
"397 135 CURVE SMOOTH",
"448 135 OFFCURVE",
"491 155 OFFCURVE",
"534 195 CURVE",
"540 163 OFFCURVE",
"544 126 OFFCURVE",
"545 84 CURVE",
"529 59 OFFCURVE",
"506 36 OFFCURVE",
"476 17 CURVE SMOOTH",
"417 -22 OFFCURVE",
"338 -44 OFFCURVE",
"269 -44 CURVE SMOOTH",
"168 -44 OFFCURVE",
"113 10 OFFCURVE",
"113 111 CURVE SMOOTH",
"113 129 OFFCURVE",
"117 153 OFFCURVE",
"124 182 CURVE",
"87 191 LINE",
"71 125 OFFCURVE",
"68 100 OFFCURVE",
"68 61 CURVE SMOOTH",
"68 -58 OFFCURVE",
"141 -127 OFFCURVE",
"266 -127 CURVE SMOOTH"
);
},
{
closed = 1;
nodes = (
"351 217 OFFCURVE",
"311 244 OFFCURVE",
"311 292 CURVE SMOOTH",
"311 305 OFFCURVE",
"315 320 OFFCURVE",
"323 335 CURVE SMOOTH",
"341 366 OFFCURVE",
"370 390 OFFCURVE",
"397 390 CURVE SMOOTH",
"412 390 OFFCURVE",
"427 384 OFFCURVE",
"444 372 CURVE SMOOTH",
"476 349 OFFCURVE",
"505 299 OFFCURVE",
"523 240 CURVE",
"489 224 OFFCURVE",
"455 217 OFFCURVE",
"421 217 CURVE SMOOTH"
);
}
);
width = 647;
},
{
anchors = (
{
name = bottom;
position = "{254, -176}";
},
{
name = bottom.dot;
position = "{254, -106}";
},
{
name = top;
position = "{409, 684}";
},
{
name = top.dot;
position = "{413, 533}";
}
);
background = {
anchors = (
{
name = bottom;
position = "{254, -326}";
},
{
name = bottom.dot;
position = "{254, -266}";
},
{
name = top;
position = "{257, 619}";
}
);
};
layerId = "26E2967D-790C-4793-AF2A-2D0AD74EDC69";
paths = (
{
closed = 1;
nodes = (
"334 -117 OFFCURVE",
"434 -81 OFFCURVE",
"499 -27 CURVE SMOOTH",
"564 27 OFFCURVE",
"601 100 OFFCURVE",
"601 185 CURVE SMOOTH",
"601 244 OFFCURVE",
"593 297 OFFCURVE",
"576 346 CURVE SMOOTH",
"542 443 OFFCURVE",
"478 501 OFFCURVE",
"411 501 CURVE SMOOTH",
"386 501 OFFCURVE",
"363 490 OFFCURVE",
"340 468 CURVE SMOOTH",
"294 425 OFFCURVE",
"264 348 OFFCURVE",
"264 273 CURVE SMOOTH",
"264 185 OFFCURVE",
"311 135 OFFCURVE",
"394 135 CURVE SMOOTH",
"437 135 OFFCURVE",
"479 155 OFFCURVE",
"521 196 CURVE",
"528 166 OFFCURVE",
"532 135 OFFCURVE",
"535 104 CURVE",
"512 86 OFFCURVE",
"488 71 OFFCURVE",
"465 58 CURVE SMOOTH",
"396 20 OFFCURVE",
"327 1 OFFCURVE",
"263 1 CURVE SMOOTH",
"170 1 OFFCURVE",
"123 49 OFFCURVE",
"123 142 CURVE SMOOTH",
"123 165 OFFCURVE",
"128 192 OFFCURVE",
"137 222 CURVE",
"93 233 LINE",
"76 170 OFFCURVE",
"68 122 OFFCURVE",
"68 88 CURVE SMOOTH",
"68 -45 OFFCURVE",
"132 -117 OFFCURVE",
"251 -117 CURVE SMOOTH"
);
},
{
closed = 1;
nodes = (
"353 245 OFFCURVE",
"318 266 OFFCURVE",
"318 306 CURVE SMOOTH",
"318 319 OFFCURVE",
"321 330 OFFCURVE",
"326 341 CURVE SMOOTH",
"338 364 OFFCURVE",
"363 381 OFFCURVE",
"393 381 CURVE SMOOTH",
"406 381 OFFCURVE",
"419 377 OFFCURVE",
"432 369 CURVE SMOOTH",
"459 352 OFFCURVE",
"483 316 OFFCURVE",
"503 260 CURVE",
"472 250 OFFCURVE",
"442 245 OFFCURVE",
"414 245 CURVE SMOOTH"
);
}
);
width = 652;
}
);
unicode = 066F;
}
{
glyphname = uni200C;
layers = (
{
layerId = master01;
paths = (
{
closed = 1;
nodes = (
"18 90 LINE",
"18 814 LINE",
"-18 814 LINE",
"-18 90 LINE"
);
}
);
width = 0;
},
{
layerId = "26E2967D-790C-4793-AF2A-2D0AD74EDC69";
paths = (
{
closed = 1;
nodes = (
"18 98 LINE",
"18 823 LINE",
"-18 823 LINE",
"-18 98 LINE"
);
}
);
width = 0;
}
);
unicode = 200C;
}
{
glyphname = uni200D;
layers = (
{
layerId = master01;
paths = (
{
closed = 1;
nodes = (
"18 90 LINE",
"18 668 LINE",
"83 602 LINE",
"107 626 LINE",
"23 708 LINE",
"107 790 LINE",
"83 814 LINE",
"0 731 LINE",
"-83 814 LINE",
"-107 790 LINE",
"-23 708 LINE",
"-107 626 LINE",
"-83 602 LINE",
"-18 668 LINE",
"-18 90 LINE"
);
}
);
width = 0;
},
{
layerId = "26E2967D-790C-4793-AF2A-2D0AD74EDC69";
paths = (
{
closed = 1;
nodes = (
"18 98 LINE",
"18 677 LINE",
"83 611 LINE",
"107 635 LINE",
"23 717 LINE",
"107 799 LINE",
"83 823 LINE",
"0 739 LINE",
"-83 823 LINE",
"-107 799 LINE",
"-23 717 LINE",
"-107 635 LINE",
"-83 611 LINE",
"-18 677 LINE",
"-18 98 LINE"
);
}
);
width = 0;
}
);
unicode = 200D;
}
{
glyphname = uni200E;
layers = (
{
layerId = master01;
paths = (
{
closed = 1;
nodes = (
"17 90 LINE",
"17 692 LINE",
"147 692 LINE",
"80 629 LINE",
"104 605 LINE",
"210 709 LINE",
"104 814 LINE",
"80 790 LINE",
"147 727 LINE",
"-18 727 LINE",
"-18 90 LINE"
);
}
);
width = 0;
},
{
layerId = "26E2967D-790C-4793-AF2A-2D0AD74EDC69";
paths = (
{
closed = 1;
nodes = (
"17 98 LINE",
"17 701 LINE",
"147 701 LINE",
"80 637 LINE",
"104 614 LINE",
"210 718 LINE",
"104 823 LINE",
"80 799 LINE",
"147 736 LINE",
"-18 736 LINE",
"-18 98 LINE"
);
}
);
width = 0;
}
);
unicode = 200E;
}
{
glyphname = uni200F;
layers = (
{
layerId = master01;
paths = (
{
closed = 1;
nodes = (
"17 90 LINE",
"17 727 LINE",
"-147 727 LINE",
"-81 790 LINE",
"-104 814 LINE",
"-210 709 LINE",
"-104 605 LINE",
"-81 629 LINE",
"-147 692 LINE",
"-18 692 LINE",
"-18 90 LINE"
);
}
);
width = 0;
},
{
layerId = "26E2967D-790C-4793-AF2A-2D0AD74EDC69";
paths = (
{
closed = 1;
nodes = (
"17 98 LINE",
"17 736 LINE",
"-147 736 LINE",
"-81 799 LINE",
"-104 823 LINE",
"-210 718 LINE",
"-104 614 LINE",
"-81 637 LINE",
"-147 701 LINE",
"-18 701 LINE",
"-18 98 LINE"
);
}
);
width = 0;
}
);
unicode = 200F;
}
{
glyphname = uni204F;
layers = (
{
layerId = master01;
paths = (
{
closed = 1;
nodes = (
"237 6 LINE",
"223 66 LINE SMOOTH",
"204 145 OFFCURVE",
"195 192 OFFCURVE",
"186 251 CURVE",
"92 251 LINE",
"85 240 LINE",
"104 169 OFFCURVE",
"139 78 OFFCURVE",
"171 6 CURVE"
);
},
{
closed = 1;
nodes = (
"172 549 OFFCURVE",
"198 569 OFFCURVE",
"198 617 CURVE SMOOTH",
"198 666 OFFCURVE",
"172 685 OFFCURVE",
"137 685 CURVE SMOOTH",
"102 685 OFFCURVE",
"74 666 OFFCURVE",
"74 617 CURVE SMOOTH",
"74 569 OFFCURVE",
"102 549 OFFCURVE",
"137 549 CURVE SMOOTH"
);
}
);
width = 268;
},
{
layerId = "26E2967D-790C-4793-AF2A-2D0AD74EDC69";
paths = (
{
closed = 1;
nodes = (
"237 6 LINE",
"223 66 LINE SMOOTH",
"204 145 OFFCURVE",
"195 192 OFFCURVE",
"186 251 CURVE",
"92 251 LINE",
"85 240 LINE",
"104 169 OFFCURVE",
"139 78 OFFCURVE",
"171 6 CURVE"
);
},
{
closed = 1;
nodes = (
"172 549 OFFCURVE",
"198 569 OFFCURVE",
"198 617 CURVE SMOOTH",
"198 666 OFFCURVE",
"172 685 OFFCURVE",
"137 685 CURVE SMOOTH",
"102 685 OFFCURVE",
"74 666 OFFCURVE",
"74 617 CURVE SMOOTH",
"74 569 OFFCURVE",
"102 549 OFFCURVE",
"137 549 CURVE SMOOTH"
);
}
);
width = 268;
}
);
unicode = 204F;
}
{
glyphname = uni0600;
layers = (
{
layerId = master01;
paths = (
{
closed = 1;
nodes = (
"599 107 LINE SMOOTH",
"877 107 OFFCURVE",
"1037 112 OFFCURVE",
"1079 122 CURVE",
"1093 145 OFFCURVE",
"1103 170 OFFCURVE",
"1108 199 CURVE",
"1061 188 OFFCURVE",
"1018 183 OFFCURVE",
"979 183 CURVE SMOOTH",
"952 183 OFFCURVE",
"917 187 OFFCURVE",
"917 205 CURVE SMOOTH",
"917 212 OFFCURVE",
"926 222 OFFCURVE",
"942 234 CURVE SMOOTH",
"956 245 OFFCURVE",
"987 264 OFFCURVE",
"1021 284 CURVE SMOOTH",
"1037 295 OFFCURVE",
"1044 312 OFFCURVE",
"1044 335 CURVE SMOOTH",
"1044 344 OFFCURVE",
"1043 354 OFFCURVE",
"1039 363 CURVE",
"958 322 OFFCURVE",
"917 292 OFFCURVE",
"897 256 CURVE SMOOTH",
"884 234 OFFCURVE",
"880 210 OFFCURVE",
"879 180 CURVE",
"507 180 LINE SMOOTH",
"285 180 OFFCURVE",
"128 186 OFFCURVE",
"35 197 CURVE",
"34 187 LINE SMOOTH",
"34 147 OFFCURVE",
"55 124 OFFCURVE",
"97 119 CURVE SMOOTH",
"147 111 OFFCURVE",
"274 107 OFFCURVE",
"477 107 CURVE SMOOTH"
);
}
);
width = 1138;
},
{
layerId = "26E2967D-790C-4793-AF2A-2D0AD74EDC69";
paths = (
{
closed = 1;
nodes = (
"870 90 LINE SMOOTH",
"1000 90 OFFCURVE",
"1118 97 OFFCURVE",
"1225 110 CURVE",
"1236 129 OFFCURVE",
"1259 187 OFFCURVE",
"1266 225 CURVE",
"1218 214 OFFCURVE",
"1169 209 OFFCURVE",
"1120 209 CURVE SMOOTH",
"1084 209 OFFCURVE",
"1067 216 OFFCURVE",
"1067 231 CURVE SMOOTH",
"1067 238 OFFCURVE",
"1079 247 OFFCURVE",
"1104 259 CURVE SMOOTH",
"1145 278 OFFCURVE",
"1170 291 OFFCURVE",
"1180 298 CURVE SMOOTH",
"1201 312 OFFCURVE",
"1213 343 OFFCURVE",
"1213 374 CURVE SMOOTH",
"1213 398 OFFCURVE",
"1208 417 OFFCURVE",
"1197 431 CURVE",
"1148 407 OFFCURVE",
"1067 353 OFFCURVE",
"1042 312 CURVE SMOOTH",
"1024 281 OFFCURVE",
"1014 243 OFFCURVE",
"1014 206 CURVE",
"385 206 LINE SMOOTH",
"256 206 OFFCURVE",
"134 212 OFFCURVE",
"19 224 CURVE",
"18 207 LINE SMOOTH",
"18 154 OFFCURVE",
"41 117 OFFCURVE",
"81 110 CURVE SMOOTH",
"177 93 OFFCURVE",
"277 91 OFFCURVE",
"393 90 CURVE SMOOTH"
);
}
);
width = 1286;
}
);
unicode = 0600;
}
{
glyphname = uni0601;
layers = (
{
layerId = master01;
paths = (
{
closed = 1;
nodes = (
"120 -35 OFFCURVE",
"132 -29 OFFCURVE",
"144 -15 CURVE SMOOTH",
"156 -2 OFFCURVE",
"171 22 OFFCURVE",
"189 55 CURVE SMOOTH",
"223 116 OFFCURVE",
"252 145 OFFCURVE",
"281 145 CURVE SMOOTH",
"287 145 OFFCURVE",
"294 142 OFFCURVE",
"300 136 CURVE SMOOTH",
"306 130 OFFCURVE",
"318 115 OFFCURVE",
"334 91 CURVE SMOOTH",
"360 55 OFFCURVE",
"385 37 OFFCURVE",
"410 37 CURVE SMOOTH",
"431 37 OFFCURVE",
"457 77 OFFCURVE",
"477 99 CURVE SMOOTH",
"484 107 OFFCURVE",
"491 113 OFFCURVE",
"496 113 CURVE SMOOTH",
"499 113 OFFCURVE",
"505 112 OFFCURVE",
"513 108 CURVE SMOOTH",
"623 62 OFFCURVE",
"743 43 OFFCURVE",
"889 43 CURVE SMOOTH",
"954 43 OFFCURVE",
"1025 49 OFFCURVE",
"1102 60 CURVE SMOOTH",
"1258 83 OFFCURVE",
"1440 131 OFFCURVE",
"1526 158 CURVE SMOOTH",
"1543 163 OFFCURVE",
"1554 166 OFFCURVE",
"1561 166 CURVE SMOOTH",
"1563 166 OFFCURVE",
"1564 165 OFFCURVE",
"1564 162 CURVE SMOOTH",
"1564 148 OFFCURVE",
"1544 120 OFFCURVE",
"1504 80 CURVE",
"1531 56 LINE",
"1585 109 OFFCURVE",
"1612 156 OFFCURVE",
"1612 197 CURVE SMOOTH",
"1612 217 OFFCURVE",
"1596 237 OFFCURVE",
"1572 237 CURVE SMOOTH",
"1561 237 OFFCURVE",
"1547 235 OFFCURVE",
"1530 230 CURVE SMOOTH",
"1208 148 OFFCURVE",
"1053 127 OFFCURVE",
"906 127 CURVE SMOOTH",
"746 127 OFFCURVE",
"616 149 OFFCURVE",
"517 194 CURVE SMOOTH",
"509 197 OFFCURVE",
"503 199 OFFCURVE",
"500 199 CURVE SMOOTH",
"478 199 OFFCURVE",
"456 119 OFFCURVE",
"425 119 CURVE SMOOTH",
"397 119 OFFCURVE",
"373 139 OFFCURVE",
"352 179 CURVE SMOOTH",
"330 221 OFFCURVE",
"314 238 OFFCURVE",
"293 238 CURVE SMOOTH",
"257 238 OFFCURVE",
"220 207 OFFCURVE",
"184 144 CURVE SMOOTH",
"161 104 OFFCURVE",
"145 78 OFFCURVE",
"135 66 CURVE SMOOTH",
"125 54 OFFCURVE",
"116 48 OFFCURVE",
"108 48 CURVE SMOOTH",
"86 48 OFFCURVE",
"76 85 OFFCURVE",
"76 116 CURVE SMOOTH",
"76 135 OFFCURVE",
"84 161 OFFCURVE",
"99 193 CURVE",
"67 210 LINE",
"44 164 OFFCURVE",
"32 123 OFFCURVE",
"32 88 CURVE SMOOTH",
"32 11 OFFCURVE",
"59 -35 OFFCURVE",
"109 -35 CURVE SMOOTH"
);
}
);
width = 112;
},
{
layerId = "26E2967D-790C-4793-AF2A-2D0AD74EDC69";
paths = (
{
closed = 1;
nodes = (
"120 -32 OFFCURVE",
"132 -25 OFFCURVE",
"144 -12 CURVE SMOOTH",
"155 1 OFFCURVE",
"171 25 OFFCURVE",
"189 59 CURVE SMOOTH",
"223 120 OFFCURVE",
"252 148 OFFCURVE",
"281 148 CURVE SMOOTH",
"288 148 OFFCURVE",
"295 145 OFFCURVE",
"302 137 CURVE SMOOTH",
"309 129 OFFCURVE",
"320 115 OFFCURVE",
"334 93 CURVE SMOOTH",
"359 56 OFFCURVE",
"384 37 OFFCURVE",
"410 37 CURVE SMOOTH",
"436 37 OFFCURVE",
"457 64 OFFCURVE",
"478 96 CURVE SMOOTH",
"487 109 OFFCURVE",
"493 116 OFFCURVE",
"496 116 CURVE SMOOTH",
"499 116 OFFCURVE",
"505 114 OFFCURVE",
"513 111 CURVE SMOOTH",
"613 67 OFFCURVE",
"738 45 OFFCURVE",
"889 45 CURVE SMOOTH",
"956 45 OFFCURVE",
"1029 51 OFFCURVE",
"1110 63 CURVE SMOOTH",
"1272 88 OFFCURVE",
"1465 142 OFFCURVE",
"1526 162 CURVE SMOOTH",
"1541 166 OFFCURVE",
"1553 169 OFFCURVE",
"1559 169 CURVE SMOOTH",
"1562 169 OFFCURVE",
"1563 167 OFFCURVE",
"1563 165 CURVE SMOOTH",
"1563 146 OFFCURVE",
"1525 104 OFFCURVE",
"1504 83 CURVE",
"1542 49 LINE",
"1597 103 OFFCURVE",
"1625 158 OFFCURVE",
"1625 216 CURVE SMOOTH",
"1625 248 OFFCURVE",
"1603 272 OFFCURVE",
"1571 272 CURVE SMOOTH",
"1554 272 OFFCURVE",
"1516 265 OFFCURVE",
"1458 249 CURVE SMOOTH",
"1246 192 OFFCURVE",
"1062 164 OFFCURVE",
"906 164 CURVE SMOOTH",
"745 164 OFFCURVE",
"615 186 OFFCURVE",
"517 230 CURVE SMOOTH",
"509 234 OFFCURVE",
"503 236 OFFCURVE",
"500 236 CURVE SMOOTH",
"478 236 OFFCURVE",
"456 156 OFFCURVE",
"425 156 CURVE SMOOTH",
"397 156 OFFCURVE",
"373 175 OFFCURVE",
"352 212 CURVE SMOOTH",
"331 250 OFFCURVE",
"314 268 OFFCURVE",
"293 268 CURVE SMOOTH",
"256 268 OFFCURVE",
"219 236 OFFCURVE",
"184 178 CURVE SMOOTH",
"161 140 OFFCURVE",
"145 116 OFFCURVE",
"135 104 CURVE SMOOTH",
"125 93 OFFCURVE",
"116 87 OFFCURVE",
"108 87 CURVE SMOOTH",
"94 87 OFFCURVE",
"84 104 OFFCURVE",
"84 129 CURVE SMOOTH",
"84 157 OFFCURVE",
"93 188 OFFCURVE",
"110 222 CURVE",
"65 245 LINE",
"32 172 OFFCURVE",
"23 137 OFFCURVE",
"23 100 CURVE SMOOTH",
"23 19 OFFCURVE",
"57 -32 OFFCURVE",
"109 -32 CURVE SMOOTH"
);
}
);
width = 125;
}
);
unicode = 0601;
}
{
glyphname = uni0602;
layers = (
{
layerId = master01;
paths = (
{
closed = 1;
nodes = (
"333 105 OFFCURVE",
"461 105 OFFCURVE",
"596 105 CURVE SMOOTH",
"731 105 OFFCURVE",
"805 105 OFFCURVE",
"818 105 CURVE SMOOTH",
"902 105 OFFCURVE",
"1095 110 OFFCURVE",
"1147 124 CURVE SMOOTH",
"1189 134 OFFCURVE",
"1203 164 OFFCURVE",
"1203 206 CURVE",
"1091 191 OFFCURVE",
"984 184 OFFCURVE",
"872 183 CURVE SMOOTH",
"844 182 OFFCURVE",
"503 182 OFFCURVE",
"258 182 CURVE",
"270 201 OFFCURVE",
"280 226 OFFCURVE",
"280 249 CURVE SMOOTH",
"280 304 OFFCURVE",
"236 349 OFFCURVE",
"184 349 CURVE SMOOTH",
"114 349 OFFCURVE",
"51 285 OFFCURVE",
"51 217 CURVE SMOOTH",
"51 127 OFFCURVE",
"131 105 OFFCURVE",
"211 105 CURVE SMOOTH"
);
},
{
closed = 1;
nodes = (
"199 182 OFFCURVE",
"172 184 OFFCURVE",
"149 187 CURVE SMOOTH",
"115 194 OFFCURVE",
"87 206 OFFCURVE",
"87 231 CURVE SMOOTH",
"87 269 OFFCURVE",
"140 282 OFFCURVE",
"173 282 CURVE SMOOTH",
"212 282 OFFCURVE",
"232 260 OFFCURVE",
"232 215 CURVE SMOOTH",
"232 206 OFFCURVE",
"229 195 OFFCURVE",
"223 182 CURVE"
);
}
);
width = 1233;
},
{
layerId = "26E2967D-790C-4793-AF2A-2D0AD74EDC69";
paths = (
{
closed = 1;
nodes = (
"428 92 OFFCURVE",
"644 92 OFFCURVE",
"860 92 CURVE SMOOTH",
"976 92 OFFCURVE",
"1200 103 OFFCURVE",
"1267 118 CURVE SMOOTH",
"1305 127 OFFCURVE",
"1324 153 OFFCURVE",
"1324 198 CURVE SMOOTH",
"1324 208 OFFCURVE",
"1322 221 OFFCURVE",
"1320 234 CURVE",
"1184 215 OFFCURVE",
"1068 207 OFFCURVE",
"882 207 CURVE SMOOTH",
"678 207 OFFCURVE",
"474 207 OFFCURVE",
"270 207 CURVE",
"281 226 OFFCURVE",
"288 253 OFFCURVE",
"288 275 CURVE SMOOTH",
"288 343 OFFCURVE",
"243 392 OFFCURVE",
"184 392 CURVE SMOOTH",
"101 392 OFFCURVE",
"39 326 OFFCURVE",
"39 238 CURVE SMOOTH",
"39 145 OFFCURVE",
"99 92 OFFCURVE",
"211 92 CURVE SMOOTH"
);
},
{
closed = 1;
nodes = (
"187 207 OFFCURVE",
"164 209 OFFCURVE",
"149 211 CURVE SMOOTH",
"114 217 OFFCURVE",
"93 229 OFFCURVE",
"93 252 CURVE SMOOTH",
"93 280 OFFCURVE",
"127 299 OFFCURVE",
"168 299 CURVE SMOOTH",
"203 299 OFFCURVE",
"224 278 OFFCURVE",
"224 241 CURVE SMOOTH",
"224 232 OFFCURVE",
"221 221 OFFCURVE",
"217 207 CURVE"
);
}
);
width = 1344;
}
);
unicode = 0602;
}
{
glyphname = uni0603;
layers = (
{
layerId = master01;
paths = (
{
closed = 1;
nodes = (
"773 118 LINE",
"807 107 OFFCURVE",
"841 101 OFFCURVE",
"878 101 CURVE SMOOTH",
"911 101 OFFCURVE",
"954 111 OFFCURVE",
"989 135 CURVE SMOOTH",
"1024 159 OFFCURVE",
"1050 195 OFFCURVE",
"1050 247 CURVE SMOOTH",
"1050 265 OFFCURVE",
"1045 283 OFFCURVE",
"1037 298 CURVE SMOOTH",
"1020 330 OFFCURVE",
"988 352 OFFCURVE",
"950 352 CURVE SMOOTH",
"928 352 OFFCURVE",
"901 337 OFFCURVE",
"871 310 CURVE SMOOTH",
"841 282 OFFCURVE",
"809 242 OFFCURVE",
"775 192 CURVE",
"762 196 OFFCURVE",
"749 201 OFFCURVE",
"737 207 CURVE",
"746 221 OFFCURVE",
"754 241 OFFCURVE",
"765 266 CURVE",
"758 273 OFFCURVE",
"749 275 OFFCURVE",
"741 275 CURVE SMOOTH",
"727 275 OFFCURVE",
"716 268 OFFCURVE",
"710 258 CURVE SMOOTH",
"698 239 OFFCURVE",
"689 222 OFFCURVE",
"667 204 CURVE SMOOTH",
"645 185 OFFCURVE",
"611 176 OFFCURVE",
"557 176 CURVE SMOOTH",
"264 176 LINE SMOOTH",
"179 176 OFFCURVE",
"128 184 OFFCURVE",
"24 201 CURVE",
"24 156 OFFCURVE",
"42 130 OFFCURVE",
"87 121 CURVE SMOOTH",
"152 108 OFFCURVE",
"202 104 OFFCURVE",
"264 104 CURVE SMOOTH",
"533 104 LINE SMOOTH",
"608 104 OFFCURVE",
"654 117 OFFCURVE",
"695 150 CURVE",
"708 143 OFFCURVE",
"722 137 OFFCURVE",
"736 131 CURVE",
"728 118 OFFCURVE",
"720 104 OFFCURVE",
"713 90 CURVE",
"743 72 LINE"
);
},
{
closed = 1;
nodes = (
"864 177 OFFCURVE",
"841 179 OFFCURVE",
"818 183 CURVE",
"840 214 OFFCURVE",
"861 237 OFFCURVE",
"878 253 CURVE SMOOTH",
"896 269 OFFCURVE",
"912 277 OFFCURVE",
"926 277 CURVE SMOOTH",
"956 277 OFFCURVE",
"985 263 OFFCURVE",
"1012 222 CURVE",
"967 187 OFFCURVE",
"925 177 OFFCURVE",
"885 177 CURVE SMOOTH"
);
}
);
width = 50;
},
{
layerId = "26E2967D-790C-4793-AF2A-2D0AD74EDC69";
paths = (
{
closed = 1;
nodes = (
"969 98 LINE",
"1005 89 OFFCURVE",
"1042 84 OFFCURVE",
"1081 84 CURVE SMOOTH",
"1111 84 OFFCURVE",
"1141 92 OFFCURVE",
"1170 107 CURVE SMOOTH",
"1227 138 OFFCURVE",
"1264 194 OFFCURVE",
"1264 255 CURVE SMOOTH",
"1264 277 OFFCURVE",
"1259 298 OFFCURVE",
"1249 319 CURVE SMOOTH",
"1228 360 OFFCURVE",
"1191 387 OFFCURVE",
"1148 387 CURVE SMOOTH",
"1110 387 OFFCURVE",
"1068 349 OFFCURVE",
"1021 282 CURVE SMOOTH",
"1009 266 OFFCURVE",
"993 242 OFFCURVE",
"974 210 CURVE",
"957 214 OFFCURVE",
"941 219 OFFCURVE",
"927 225 CURVE",
"934 242 OFFCURVE",
"944 266 OFFCURVE",
"957 295 CURVE",
"947 302 OFFCURVE",
"937 306 OFFCURVE",
"926 306 CURVE SMOOTH",
"908 306 OFFCURVE",
"893 297 OFFCURVE",
"880 279 CURVE SMOOTH",
"862 251 OFFCURVE",
"848 234 OFFCURVE",
"838 226 CURVE SMOOTH",
"815 208 OFFCURVE",
"784 206 OFFCURVE",
"726 206 CURVE SMOOTH",
"308 206 LINE SMOOTH",
"201 206 OFFCURVE",
"153 208 OFFCURVE",
"21 231 CURVE",
"6 173 OFFCURVE",
"28 123 OFFCURVE",
"83 112 CURVE SMOOTH",
"155 98 OFFCURVE",
"202 96 OFFCURVE",
"285 96 CURVE SMOOTH",
"724 96 LINE SMOOTH",
"792 96 OFFCURVE",
"851 109 OFFCURVE",
"872 133 CURVE",
"887 126 OFFCURVE",
"902 119 OFFCURVE",
"917 114 CURVE",
"912 106 OFFCURVE",
"908 97 OFFCURVE",
"903 88 CURVE",
"946 61 LINE"
);
},
{
closed = 1;
nodes = (
"1068 199 OFFCURVE",
"1053 199 OFFCURVE",
"1038 200 CURVE",
"1050 216 OFFCURVE",
"1061 229 OFFCURVE",
"1071 239 CURVE SMOOTH",
"1098 265 OFFCURVE",
"1122 279 OFFCURVE",
"1145 279 CURVE SMOOTH",
"1169 279 OFFCURVE",
"1188 266 OFFCURVE",
"1213 241 CURVE",
"1176 213 OFFCURVE",
"1133 199 OFFCURVE",
"1083 199 CURVE SMOOTH"
);
}
);
width = 64;
}
);
unicode = 0603;
}
{
glyphname = uni0604;
layers = (
{
layerId = master01;
paths = (
{
closed = 1;
nodes = (
"1303 31 OFFCURVE",
"1311 57 OFFCURVE",
"1311 76 CURVE SMOOTH",
"1311 89 OFFCURVE",
"1309 97 OFFCURVE",
"1300 101 CURVE SMOOTH",
"1221 132 OFFCURVE",
"1179 149 OFFCURVE",
"1179 227 CURVE SMOOTH",
"1179 263 OFFCURVE",
"1212 328 OFFCURVE",
"1250 328 CURVE SMOOTH",
"1275 328 OFFCURVE",
"1302 309 OFFCURVE",
"1341 287 CURVE SMOOTH",
"1385 260 OFFCURVE",
"1447 246 OFFCURVE",
"1507 246 CURVE SMOOTH",
"1559 246 OFFCURVE",
"1618 254 OFFCURVE",
"1629 272 CURVE SMOOTH",
"1632 278 OFFCURVE",
"1635 283 OFFCURVE",
"1637 289 CURVE",
"1665 276 OFFCURVE",
"1691 265 OFFCURVE",
"1724 257 CURVE SMOOTH",
"1757 250 OFFCURVE",
"1797 246 OFFCURVE",
"1850 246 CURVE",
"1865 275 OFFCURVE",
"1888 344 OFFCURVE",
"1888 369 CURVE SMOOTH",
"1888 427 OFFCURVE",
"1859 516 OFFCURVE",
"1849 585 CURVE",
"1819 568 OFFCURVE",
"1783 537 OFFCURVE",
"1783 501 CURVE SMOOTH",
"1783 486 OFFCURVE",
"1791 464 OFFCURVE",
"1803 434 CURVE SMOOTH",
"1815 404 OFFCURVE",
"1829 367 OFFCURVE",
"1841 324 CURVE",
"1768 324 OFFCURVE",
"1718 339 OFFCURVE",
"1665 364 CURVE",
"1678 407 OFFCURVE",
"1691 454 OFFCURVE",
"1708 490 CURVE",
"1701 495 OFFCURVE",
"1691 498 OFFCURVE",
"1684 498 CURVE SMOOTH",
"1661 498 OFFCURVE",
"1648 482 OFFCURVE",
"1635 445 CURVE SMOOTH",
"1629 429 OFFCURVE",
"1604 344 OFFCURVE",
"1597 332 CURVE",
"1573 324 OFFCURVE",
"1551 322 OFFCURVE",
"1518 322 CURVE SMOOTH",
"1431 322 OFFCURVE",
"1404 338 OFFCURVE",
"1323 386 CURVE SMOOTH",
"1300 399 OFFCURVE",
"1279 410 OFFCURVE",
"1255 410 CURVE SMOOTH",
"1247 410 OFFCURVE",
"1238 407 OFFCURVE",
"1229 401 CURVE SMOOTH",
"1177 371 OFFCURVE",
"1129 280 OFFCURVE",
"1129 213 CURVE SMOOTH",
"1129 174 OFFCURVE",
"1138 144 OFFCURVE",
"1153 118 CURVE",
"1052 135 OFFCURVE",
"907 155 OFFCURVE",
"824 155 CURVE SMOOTH",
"523 155 LINE SMOOTH",
"384 155 OFFCURVE",
"224 150 OFFCURVE",
"116 126 CURVE SMOOTH",
"71 116 OFFCURVE",
"54 91 OFFCURVE",
"54 46 CURVE",
"237 74 OFFCURVE",
"274 77 OFFCURVE",
"466 77 CURVE SMOOTH",
"767 77 LINE SMOOTH",
"832 77 OFFCURVE",
"907 74 OFFCURVE",
"988 67 CURVE SMOOTH",
"1069 61 OFFCURVE",
"1155 51 OFFCURVE",
"1242 37 CURVE",
"1269 23 OFFCURVE",
"1287 13 OFFCURVE",
"1297 9 CURVE"
);
}
);
width = 1918;
},
{
layerId = "26E2967D-790C-4793-AF2A-2D0AD74EDC69";
paths = (
{
closed = 1;
nodes = (
"1508 23 OFFCURVE",
"1515 57 OFFCURVE",
"1515 83 CURVE SMOOTH",
"1515 105 OFFCURVE",
"1511 118 OFFCURVE",
"1503 121 CURVE SMOOTH",
"1430 150 OFFCURVE",
"1386 172 OFFCURVE",
"1386 235 CURVE SMOOTH",
"1386 278 OFFCURVE",
"1412 317 OFFCURVE",
"1448 317 CURVE SMOOTH",
"1472 317 OFFCURVE",
"1503 298 OFFCURVE",
"1538 276 CURVE SMOOTH",
"1581 249 OFFCURVE",
"1626 236 OFFCURVE",
"1673 236 CURVE SMOOTH",
"1730 236 OFFCURVE",
"1789 248 OFFCURVE",
"1798 263 CURVE SMOOTH",
"1802 269 OFFCURVE",
"1806 277 OFFCURVE",
"1811 287 CURVE",
"1843 272 OFFCURVE",
"1879 260 OFFCURVE",
"1918 251 CURVE SMOOTH",
"1964 241 OFFCURVE",
"2007 236 OFFCURVE",
"2049 236 CURVE",
"2068 272 OFFCURVE",
"2091 345 OFFCURVE",
"2091 378 CURVE SMOOTH",
"2091 404 OFFCURVE",
"2083 446 OFFCURVE",
"2049 619 CURVE",
"1999 594 OFFCURVE",
"1958 549 OFFCURVE",
"1958 517 CURVE SMOOTH",
"1958 498 OFFCURVE",
"1972 468 OFFCURVE",
"1985 441 CURVE SMOOTH",
"1978 457 OFFCURVE",
"2022 368 OFFCURVE",
"2033 346 CURVE",
"1960 353 OFFCURVE",
"1899 364 OFFCURVE",
"1847 391 CURVE",
"1866 454 OFFCURVE",
"1880 498 OFFCURVE",
"1889 520 CURVE",
"1878 527 OFFCURVE",
"1866 531 OFFCURVE",
"1854 531 CURVE SMOOTH",
"1829 531 OFFCURVE",
"1811 518 OFFCURVE",
"1804 501 CURVE SMOOTH",
"1774 420 OFFCURVE",
"1759 382 OFFCURVE",
"1749 366 CURVE",
"1720 357 OFFCURVE",
"1710 355 OFFCURVE",
"1678 355 CURVE SMOOTH",
"1636 355 OFFCURVE",
"1594 368 OFFCURVE",
"1552 395 CURVE SMOOTH",
"1506 424 OFFCURVE",
"1480 435 OFFCURVE",
"1453 435 CURVE SMOOTH",
"1437 435 OFFCURVE",
"1418 423 OFFCURVE",
"1396 400 CURVE SMOOTH",
"1351 354 OFFCURVE",
"1317 281 OFFCURVE",
"1317 222 CURVE SMOOTH",
"1317 194 OFFCURVE",
"1323 168 OFFCURVE",
"1333 144 CURVE",
"1183 168 OFFCURVE",
"1017 179 OFFCURVE",
"853 179 CURVE SMOOTH",
"572 179 LINE SMOOTH",
"365 179 OFFCURVE",
"198 163 OFFCURVE",
"109 137 CURVE SMOOTH",
"66 125 OFFCURVE",
"49 95 OFFCURVE",
"50 41 CURVE",
"209 64 OFFCURVE",
"278 65 OFFCURVE",
"540 65 CURVE SMOOTH",
"833 65 LINE SMOOTH",
"1001 65 OFFCURVE",
"1129 62 OFFCURVE",
"1217 57 CURVE SMOOTH",
"1289 52 OFFCURVE",
"1361 44 OFFCURVE",
"1433 33 CURVE",
"1451 20 OFFCURVE",
"1472 9 OFFCURVE",
"1495 -2 CURVE"
);
}
);
width = 2121;
}
);
unicode = 0604;
}
{
glyphname = uni0608;
layers = (
{
layerId = master01;
paths = (
{
closed = 1;
nodes = (
"782 163 OFFCURVE",
"826 182 OFFCURVE",
"889 215 CURVE",
"912 257 OFFCURVE",
"925 297 OFFCURVE",
"925 317 CURVE SMOOTH",
"925 341 OFFCURVE",
"920 375 OFFCURVE",
"910 419 CURVE SMOOTH",
"898 477 OFFCURVE",
"890 515 OFFCURVE",
"887 534 CURVE",
"847 512 OFFCURVE",
"822 479 OFFCURVE",
"822 450 CURVE SMOOTH",
"822 439 OFFCURVE",
"828 417 OFFCURVE",
"841 383 CURVE SMOOTH",
"856 340 OFFCURVE",
"878 304 OFFCURVE",
"887 273 CURVE",
"838 251 OFFCURVE",
"769 230 OFFCURVE",
"707 230 CURVE",
"699 285 OFFCURVE",
"680 338 OFFCURVE",
"656 374 CURVE SMOOTH",
"622 428 OFFCURVE",
"577 460 OFFCURVE",
"531 460 CURVE SMOOTH",
"509 460 OFFCURVE",
"486 450 OFFCURVE",
"464 430 CURVE SMOOTH",
"420 389 OFFCURVE",
"390 317 OFFCURVE",
"390 249 CURVE SMOOTH",
"390 171 OFFCURVE",
"439 120 OFFCURVE",
"515 120 CURVE SMOOTH",
"559 120 OFFCURVE",
"606 124 OFFCURVE",
"657 143 CURVE",
"660 119 OFFCURVE",
"662 98 OFFCURVE",
"663 69 CURVE",
"647 44 OFFCURVE",
"624 21 OFFCURVE",
"594 2 CURVE SMOOTH",
"535 -37 OFFCURVE",
"456 -59 OFFCURVE",
"387 -59 CURVE SMOOTH",
"299 -59 OFFCURVE",
"248 -2 OFFCURVE",
"248 96 CURVE SMOOTH",
"248 110 OFFCURVE",
"255 144 OFFCURVE",
"268 196 CURVE",
"235 212 LINE",
"166 178 OFFCURVE",
"118 151 OFFCURVE",
"91 133 CURVE SMOOTH",
"76 123 OFFCURVE",
"68 109 OFFCURVE",
"68 90 CURVE SMOOTH",
"68 79 OFFCURVE",
"71 69 OFFCURVE",
"77 59 CURVE",
"122 83 OFFCURVE",
"166 107 OFFCURVE",
"210 131 CURVE",
"205 108 OFFCURVE",
"203 79 OFFCURVE",
"203 46 CURVE SMOOTH",
"203 -74 OFFCURVE",
"270 -142 OFFCURVE",
"384 -142 CURVE SMOOTH",
"462 -142 OFFCURVE",
"554 -106 OFFCURVE",
"617 -51 CURVE SMOOTH",
"680 4 OFFCURVE",
"714 69 OFFCURVE",
"714 153 CURVE"
);
},
{
closed = 1;
nodes = (
"468 202 OFFCURVE",
"429 228 OFFCURVE",
"429 277 CURVE SMOOTH",
"429 290 OFFCURVE",
"433 305 OFFCURVE",
"442 320 CURVE SMOOTH",
"459 351 OFFCURVE",
"488 375 OFFCURVE",
"516 375 CURVE SMOOTH",
"530 375 OFFCURVE",
"545 369 OFFCURVE",
"561 358 CURVE SMOOTH",
"594 334 OFFCURVE",
"623 280 OFFCURVE",
"642 218 CURVE",
"604 203 OFFCURVE",
"570 202 OFFCURVE",
"539 202 CURVE SMOOTH"
);
}
);
width = 993;
},
{
layerId = "26E2967D-790C-4793-AF2A-2D0AD74EDC69";
paths = (
{
closed = 1;
nodes = (
"781 186 OFFCURVE",
"808 197 OFFCURVE",
"878 230 CURVE",
"899 271 OFFCURVE",
"917 320 OFFCURVE",
"917 351 CURVE SMOOTH",
"917 364 OFFCURVE",
"914 391 OFFCURVE",
"906 432 CURVE SMOOTH",
"896 486 OFFCURVE",
"884 541 OFFCURVE",
"875 583 CURVE",
"826 558 OFFCURVE",
"784 514 OFFCURVE",
"784 481 CURVE SMOOTH",
"784 464 OFFCURVE",
"794 443 OFFCURVE",
"808 418 CURVE SMOOTH",
"820 396 OFFCURVE",
"845 353 OFFCURVE",
"858 322 CURVE",
"820 306 OFFCURVE",
"770 277 OFFCURVE",
"702 278 CURVE",
"689 334 OFFCURVE",
"671 393 OFFCURVE",
"652 424 CURVE SMOOTH",
"617 479 OFFCURVE",
"569 510 OFFCURVE",
"520 510 CURVE SMOOTH",
"496 510 OFFCURVE",
"472 499 OFFCURVE",
"449 477 CURVE SMOOTH",
"404 434 OFFCURVE",
"374 357 OFFCURVE",
"374 282 CURVE SMOOTH",
"374 194 OFFCURVE",
"421 144 OFFCURVE",
"503 144 CURVE SMOOTH",
"546 144 OFFCURVE",
"590 150 OFFCURVE",
"637 167 CURVE",
"640 148 OFFCURVE",
"642 132 OFFCURVE",
"644 113 CURVE",
"618 92 OFFCURVE",
"590 75 OFFCURVE",
"563 61 CURVE SMOOTH",
"498 27 OFFCURVE",
"433 10 OFFCURVE",
"372 10 CURVE SMOOTH",
"281 10 OFFCURVE",
"236 55 OFFCURVE",
"236 144 CURVE SMOOTH",
"236 169 OFFCURVE",
"244 206 OFFCURVE",
"254 234 CURVE",
"214 254 LINE",
"159 227 OFFCURVE",
"65 169 OFFCURVE",
"54 157 CURVE SMOOTH",
"43 146 OFFCURVE",
"37 128 OFFCURVE",
"37 109 CURVE SMOOTH",
"37 90 OFFCURVE",
"42 73 OFFCURVE",
"51 58 CURVE",
"106 88 OFFCURVE",
"148 110 OFFCURVE",
"178 123 CURVE",
"178 115 OFFCURVE",
"178 106 OFFCURVE",
"177 97 CURVE SMOOTH",
"177 -36 OFFCURVE",
"241 -108 OFFCURVE",
"361 -108 CURVE SMOOTH",
"444 -108 OFFCURVE",
"543 -72 OFFCURVE",
"608 -18 CURVE SMOOTH",
"677 39 OFFCURVE",
"714 83 OFFCURVE",
"710 176 CURVE"
);
},
{
closed = 1;
nodes = (
"462 254 OFFCURVE",
"427 276 OFFCURVE",
"427 315 CURVE SMOOTH",
"427 325 OFFCURVE",
"429 334 OFFCURVE",
"433 343 CURVE SMOOTH",
"443 370 OFFCURVE",
"470 390 OFFCURVE",
"502 390 CURVE SMOOTH",
"515 390 OFFCURVE",
"528 386 OFFCURVE",
"540 379 CURVE SMOOTH",
"567 362 OFFCURVE",
"591 324 OFFCURVE",
"612 269 CURVE",
"577 257 OFFCURVE",
"546 254 OFFCURVE",
"520 254 CURVE SMOOTH"
);
}
);
width = 954;
}
);
unicode = 0608;
}
{
glyphname = uni0609;
layers = (
{
layerId = master01;
paths = (
{
closed = 1;
nodes = (
"151 206 OFFCURVE",
"235 372 OFFCURVE",
"341 572 CURVE SMOOTH",
"343 577 OFFCURVE",
"344 582 OFFCURVE",
"344 589 CURVE SMOOTH",
"344 608 OFFCURVE",
"332 630 OFFCURVE",
"316 641 CURVE",
"236 494 OFFCURVE",
"124 275 OFFCURVE",
"53 124 CURVE",
"61 104 OFFCURVE",
"73 87 OFFCURVE",
"88 75 CURVE"
);
},
{
closed = 1;
nodes = (
"350 170 OFFCURVE",
"367 198 OFFCURVE",
"367 207 CURVE SMOOTH",
"367 212 OFFCURVE",
"360 221 OFFCURVE",
"346 233 CURVE SMOOTH",
"332 246 OFFCURVE",
"309 261 OFFCURVE",
"275 281 CURVE",
"265 265 OFFCURVE",
"256 249 OFFCURVE",
"247 234 CURVE SMOOTH",
"239 218 OFFCURVE",
"230 202 OFFCURVE",
"221 185 CURVE",
"252 168 OFFCURVE",
"284 146 OFFCURVE",
"317 121 CURVE"
);
},
{
closed = 1;
nodes = (
"163 497 OFFCURVE",
"180 526 OFFCURVE",
"180 534 CURVE SMOOTH",
"180 540 OFFCURVE",
"173 548 OFFCURVE",
"159 561 CURVE SMOOTH",
"145 573 OFFCURVE",
"122 588 OFFCURVE",
"88 608 CURVE",
"78 592 OFFCURVE",
"69 576 OFFCURVE",
"61 561 CURVE SMOOTH",
"52 545 OFFCURVE",
"44 529 OFFCURVE",
"34 512 CURVE",
"60 498 OFFCURVE",
"92 477 OFFCURVE",
"130 449 CURVE"
);
},
{
closed = 1;
nodes = (
"526 170 OFFCURVE",
"543 198 OFFCURVE",
"543 207 CURVE SMOOTH",
"543 212 OFFCURVE",
"536 221 OFFCURVE",
"522 233 CURVE SMOOTH",
"508 246 OFFCURVE",
"484 261 OFFCURVE",
"451 281 CURVE",
"441 265 OFFCURVE",
"431 249 OFFCURVE",
"423 234 CURVE SMOOTH",
"415 218 OFFCURVE",
"406 202 OFFCURVE",
"396 185 CURVE",
"428 168 OFFCURVE",
"460 146 OFFCURVE",
"493 121 CURVE"
);
}
);
width = 553;
},
{
layerId = "26E2967D-790C-4793-AF2A-2D0AD74EDC69";
paths = (
{
closed = 1;
nodes = (
"187 246 OFFCURVE",
"297 460 OFFCURVE",
"352 561 CURVE SMOOTH",
"360 576 OFFCURVE",
"364 591 OFFCURVE",
"364 607 CURVE SMOOTH",
"363 633 OFFCURVE",
"353 656 OFFCURVE",
"334 668 CURVE",
"255 524 OFFCURVE",
"167 352 OFFCURVE",
"71 152 CURVE",
"78 124 OFFCURVE",
"91 102 OFFCURVE",
"111 86 CURVE"
);
},
{
closed = 1;
nodes = (
"421 209 OFFCURVE",
"442 245 OFFCURVE",
"442 256 CURVE SMOOTH",
"442 264 OFFCURVE",
"432 276 OFFCURVE",
"411 293 CURVE SMOOTH",
"390 309 OFFCURVE",
"361 328 OFFCURVE",
"324 349 CURVE",
"311 330 OFFCURVE",
"299 310 OFFCURVE",
"289 290 CURVE SMOOTH",
"278 270 OFFCURVE",
"267 249 OFFCURVE",
"255 228 CURVE",
"301 202 OFFCURVE",
"313 195 OFFCURVE",
"378 146 CURVE"
);
},
{
closed = 1;
nodes = (
"192 519 OFFCURVE",
"213 556 OFFCURVE",
"213 567 CURVE SMOOTH",
"213 575 OFFCURVE",
"202 587 OFFCURVE",
"182 604 CURVE SMOOTH",
"161 621 OFFCURVE",
"132 639 OFFCURVE",
"96 660 CURVE",
"82 640 OFFCURVE",
"70 621 OFFCURVE",
"60 600 CURVE SMOOTH",
"49 580 OFFCURVE",
"38 559 OFFCURVE",
"26 538 CURVE",
"59 521 OFFCURVE",
"100 494 OFFCURVE",
"149 457 CURVE"
);
},
{
closed = 1;
nodes = (
"629 209 OFFCURVE",
"650 245 OFFCURVE",
"650 256 CURVE SMOOTH",
"650 264 OFFCURVE",
"640 276 OFFCURVE",
"619 293 CURVE SMOOTH",
"599 309 OFFCURVE",
"570 328 OFFCURVE",
"533 349 CURVE",
"520 330 OFFCURVE",
"508 310 OFFCURVE",
"497 290 CURVE SMOOTH",
"486 270 OFFCURVE",
"475 249 OFFCURVE",
"463 228 CURVE",
"510 202 OFFCURVE",
"521 195 OFFCURVE",
"586 146 CURVE"
);
}
);
width = 680;
}
);
unicode = 0609;
}
{
glyphname = uni0610;
layers = (
{
anchors = (
{
name = _top;
position = "{99, 604}";
},
{
name = _top3;
position = "{99, 604}";
},
{
name = _top_two;
position = "{99, 604}";
},
{
name = top3;
position = "{73, 822}";
}
);
layerId = master01;
paths = (
{
closed = 1;
nodes = (
"17 594 OFFCURVE",
"26 600 OFFCURVE",
"33 613 CURVE",
"37 622 OFFCURVE",
"39 638 OFFCURVE",
"39 661 CURVE",
"52 658 OFFCURVE",
"65 656 OFFCURVE",
"80 656 CURVE SMOOTH",
"139 656 OFFCURVE",
"181 692 OFFCURVE",
"181 746 CURVE SMOOTH",
"181 770 OFFCURVE",
"155 798 OFFCURVE",
"129 798 CURVE SMOOTH",
"98 798 OFFCURVE",
"66 770 OFFCURVE",
"33 716 CURVE",
"27 727 OFFCURVE",
"20 744 OFFCURVE",
"12 766 CURVE",
"5 758 OFFCURVE",
"-2 744 OFFCURVE",
"-10 724 CURVE",
"4 693 OFFCURVE",
"11 666 OFFCURVE",
"11 642 CURVE SMOOTH",
"11 625 OFFCURVE",
"10 608 OFFCURVE",
"7 593 CURVE"
);
},
{
closed = 1;
nodes = (
"65 693 OFFCURVE",
"53 694 OFFCURVE",
"44 698 CURVE",
"66 737 OFFCURVE",
"91 757 OFFCURVE",
"119 757 CURVE SMOOTH",
"140 757 OFFCURVE",
"155 746 OFFCURVE",
"162 723 CURVE",
"149 703 OFFCURVE",
"122 693 OFFCURVE",
"81 693 CURVE SMOOTH"
);
}
);
width = 0;
},
{
anchors = (
{
name = _top;
position = "{99, 613}";
},
{
name = _top3;
position = "{99, 613}";
},
{
name = _top_two;
position = "{99, 613}";
},
{
name = top3;
position = "{73, 831}";
}
);
layerId = "26E2967D-790C-4793-AF2A-2D0AD74EDC69";
paths = (
{
closed = 1;
nodes = (
"17 594 OFFCURVE",
"30 602 OFFCURVE",
"37 616 CURVE",
"42 626 OFFCURVE",
"44 640 OFFCURVE",
"44 662 CURVE",
"55 660 OFFCURVE",
"67 658 OFFCURVE",
"80 658 CURVE SMOOTH",
"143 658 OFFCURVE",
"186 696 OFFCURVE",
"186 751 CURVE SMOOTH",
"186 778 OFFCURVE",
"157 805 OFFCURVE",
"129 805 CURVE SMOOTH",
"97 805 OFFCURVE",
"65 779 OFFCURVE",
"34 730 CURVE",
"28 742 OFFCURVE",
"22 758 OFFCURVE",
"14 780 CURVE",
"1 766 OFFCURVE",
"-5 753 OFFCURVE",
"-15 728 CURVE",
"-1 697 OFFCURVE",
"6 670 OFFCURVE",
"6 647 CURVE SMOOTH",
"6 625 OFFCURVE",
"4 607 OFFCURVE",
"1 593 CURVE"
);
},
{
closed = 1;
nodes = (
"68 700 OFFCURVE",
"58 701 OFFCURVE",
"50 704 CURVE",
"71 741 OFFCURVE",
"94 758 OFFCURVE",
"119 758 CURVE SMOOTH",
"137 758 OFFCURVE",
"150 749 OFFCURVE",
"157 728 CURVE",
"144 710 OFFCURVE",
"120 700 OFFCURVE",
"81 700 CURVE SMOOTH"
);
}
);
width = 0;
}
);
unicode = 0610;
}
